<svg id="Componente_4_1" data-name="Componente 4 – 1" xmlns="http://www.w3.org/2000/svg" width="483" height="484" viewBox="0 0 483 484">
  <g id="Grupo_24895" data-name="Grupo 24895" transform="translate(-753.586 -156.219)">
    <g id="Grupo_23185" data-name="Grupo 23185" transform="translate(1106.235 441.651)">
      <path id="Trazado_8287" data-name="Trazado 8287" d="M348.871,213.324l-37.884-21.872c-2.326-1.343-2.033-3.687.65-5.238l36.58-21.119c2.685-1.55,6.746-1.718,9.072-.376l37.884,21.872c2.324,1.343,2.033,3.688-.652,5.238l-36.58,21.119C355.257,214.5,351.195,214.667,348.871,213.324Z" transform="translate(-298.405 -69.682)" fill="#c4d9e8" opacity="0.5"/>
      <g id="Grupo_23179" data-name="Grupo 23179" transform="translate(0 52.315)">
        <path id="Trazado_8288" data-name="Trazado 8288" d="M411.622,176.541h0V160.172l-36.7-.02-12.686-7.324c-2.911-1.681-8-1.471-11.358.47l-11.837,6.834-36.735-.02v16.833a3.292,3.292,0,0,0,1.95,3.044l47.438,27.389c2.913,1.681,8,1.469,11.36-.471l45.806-26.447C410.8,179.341,411.731,177.89,411.622,176.541Z" transform="translate(-302.287 -128.605)" fill="#396caa"/>
        <path id="Trazado_8289" data-name="Trazado 8289" d="M356.963,151.7a13.1,13.1,0,0,0-6.088,1.6l-11.837,6.834-36.735-.02v16.833a3.292,3.292,0,0,0,1.95,3.044l47.438,27.389a10.315,10.315,0,0,0,5.272,1.126Z" transform="translate(-302.287 -128.602)" fill="#396caa"/>
        <path id="Trazado_8290" data-name="Trazado 8290" d="M306.459,157.143l-4.157,0v16.833a3.292,3.292,0,0,0,1.95,3.044l2.206,1.275Z" transform="translate(-302.287 -125.635)" fill="#5793ce"/>
        <path id="Trazado_8291" data-name="Trazado 8291" d="M334.737,194.742a12.931,12.931,0,0,0,9.079-.1V175.525h-9.079Z" transform="translate(-284.601 -115.613)" fill="#5793ce"/>
        <path id="Trazado_8292" data-name="Trazado 8292" d="M351.693,198.749l-47.438-27.388c-2.911-1.681-2.546-4.617.816-6.558l45.806-26.447c3.361-1.941,8.447-2.152,11.358-.471l47.439,27.389c2.911,1.681,2.546,4.617-.816,6.558l-45.806,26.447C359.691,200.22,354.606,200.43,351.693,198.749Z" transform="translate(-302.29 -136.751)" fill="#d4ecff"/>
        <path id="Trazado_8293" data-name="Trazado 8293" d="M349.423,192.016l-39.754-22.952c-2.44-1.409-2.134-3.869.683-5.5l38.386-22.162c2.817-1.627,7.078-1.8,9.518-.394l39.755,22.952c2.44,1.409,2.134,3.869-.685,5.5l-38.385,22.162C356.124,193.247,351.863,193.425,349.423,192.016Z" transform="translate(-299.165 -134.947)" fill="#5793ce"/>
        <g id="Grupo_23178" data-name="Grupo 23178" transform="translate(88.054 43.768)">
          <path id="Trazado_8294" data-name="Trazado 8294" d="M363.109,171.052a4.233,4.233,0,0,1-1.916,3.319c-1.057.61-1.916.116-1.916-1.106a4.24,4.24,0,0,1,1.916-3.319C362.251,169.335,363.109,169.829,363.109,171.052Z" transform="translate(-359.277 -162.565)" fill="#d4ecff"/>
          <path id="Trazado_8295" data-name="Trazado 8295" d="M367.1,168.749a4.236,4.236,0,0,1-1.916,3.319c-1.058.61-1.916.114-1.916-1.106a4.234,4.234,0,0,1,1.916-3.319C366.241,167.031,367.1,167.527,367.1,168.749Z" transform="translate(-357.102 -163.821)" fill="#d4ecff"/>
          <path id="Trazado_8296" data-name="Trazado 8296" d="M371.089,166.445a4.234,4.234,0,0,1-1.916,3.319c-1.058.61-1.916.116-1.916-1.106a4.236,4.236,0,0,1,1.916-3.319C370.231,164.728,371.089,165.222,371.089,166.445Z" transform="translate(-354.927 -165.077)" fill="#d4ecff"/>
        </g>
      </g>
      <g id="Grupo_23181" data-name="Grupo 23181" transform="translate(0 26.158)">
        <path id="Trazado_8297" data-name="Trazado 8297" d="M411.622,159.612h0V143.244l-36.7-.022L362.233,135.9c-2.911-1.681-8-1.469-11.358.471L339.037,143.2l-36.735-.02v16.834a3.29,3.29,0,0,0,1.95,3.042l47.438,27.389c2.913,1.681,8,1.469,11.36-.471l45.806-26.445C410.8,162.412,411.731,160.962,411.622,159.612Z" transform="translate(-302.287 -111.677)" fill="#396caa"/>
        <path id="Trazado_8298" data-name="Trazado 8298" d="M356.963,134.769a13.1,13.1,0,0,0-6.088,1.6L339.037,143.2l-36.735-.02v16.834a3.29,3.29,0,0,0,1.95,3.042l47.438,27.389a10.284,10.284,0,0,0,5.272,1.126Z" transform="translate(-302.287 -111.674)" fill="#396caa"/>
        <path id="Trazado_8299" data-name="Trazado 8299" d="M306.459,140.215l-4.157,0v16.834a3.29,3.29,0,0,0,1.95,3.042l2.206,1.275Z" transform="translate(-302.287 -108.707)" fill="#5793ce"/>
        <path id="Trazado_8300" data-name="Trazado 8300" d="M334.737,177.815a12.948,12.948,0,0,0,9.079-.1V158.6h-9.079Z" transform="translate(-284.601 -98.684)" fill="#5793ce"/>
        <path id="Trazado_8301" data-name="Trazado 8301" d="M351.693,181.821l-47.438-27.389c-2.911-1.681-2.546-4.617.816-6.558l45.806-26.447c3.361-1.941,8.447-2.151,11.358-.47l47.439,27.388c2.911,1.681,2.546,4.617-.816,6.558L363.053,181.35C359.691,183.291,354.606,183.5,351.693,181.821Z" transform="translate(-302.29 -119.822)" fill="#d4ecff"/>
        <path id="Trazado_8302" data-name="Trazado 8302" d="M349.423,175.087l-39.754-22.952c-2.44-1.409-2.134-3.869.683-5.5l38.386-22.162c2.817-1.626,7.078-1.8,9.518-.394l39.755,22.952c2.44,1.409,2.134,3.869-.685,5.5l-38.385,22.162C356.124,176.32,351.863,176.5,349.423,175.087Z" transform="translate(-299.165 -118.018)" fill="#5793ce"/>
        <g id="Grupo_23180" data-name="Grupo 23180" transform="translate(88.054 43.768)">
          <path id="Trazado_8303" data-name="Trazado 8303" d="M363.109,154.122a4.234,4.234,0,0,1-1.916,3.319c-1.057.612-1.916.116-1.916-1.106a4.237,4.237,0,0,1,1.916-3.317C362.251,152.406,363.109,152.9,363.109,154.122Z" transform="translate(-359.277 -145.637)" fill="#d4ecff"/>
          <path id="Trazado_8304" data-name="Trazado 8304" d="M367.1,151.82a4.236,4.236,0,0,1-1.916,3.319c-1.058.61-1.916.116-1.916-1.106a4.234,4.234,0,0,1,1.916-3.319C366.241,150.1,367.1,150.6,367.1,151.82Z" transform="translate(-357.102 -146.893)" fill="#d4ecff"/>
          <path id="Trazado_8305" data-name="Trazado 8305" d="M371.089,149.515a4.234,4.234,0,0,1-1.916,3.319c-1.058.612-1.916.116-1.916-1.106a4.233,4.233,0,0,1,1.916-3.317C370.231,147.8,371.089,148.295,371.089,149.515Z" transform="translate(-354.927 -148.148)" fill="#d4ecff"/>
        </g>
      </g>
      <g id="Grupo_23184" data-name="Grupo 23184" transform="translate(0 0)">
        <path id="Trazado_8306" data-name="Trazado 8306" d="M411.622,142.683h0V126.315l-36.7-.02-12.686-7.326c-2.911-1.681-8-1.469-11.358.471l-11.837,6.834-36.735-.022v16.834a3.294,3.294,0,0,0,1.95,3.044L351.69,173.52c2.913,1.681,8,1.471,11.36-.471L408.857,146.6C410.8,145.483,411.731,144.033,411.622,142.683Z" transform="translate(-302.287 -94.748)" fill="#396caa"/>
        <path id="Trazado_8307" data-name="Trazado 8307" d="M356.963,117.841a13.08,13.08,0,0,0-6.088,1.6l-11.837,6.834L302.3,126.25v16.834a3.294,3.294,0,0,0,1.95,3.044l47.438,27.388a10.284,10.284,0,0,0,5.272,1.126Z" transform="translate(-302.287 -94.745)" fill="#396caa"/>
        <path id="Trazado_8308" data-name="Trazado 8308" d="M306.459,123.286l-4.157,0v16.834a3.294,3.294,0,0,0,1.95,3.044l2.206,1.273Z" transform="translate(-302.287 -91.778)" fill="#5793ce"/>
        <path id="Trazado_8309" data-name="Trazado 8309" d="M334.737,160.885a12.948,12.948,0,0,0,9.079-.1V141.668h-9.079Z" transform="translate(-284.601 -81.755)" fill="#5793ce"/>
        <path id="Trazado_8310" data-name="Trazado 8310" d="M351.693,164.892,304.255,137.5c-2.911-1.681-2.546-4.617.816-6.558L350.877,104.5c3.361-1.942,8.447-2.152,11.358-.471l47.439,27.388c2.911,1.681,2.546,4.618-.816,6.559l-45.806,26.445C359.691,166.362,354.606,166.573,351.693,164.892Z" transform="translate(-302.29 -102.893)" fill="#d4ecff"/>
        <path id="Trazado_8311" data-name="Trazado 8311" d="M408.859,124.235l-45.806,26.447c-3.362,1.941-8.447,2.151-11.36.47l-47.438-27.388a4.38,4.38,0,0,1-1.452-1.29c-1,1.61-.547,3.356,1.452,4.51l47.438,27.389c2.913,1.681,8,1.469,11.36-.471l45.806-26.445c2.611-1.508,3.406-3.616,2.268-5.269A6.363,6.363,0,0,1,408.859,124.235Z" transform="translate(-302.29 -92.375)" fill="#fff"/>
        <g id="Grupo_23182" data-name="Grupo 23182" transform="translate(88.054 43.768)">
          <path id="Trazado_8312" data-name="Trazado 8312" d="M363.109,137.195a4.236,4.236,0,0,1-1.916,3.319c-1.057.61-1.916.114-1.916-1.106a4.238,4.238,0,0,1,1.916-3.319C362.251,135.477,363.109,135.973,363.109,137.195Z" transform="translate(-359.277 -128.708)" fill="#d4ecff"/>
          <path id="Trazado_8313" data-name="Trazado 8313" d="M367.1,134.891a4.234,4.234,0,0,1-1.916,3.319c-1.058.61-1.916.116-1.916-1.106a4.236,4.236,0,0,1,1.916-3.319C366.241,133.174,367.1,133.668,367.1,134.891Z" transform="translate(-357.102 -129.964)" fill="#d4ecff"/>
          <path id="Trazado_8314" data-name="Trazado 8314" d="M371.089,132.588a4.236,4.236,0,0,1-1.916,3.319c-1.058.61-1.916.114-1.916-1.106a4.233,4.233,0,0,1,1.916-3.319C370.231,130.87,371.089,131.366,371.089,132.588Z" transform="translate(-354.927 -131.219)" fill="#d4ecff"/>
        </g>
        <g id="Grupo_23183" data-name="Grupo 23183" transform="translate(29.09 16.006)">
          <path id="Trazado_8315" data-name="Trazado 8315" d="M344.236,142.264l-22.2-12.816c-1.363-.786-1.191-2.162.382-3.07L343.853,114a5.907,5.907,0,0,1,5.315-.219l22.2,12.816c1.363.786,1.191,2.162-.382,3.07l-21.434,12.375A5.907,5.907,0,0,1,344.236,142.264Z" transform="translate(-321.117 -113.252)" fill="#5793ce"/>
          <path id="Trazado_8316" data-name="Trazado 8316" d="M338.582,126.5l-3.07-1.772c-.189-.11-.165-.3.052-.425l2.965-1.712a.816.816,0,0,1,.735-.031l3.072,1.774c.188.108.164.3-.053.423l-2.967,1.714A.816.816,0,0,1,338.582,126.5Z" transform="translate(-313.339 -108.218)" fill="#d4ecff"/>
          <path id="Trazado_8317" data-name="Trazado 8317" d="M322.037,129.448l.063.036c.1-.074.2-.15.318-.219l21.434-12.375a5.908,5.908,0,0,1,5.315-.221l22.137,12.782c1.255-.9,1.321-2.123.062-2.851l-22.2-12.816a5.907,5.907,0,0,0-5.315.219l-21.434,12.375C320.845,127.287,320.674,128.662,322.037,129.448Z" transform="translate(-321.117 -113.252)" fill="#396caa"/>
        </g>
      </g>
    </g>
    <g id="Layer_39" transform="translate(821 209.701)">
      <g id="Grupo_24894" data-name="Grupo 24894" transform="translate(0 0)">
        <g id="Grupo_24852" data-name="Grupo 24852" transform="translate(3.88 18.817)">
          <g id="Grupo_24851" data-name="Grupo 24851">
            <path id="Trazado_8908" data-name="Trazado 8908" d="M287.565,257.139V31.278a19.209,19.209,0,0,0-19.153-19.153H112.647L34.426,90.345V257.139Z" transform="translate(-34.426 -12.125)" fill="#edf4fc"/>
          </g>
        </g>
        <g id="Grupo_24858" data-name="Grupo 24858" transform="translate(3.88 263.831)">
          <g id="Grupo_24857" data-name="Grupo 24857">
            <path id="Trazado_8910" data-name="Trazado 8910" d="M34.426,170v79.978a19.209,19.209,0,0,0,19.153,19.153H268.412a19.209,19.209,0,0,0,19.153-19.153V170Z" transform="translate(-34.426 -170)" fill="#ffca28"/>
          </g>
        </g>
        <g id="Grupo_24860" data-name="Grupo 24860" transform="translate(0 259.952)">
          <g id="Grupo_24859" data-name="Grupo 24859">
            <path id="Trazado_8911" data-name="Trazado 8911" d="M269.792,274.391H54.959a23.058,23.058,0,0,1-23.032-23.033V171.38a3.88,3.88,0,1,1,7.76,0v79.978a15.291,15.291,0,0,0,15.273,15.273H269.793a15.289,15.289,0,0,0,15.271-15.273V171.38a3.88,3.88,0,1,1,7.76,0v79.978A23.06,23.06,0,0,1,269.792,274.391Z" transform="translate(-31.926 -167.5)" fill="#4dd0e1"/>
          </g>
        </g>
        <g id="Grupo_24862" data-name="Grupo 24862" transform="translate(3.88 18.817)">
          <g id="Grupo_24861" data-name="Grupo 24861">
            <path id="Trazado_8912" data-name="Trazado 8912" d="M34.426,90.345H93.495a19.209,19.209,0,0,0,19.153-19.153V12.125Z" transform="translate(-34.426 -12.125)" fill="#dedede"/>
          </g>
        </g>
        <g id="Grupo_24864" data-name="Grupo 24864" transform="translate(271.678 190.89)">
          <g id="Grupo_24863" data-name="Grupo 24863">
            <path id="Trazado_8913" data-name="Trazado 8913" d="M233.266,136.271a15.891,15.891,0,0,0-12.738,12.479.287.287,0,0,1-.565,0,15.891,15.891,0,0,0-12.738-12.479.28.28,0,0,1,0-.554,15.891,15.891,0,0,0,12.738-12.479.287.287,0,0,1,.565,0,15.891,15.891,0,0,0,12.738,12.479A.28.28,0,0,1,233.266,136.271Z" transform="translate(-206.982 -123)" fill="#f5c84c"/>
          </g>
        </g>
        <g id="Grupo_24866" data-name="Grupo 24866" transform="translate(117.339 379.073)">
          <g id="Grupo_24865" data-name="Grupo 24865">
            <path id="Trazado_8914" data-name="Trazado 8914" d="M125.968,253.563a11.145,11.145,0,0,0-8.935,8.753.2.2,0,0,1-.4,0,11.145,11.145,0,0,0-8.935-8.753.2.2,0,0,1,0-.388,11.145,11.145,0,0,0,8.935-8.753.2.2,0,0,1,.4,0,11.145,11.145,0,0,0,8.935,8.753A.2.2,0,0,1,125.968,253.563Z" transform="translate(-107.534 -244.256)" fill="#ffca28"/>
          </g>
        </g>
        <g id="Grupo_24868" data-name="Grupo 24868" transform="translate(60.026)">
          <g id="Grupo_24867" data-name="Grupo 24867">
            <ellipse id="Elipse_1351" data-name="Elipse 1351" cx="5.241" cy="5.241" rx="5.241" ry="5.241" fill="#f5c84c"/>
          </g>
        </g>
        <g id="Grupo_24870" data-name="Grupo 24870" transform="translate(272.643 153.643)">
          <g id="Grupo_24869" data-name="Grupo 24869">
            <ellipse id="Elipse_1352" data-name="Elipse 1352" cx="5.241" cy="5.241" rx="5.241" ry="5.241" fill="#4dd0e1"/>
          </g>
        </g>
        <g id="Grupo_24872" data-name="Grupo 24872" transform="translate(17.787 10.026)">
          <g id="Grupo_24871" data-name="Grupo 24871">
            <path id="Trazado_8915" data-name="Trazado 8915" d="M60.562,13.13H57.732V10.3a3.838,3.838,0,0,0-7.676,0v2.831H47.225a3.838,3.838,0,0,0,0,7.676h2.831v2.831a3.838,3.838,0,0,0,7.676,0V20.8h2.831a3.837,3.837,0,1,0,0-7.674Z" transform="translate(-43.387 -6.46)" fill="#4dd0e1"/>
          </g>
        </g>
        <g id="Grupo_24874" data-name="Grupo 24874" transform="translate(80.798 375.96)">
          <g id="Grupo_24873" data-name="Grupo 24873" transform="translate(0)">
            <ellipse id="Elipse_1353" data-name="Elipse 1353" cx="5.241" cy="5.241" rx="5.241" ry="5.241" fill="#70d6f9"/>
          </g>
        </g>
        <g id="Grupo_24876" data-name="Grupo 24876" transform="translate(0 14.938)">
          <g id="Grupo_24875" data-name="Grupo 24875">
            <path id="Trazado_8916" data-name="Trazado 8916" d="M288.943,262.4H35.806a3.879,3.879,0,0,1-3.88-3.88V91.725a3.886,3.886,0,0,1,1.136-2.744l78.221-78.22a3.877,3.877,0,0,1,2.744-1.136H269.793a23.058,23.058,0,0,1,23.031,23.032V258.519A3.882,3.882,0,0,1,288.943,262.4Zm-249.257-7.76H285.063V32.657a15.289,15.289,0,0,0-15.271-15.273H115.632L39.686,93.333Z" transform="translate(-31.926 -9.625)" fill="#4dd0e1"/>
          </g>
        </g>
        <g id="Grupo_24878" data-name="Grupo 24878" transform="translate(1.552 16.489)">
          <g id="Grupo_24877" data-name="Grupo 24877">
            <path id="Trazado_8917" data-name="Trazado 8917" d="M94.323,95.053H36.806a3.88,3.88,0,0,1,0-7.76H94.324A15.289,15.289,0,0,0,109.6,72.02V14.5a3.88,3.88,0,0,1,7.76,0V72.022A23.059,23.059,0,0,1,94.323,95.053Z" transform="translate(-32.926 -10.625)" fill="#4dd0e1"/>
          </g>
        </g>
        <g id="Grupo_24885" data-name="Grupo 24885" transform="translate(70.73 284.713)">
          <g id="Grupo_24880" data-name="Grupo 24880" transform="translate(0)">
            <g id="Grupo_24879" data-name="Grupo 24879">
              <path id="Trazado_8918" data-name="Trazado 8918" d="M96.654,205.8c-5.469-1.758-10.789-3.228-10.789-8.922,0-4.553,3.168-6.8,7.632-6.8,5.131,0,8.143,3.152,8.827,6.735a.775.775,0,0,0,.762.63H109.9a.777.777,0,0,0,.77-.874c-.937-7.293-6.785-13.117-17.171-13.117-9.392,0-16,5.1-16,13.632,0,9.527,6.445,12.108,14.789,14.849,5.8,1.83,11.134,3.58,11.134,9.406,0,4.013-2.494,7.147-7.842,7.147-5.831,0-9.177-3.854-9.585-7.92a.774.774,0,0,0-.771-.7H78.483a.775.775,0,0,0-.773.844c.791,8.987,8.649,14.4,18.077,14.4,10.139,0,15.928-6.313,15.928-13.98,0-9.828-6.532-12.571-15.062-15.333Z" transform="translate(-77.501 -183.455)"/>
            </g>
          </g>
          <g id="Grupo_24882" data-name="Grupo 24882" transform="translate(39.407 0.002)">
            <g id="Grupo_24881" data-name="Grupo 24881">
              <path id="Trazado_8919" data-name="Trazado 8919" d="M141.353,231.354c19.53-12.3,13.178-47.9-13.5-47.9-21.656,0-30.265,23.438-21.67,39.2,5.75,10.545,17.639,14.5,28.525,11.65l9.551,9.617a.779.779,0,0,0,.549.228H152.8a.777.777,0,0,0,.537-1.336Zm-13.5-40.439c22.419,0,22.516,36.811,0,36.811-6.307,0-11.685-2.891-14.635-8.613-5.561-10.771-1.072-28.2,14.635-28.2Z" transform="translate(-102.893 -183.456)"/>
            </g>
          </g>
          <g id="Grupo_24884" data-name="Grupo 24884" transform="translate(96.112 0.627)">
            <g id="Grupo_24883" data-name="Grupo 24883">
              <path id="Trazado_8920" data-name="Trazado 8920" d="M163.905,227.92h-16.6V184.635a.776.776,0,0,0-.776-.776h-6.324a.776.776,0,0,0-.776.776v49a.776.776,0,0,0,.776.776h23.7a.776.776,0,0,0,.776-.776V228.7A.778.778,0,0,0,163.905,227.92Z" transform="translate(-139.431 -183.859)"/>
            </g>
          </g>
        </g>
        <g id="Grupo_24896" data-name="Grupo 24896" transform="translate(80.798 84.161)">
          <path id="Trazado_8287-2" data-name="Trazado 8287" d="M354.161,219.962l-42.963-24.8c-2.637-1.523-2.306-4.181.738-5.94l41.484-23.951c3.045-1.758,7.651-1.949,10.288-.426l42.963,24.8c2.635,1.523,2.306,4.183-.739,5.94l-41.484,23.951C361.4,221.294,356.8,221.485,354.161,219.962Z" transform="translate(-296.928 -57.062)" fill="#c4d9e8" opacity="0.5"/>
          <g id="Grupo_23179-2" data-name="Grupo 23179" transform="translate(0 59.329)">
            <path id="Trazado_8288-2" data-name="Trazado 8288" d="M426.28,179.873h0V161.308l-41.624-.023-14.386-8.306c-3.3-1.907-9.07-1.668-12.881.533l-13.424,7.75-41.66-.023v19.09a3.734,3.734,0,0,0,2.211,3.452l53.8,31.062c3.3,1.907,9.07,1.666,12.883-.534l51.947-29.993C425.342,183.048,426.4,181.4,426.28,179.873Z" transform="translate(-302.286 -125.51)" fill="#396caa"/>
            <path id="Trazado_8289-2" data-name="Trazado 8289" d="M364.292,151.7a14.854,14.854,0,0,0-6.9,1.81l-13.424,7.751-41.66-.023v19.09a3.734,3.734,0,0,0,2.211,3.452l53.8,31.062a11.7,11.7,0,0,0,5.979,1.277Z" transform="translate(-302.286 -125.506)" fill="#396caa"/>
            <path id="Trazado_8290-2" data-name="Trazado 8290" d="M307.017,157.143l-4.714,0v19.09a3.734,3.734,0,0,0,2.211,3.452l2.5,1.446Z" transform="translate(-302.286 -121.411)" fill="#5793ce"/>
            <path id="Trazado_8291-2" data-name="Trazado 8291" d="M334.737,197.319a14.665,14.665,0,0,0,10.3-.117V175.525h-10.3Z" transform="translate(-277.88 -107.58)" fill="#5793ce"/>
            <path id="Trazado_8292-2" data-name="Trazado 8292" d="M358.317,207.061,304.519,176c-3.3-1.907-2.888-5.236.925-7.437l51.947-29.993c3.811-2.2,9.58-2.441,12.881-.534l53.8,31.062c3.3,1.907,2.888,5.236-.925,7.437L371.2,206.528C367.387,208.729,361.62,208.968,358.317,207.061Z" transform="translate(-302.29 -136.751)" fill="#d4ecff"/>
            <path id="Trazado_8293-2" data-name="Trazado 8293" d="M354.974,198.981,309.89,172.953c-2.767-1.6-2.42-4.388.774-6.233L354.2,141.586c3.195-1.845,8.027-2.045,10.794-.447l45.085,26.029c2.767,1.6,2.42,4.388-.776,6.233L365.77,198.535C362.573,200.378,357.74,200.58,354.974,198.981Z" transform="translate(-297.978 -134.261)" fill="#5793ce"/>
            <g id="Grupo_23178-2" data-name="Grupo 23178" transform="translate(99.859 49.636)">
              <path id="Trazado_8294-2" data-name="Trazado 8294" d="M363.623,171.235A4.8,4.8,0,0,1,361.45,175c-1.2.692-2.173.131-2.173-1.255a4.809,4.809,0,0,1,2.173-3.764C362.65,169.288,363.623,169.849,363.623,171.235Z" transform="translate(-359.277 -161.611)" fill="#d4ecff"/>
              <path id="Trazado_8295-2" data-name="Trazado 8295" d="M367.613,168.932a4.8,4.8,0,0,1-2.173,3.764c-1.2.692-2.173.13-2.173-1.255a4.8,4.8,0,0,1,2.173-3.764C366.64,166.984,367.613,167.546,367.613,168.932Z" transform="translate(-356.275 -163.344)" fill="#d4ecff"/>
              <path id="Trazado_8296-2" data-name="Trazado 8296" d="M371.6,166.628a4.8,4.8,0,0,1-2.173,3.764c-1.2.692-2.173.131-2.173-1.255a4.8,4.8,0,0,1,2.173-3.764C370.63,164.681,371.6,165.242,371.6,166.628Z" transform="translate(-353.274 -165.077)" fill="#d4ecff"/>
            </g>
          </g>
          <g id="Grupo_23181-2" data-name="Grupo 23181" transform="translate(0 29.665)">
            <path id="Trazado_8297-2" data-name="Trazado 8297" d="M426.28,162.943h0V144.381l-41.624-.025-14.386-8.306c-3.3-1.907-9.07-1.666-12.881.534l-13.424,7.749-41.66-.023V163.4a3.731,3.731,0,0,0,2.211,3.45l53.8,31.062c3.3,1.907,9.07,1.666,12.883-.534l51.947-29.991C425.342,166.118,426.4,164.475,426.28,162.943Z" transform="translate(-302.286 -108.582)" fill="#396caa"/>
            <path id="Trazado_8298-2" data-name="Trazado 8298" d="M364.292,134.769a14.856,14.856,0,0,0-6.9,1.812l-13.424,7.749-41.66-.023V163.4a3.731,3.731,0,0,0,2.211,3.45l53.8,31.062a11.662,11.662,0,0,0,5.979,1.277Z" transform="translate(-302.286 -108.578)" fill="#396caa"/>
            <path id="Trazado_8299-2" data-name="Trazado 8299" d="M307.017,140.216l-4.714,0V159.3a3.731,3.731,0,0,0,2.211,3.45l2.5,1.446Z" transform="translate(-302.286 -104.483)" fill="#5793ce"/>
            <path id="Trazado_8300-2" data-name="Trazado 8300" d="M334.737,180.391a14.684,14.684,0,0,0,10.3-.117V158.6h-10.3Z" transform="translate(-277.88 -90.652)" fill="#5793ce"/>
            <path id="Trazado_8301-2" data-name="Trazado 8301" d="M358.317,190.133l-53.8-31.062c-3.3-1.907-2.888-5.236.925-7.437l51.947-29.993c3.811-2.2,9.58-2.439,12.881-.533l53.8,31.06c3.3,1.907,2.888,5.236-.925,7.437L371.2,189.6C367.387,191.8,361.62,192.038,358.317,190.133Z" transform="translate(-302.29 -119.822)" fill="#d4ecff"/>
            <path id="Trazado_8302-2" data-name="Trazado 8302" d="M354.974,182.052,309.89,156.023c-2.767-1.6-2.42-4.388.774-6.233L354.2,124.657c3.195-1.843,8.027-2.045,10.794-.447l45.085,26.029c2.767,1.6,2.42,4.388-.776,6.233L365.77,181.605C362.573,183.451,357.74,183.65,354.974,182.052Z" transform="translate(-297.978 -117.333)" fill="#5793ce"/>
            <g id="Grupo_23180-2" data-name="Grupo 23180" transform="translate(99.859 49.636)">
              <path id="Trazado_8303-2" data-name="Trazado 8303" d="M363.623,154.306a4.8,4.8,0,0,1-2.173,3.764c-1.2.694-2.173.131-2.173-1.255a4.805,4.805,0,0,1,2.173-3.762C362.65,152.359,363.623,152.921,363.623,154.306Z" transform="translate(-359.277 -144.682)" fill="#d4ecff"/>
              <path id="Trazado_8304-2" data-name="Trazado 8304" d="M367.613,152a4.8,4.8,0,0,1-2.173,3.764c-1.2.692-2.173.131-2.173-1.255a4.8,4.8,0,0,1,2.173-3.764C366.64,150.056,367.613,150.617,367.613,152Z" transform="translate(-356.275 -146.415)" fill="#d4ecff"/>
              <path id="Trazado_8305-2" data-name="Trazado 8305" d="M371.6,149.7a4.8,4.8,0,0,1-2.173,3.764c-1.2.694-2.173.131-2.173-1.255a4.8,4.8,0,0,1,2.173-3.762C370.63,147.752,371.6,148.314,371.6,149.7Z" transform="translate(-353.274 -148.148)" fill="#d4ecff"/>
            </g>
          </g>
          <g id="Grupo_23184-2" data-name="Grupo 23184" transform="translate(0 0)">
            <path id="Trazado_8306-2" data-name="Trazado 8306" d="M426.28,146.014h0V127.452l-41.624-.023-14.386-8.308c-3.3-1.907-9.07-1.666-12.881.534l-13.424,7.75-41.66-.025v19.091a3.735,3.735,0,0,0,2.211,3.452l53.8,31.06c3.3,1.907,9.07,1.668,12.883-.534l51.947-29.991C425.342,149.189,426.4,147.546,426.28,146.014Z" transform="translate(-302.286 -91.653)" fill="#396caa"/>
            <path id="Trazado_8307-2" data-name="Trazado 8307" d="M364.292,117.841a14.833,14.833,0,0,0-6.9,1.81l-13.424,7.75-41.66-.025v19.091a3.735,3.735,0,0,0,2.211,3.452l53.8,31.06a11.662,11.662,0,0,0,5.979,1.277Z" transform="translate(-302.286 -91.648)" fill="#396caa"/>
            <path id="Trazado_8308-2" data-name="Trazado 8308" d="M307.017,123.287l-4.714,0v19.091a3.735,3.735,0,0,0,2.211,3.452l2.5,1.444Z" transform="translate(-302.286 -87.554)" fill="#5793ce"/>
            <path id="Trazado_8309-2" data-name="Trazado 8309" d="M334.737,163.462a14.684,14.684,0,0,0,10.3-.117V141.668h-10.3Z" transform="translate(-277.88 -73.723)" fill="#5793ce"/>
            <path id="Trazado_8310-2" data-name="Trazado 8310" d="M358.317,173.2l-53.8-31.062c-3.3-1.907-2.888-5.236.925-7.437l51.947-29.991c3.811-2.2,9.58-2.441,12.881-.534l53.8,31.06c3.3,1.907,2.888,5.238-.925,7.439L371.2,172.67C367.387,174.871,361.62,175.111,358.317,173.2Z" transform="translate(-302.29 -102.893)" fill="#d4ecff"/>
            <path id="Trazado_8311-2" data-name="Trazado 8311" d="M423.147,124.51,371.2,154.5c-3.813,2.2-9.58,2.439-12.883.533l-53.8-31.06a4.967,4.967,0,0,1-1.647-1.463c-1.136,1.826-.62,3.806,1.647,5.115l53.8,31.062c3.3,1.907,9.07,1.666,12.883-.535l51.947-29.991c2.961-1.71,3.862-4.1,2.572-5.975A7.216,7.216,0,0,1,423.147,124.51Z" transform="translate(-302.29 -88.378)" fill="#fff"/>
            <g id="Grupo_23182-2" data-name="Grupo 23182" transform="translate(99.859 49.636)">
              <path id="Trazado_8312-2" data-name="Trazado 8312" d="M363.623,137.378a4.8,4.8,0,0,1-2.173,3.764c-1.2.692-2.173.13-2.173-1.255a4.806,4.806,0,0,1,2.173-3.764C362.65,135.43,363.623,135.992,363.623,137.378Z" transform="translate(-359.277 -127.753)" fill="#d4ecff"/>
              <path id="Trazado_8313-2" data-name="Trazado 8313" d="M367.613,135.074a4.8,4.8,0,0,1-2.173,3.764c-1.2.692-2.173.131-2.173-1.255a4.8,4.8,0,0,1,2.173-3.764C366.64,133.127,367.613,133.688,367.613,135.074Z" transform="translate(-356.275 -129.486)" fill="#d4ecff"/>
              <path id="Trazado_8314-2" data-name="Trazado 8314" d="M371.6,132.771a4.8,4.8,0,0,1-2.173,3.764c-1.2.692-2.173.13-2.173-1.255a4.8,4.8,0,0,1,2.173-3.764C370.63,130.823,371.6,131.385,371.6,132.771Z" transform="translate(-353.274 -131.219)" fill="#d4ecff"/>
            </g>
            <g id="Grupo_23183-2" data-name="Grupo 23183" transform="translate(32.99 18.152)">
              <path id="Trazado_8315-2" data-name="Trazado 8315" d="M347.335,146.153,322.16,131.62c-1.546-.892-1.351-2.452.433-3.482L346.9,114.1a6.7,6.7,0,0,1,6.028-.249L378.1,128.388c1.546.892,1.351,2.451-.433,3.482L353.363,145.9A6.7,6.7,0,0,1,347.335,146.153Z" transform="translate(-321.117 -113.252)" fill="#5793ce"/>
              <path id="Trazado_8316-2" data-name="Trazado 8316" d="M339.011,127.037l-3.482-2.01c-.214-.124-.188-.34.06-.482l3.363-1.942a.926.926,0,0,1,.834-.035l3.484,2.012c.214.123.186.338-.06.48L339.845,127A.926.926,0,0,1,339.011,127.037Z" transform="translate(-310.383 -106.306)" fill="#d4ecff"/>
              <path id="Trazado_8317-2" data-name="Trazado 8317" d="M322.16,131.62l.072.04c.117-.084.226-.17.361-.249L346.9,117.377a6.7,6.7,0,0,1,6.028-.251l25.105,14.5c1.423-1.02,1.5-2.408.07-3.233l-25.176-14.534a6.7,6.7,0,0,0-6.028.249l-24.308,14.034C320.809,129.168,320.614,130.728,322.16,131.62Z" transform="translate(-321.117 -113.252)" fill="#396caa"/>
            </g>
          </g>
        </g>
      </g>
    </g>
    <g id="Grupo_23177" data-name="Grupo 23177" transform="translate(993.528 171.219)">
      <path id="Trazado_8275" data-name="Trazado 8275" d="M521.844,149.114l18.043-7.177-4.058-26.545-8.759,7.76Z" transform="translate(-382.895 4.807)" fill="#4dd0e1"/>
      <path id="Trazado_8276" data-name="Trazado 8276" d="M443.694,63.268l43.589-17.419s-8.03,17.383-8.044,17.419-23.275,5.388-23.275,5.388Z" transform="translate(-425.499 -33.105)" fill="#4dd0e1"/>
      <path id="Trazado_8277" data-name="Trazado 8277" d="M571.453,139.991a19.174,19.174,0,0,0-7.065-2.427c2.406-16.043-4.524-32.977-17.826-40.662A29.028,29.028,0,0,0,534.1,92.985c5.212-19.446-2.838-41.545-19.245-51.024a30.218,30.218,0,0,0-26-2.506l.006-.014-.4.161c-.21.08-.419.164-.627.25l-13.658,5.373,5.447,4.686c-7.386,2.327-13.772,8.3-17.145,17.128-6.219,16.28.161,36.078,14.249,44.218l83.757,70.6c10.581,6.113,17,3.56,21.674-8.665S582.033,146.1,571.453,139.991Z" transform="translate(-416.56 -37.601)" fill="#4dd0e1"/>
      <path id="Trazado_8278" data-name="Trazado 8278" d="M464.1,59.871,511.085,41.1a30.016,30.016,0,0,0-24.418-1.646l.006-.014-.4.161c-.21.08-.419.164-.627.25l-13.658,5.373,5.447,4.686A26.064,26.064,0,0,0,464.1,59.871Z" transform="translate(-414.374 -37.601)" fill="#39b1c1"/>
      <path id="Trazado_8279" data-name="Trazado 8279" d="M517.43,109.973,548.455,97.6c-2.868-8.869-8.52-16.618-16.332-21.132a30.173,30.173,0,0,0-3.134-1.576L486.253,91.961Z" transform="translate(-402.298 -17.272)" fill="#98e3ed"/>
      <path id="Trazado_8280" data-name="Trazado 8280" d="M475.371,46.909,488.686,54.6l23.106-9.2a36.719,36.719,0,0,0-5.267-3.715A32.648,32.648,0,0,0,497.49,38.1Z" transform="translate(-408.23 -37.327)" fill="#98e3ed"/>
      <path id="Trazado_8281" data-name="Trazado 8281" d="M533.061,86.247l-22.332,8.889,6.588,9.257,19.163-7.619A43.043,43.043,0,0,0,533.061,86.247Z" transform="translate(-388.954 -11.082)" fill="#39b1c1"/>
      <path id="Trazado_8282" data-name="Trazado 8282" d="M571.878,143.792a19.136,19.136,0,0,0-7.064-2.427c2.406-16.043-4.7-33.082-18-40.766a28.089,28.089,0,0,0-12.284-3.812c5.212-19.446-2.84-41.546-19.247-51.024-17.646-10.195-38.264-1.931-46.052,18.457-.264.692-.507,1.389-.735,2.091-13.463-5.989-28.347.759-34.191,16.054-6.219,16.28.161,36.078,14.251,44.218l106.413,61.482c10.581,6.113,22.944,1.157,27.613-11.068S582.458,149.9,571.878,143.792Z" transform="translate(-431.919 -35.533)" fill="#a0e8f2"/>
      <g id="Grupo_23175" data-name="Grupo 23175" transform="translate(6.857 11.203)">
        <path id="Trazado_8283" data-name="Trazado 8283" d="M454.045,67.611a13.992,13.992,0,0,0-5.612,1.136c-4.225,1.843-7.877,6.12-10.022,11.734-5.465,14.3.377,32.431,12.755,39.584l106.415,61.48c3.344,1.931,6.8,2.42,9.493,1.343s5.08-3.912,6.556-7.775c3.945-10.325-.272-23.408-9.206-28.57a13.834,13.834,0,0,0-5.06-1.775l-4.32-.583.555-3.7c2.219-14.795-4.612-30.41-16.244-37.13a22.4,22.4,0,0,0-9.789-3.112l-5.356-.346,1.2-4.492c4.781-17.831-2.947-38.427-17.59-46.888-6.808-3.932-13.982-4.727-20.194-2.239s-11.289,8.194-14.294,16.062c-.233.61-.447,1.225-.649,1.843l-2.869,8.815-8.347-3.713A18.349,18.349,0,0,0,454.045,67.611Z" transform="translate(-436.357 -44.852)" fill="#4dd0e1"/>
      </g>
      <g id="Grupo_23176" data-name="Grupo 23176" transform="translate(61.18 78.476)">
        <path id="Trazado_8284" data-name="Trazado 8284" d="M482.853,96.7a3.865,3.865,0,0,0,1.486,4.615,2.634,2.634,0,0,0,3.84-1.539,3.867,3.867,0,0,0-1.488-4.615A2.633,2.633,0,0,0,482.853,96.7Z" transform="translate(-465.467 -84.896)" fill="#fff"/>
        <path id="Trazado_8285" data-name="Trazado 8285" d="M477.307,93.5a3.866,3.866,0,0,0,1.488,4.615,2.633,2.633,0,0,0,3.838-1.537,3.865,3.865,0,0,0-1.486-4.617A2.634,2.634,0,0,0,477.307,93.5Z" transform="translate(-468.49 -86.643)" fill="#fff"/>
        <path id="Trazado_8286" data-name="Trazado 8286" d="M471.762,90.292a3.865,3.865,0,0,0,1.488,4.615,2.632,2.632,0,0,0,3.838-1.537,3.868,3.868,0,0,0-1.488-4.617A2.632,2.632,0,0,0,471.762,90.292Z" transform="translate(-471.513 -88.389)" fill="#fff"/>
      </g>
    </g>
  </g>
  <g id="Rectángulo_6408" data-name="Rectángulo 6408" fill="none" stroke="#707070" stroke-width="1">
    <rect width="483" height="484" stroke="none"/>
    <rect x="0.5" y="0.5" width="482" height="483" fill="none"/>
  </g>
</svg>
