<svg xmlns="http://www.w3.org/2000/svg" width="185.5" height="247.143" viewBox="0 0 185.5 247.143">
  <g id="Layer_39" transform="translate(0)">
    <g id="Grupo_24894" data-name="Grupo 24894" transform="translate(0 0)">
      <g id="Grupo_24852" data-name="Grupo 24852" transform="translate(2.413 11.706)">
        <g id="Grupo_24851" data-name="Grupo 24851">
          <path id="Trazado_8908" data-name="Trazado 8908" d="M191.893,164.538V24.039a11.949,11.949,0,0,0-11.914-11.914H83.084L34.426,60.782V164.538Z" transform="translate(-34.426 -12.125)" fill="#edf4fc"/>
        </g>
      </g>
      <g id="Grupo_24858" data-name="Grupo 24858" transform="translate(2.413 164.118)">
        <g id="Grupo_24857" data-name="Grupo 24857">
          <path id="Trazado_8910" data-name="Trazado 8910" d="M34.426,170v49.751A11.949,11.949,0,0,0,46.34,231.665H179.979a11.949,11.949,0,0,0,11.914-11.914V170Z" transform="translate(-34.426 -170)" fill="#ffca28"/>
        </g>
      </g>
      <g id="Grupo_24860" data-name="Grupo 24860" transform="translate(0 161.705)">
        <g id="Grupo_24859" data-name="Grupo 24859">
          <path id="Trazado_8911" data-name="Trazado 8911" d="M179.892,233.992H46.254a14.344,14.344,0,0,1-14.328-14.328V169.914a2.414,2.414,0,0,1,4.827,0v49.751a9.512,9.512,0,0,0,9.5,9.5h133.64a9.511,9.511,0,0,0,9.5-9.5V169.914a2.413,2.413,0,1,1,4.827,0v49.751A14.345,14.345,0,0,1,179.892,233.992Z" transform="translate(-31.926 -167.5)" fill="#1565c0"/>
        </g>
      </g>
      <g id="Grupo_24862" data-name="Grupo 24862" transform="translate(2.413 11.705)">
        <g id="Grupo_24861" data-name="Grupo 24861">
          <path id="Trazado_8912" data-name="Trazado 8912" d="M34.426,60.782H71.17A11.949,11.949,0,0,0,83.084,48.868V12.125Z" transform="translate(-34.426 -12.125)" fill="#dedede"/>
        </g>
      </g>
      <g id="Grupo_24864" data-name="Grupo 24864" transform="translate(168.999 118.744)">
        <g id="Grupo_24863" data-name="Grupo 24863">
          <path id="Trazado_8913" data-name="Trazado 8913" d="M223.332,131.255a9.885,9.885,0,0,0-7.924,7.763.178.178,0,0,1-.351,0,9.885,9.885,0,0,0-7.924-7.763.174.174,0,0,1,0-.345,9.885,9.885,0,0,0,7.924-7.763.178.178,0,0,1,.351,0,9.885,9.885,0,0,0,7.924,7.763A.174.174,0,0,1,223.332,131.255Z" transform="translate(-206.982 -123)" fill="#f5c84c"/>
        </g>
      </g>
      <g id="Grupo_24866" data-name="Grupo 24866" transform="translate(72.992 235.805)">
        <g id="Grupo_24865" data-name="Grupo 24865">
          <path id="Trazado_8914" data-name="Trazado 8914" d="M119,250.046a6.933,6.933,0,0,0-5.558,5.445.125.125,0,0,1-.246,0,6.933,6.933,0,0,0-5.558-5.445.122.122,0,0,1,0-.241,6.933,6.933,0,0,0,5.558-5.445.125.125,0,0,1,.246,0A6.933,6.933,0,0,0,119,249.8.122.122,0,0,1,119,250.046Z" transform="translate(-107.534 -244.256)" fill="#ffca28"/>
        </g>
      </g>
      <g id="Grupo_24868" data-name="Grupo 24868" transform="translate(37.34)">
        <g id="Grupo_24867" data-name="Grupo 24867">
          <circle id="Elipse_1351" data-name="Elipse 1351" cx="3.26" cy="3.26" r="3.26" fill="#f5c84c"/>
        </g>
      </g>
      <g id="Grupo_24870" data-name="Grupo 24870" transform="translate(169.6 95.575)">
        <g id="Grupo_24869" data-name="Grupo 24869">
          <circle id="Elipse_1352" data-name="Elipse 1352" cx="3.26" cy="3.26" r="3.26" fill="#4dd0e1"/>
        </g>
      </g>
      <g id="Grupo_24872" data-name="Grupo 24872" transform="translate(11.064 6.236)">
        <g id="Grupo_24871" data-name="Grupo 24871">
          <path id="Trazado_8915" data-name="Trazado 8915" d="M54.071,10.609H52.31V8.847a2.387,2.387,0,0,0-4.775,0v1.761H45.774a2.387,2.387,0,1,0,0,4.775h1.761v1.761a2.387,2.387,0,0,0,4.775,0V15.383h1.761a2.387,2.387,0,1,0,0-4.774Z" transform="translate(-43.387 -6.46)" fill="#4dd0e1"/>
        </g>
      </g>
      <g id="Grupo_24874" data-name="Grupo 24874" transform="translate(50.261 233.869)">
        <g id="Grupo_24873" data-name="Grupo 24873" transform="translate(0)">
          <circle id="Elipse_1353" data-name="Elipse 1353" cx="3.26" cy="3.26" r="3.26" fill="#70d6f9"/>
        </g>
      </g>
      <g id="Grupo_24876" data-name="Grupo 24876" transform="translate(0 9.292)">
        <g id="Grupo_24875" data-name="Grupo 24875">
          <path id="Trazado_8916" data-name="Trazado 8916" d="M191.805,166.865H34.34a2.413,2.413,0,0,1-2.414-2.414V60.7a2.418,2.418,0,0,1,.707-1.707L81.291,10.332A2.412,2.412,0,0,1,83,9.625h96.9A14.343,14.343,0,0,1,194.22,23.953v140.5A2.415,2.415,0,0,1,191.805,166.865ZM36.753,162.038H189.392V23.953a9.511,9.511,0,0,0-9.5-9.5H84L36.753,61.7Z" transform="translate(-31.926 -9.625)" fill="#1565c0"/>
        </g>
      </g>
      <g id="Grupo_24878" data-name="Grupo 24878" transform="translate(0.965 10.257)">
        <g id="Grupo_24877" data-name="Grupo 24877">
          <path id="Trazado_8917" data-name="Trazado 8917" d="M71.118,63.144H35.34a2.414,2.414,0,1,1,0-4.827h35.78a9.511,9.511,0,0,0,9.5-9.5V13.039a2.414,2.414,0,0,1,4.827,0V48.817A14.344,14.344,0,0,1,71.118,63.144Z" transform="translate(-32.926 -10.625)" fill="#1565c0"/>
        </g>
      </g>
      <g id="Grupo_24885" data-name="Grupo 24885" transform="translate(43.998 177.108)">
        <g id="Grupo_24880" data-name="Grupo 24880" transform="translate(0)">
          <g id="Grupo_24879" data-name="Grupo 24879">
            <path id="Trazado_8918" data-name="Trazado 8918" d="M89.415,197.356c-3.4-1.094-6.711-2.008-6.711-5.55,0-2.833,1.97-4.229,4.748-4.229a5.227,5.227,0,0,1,5.491,4.19.482.482,0,0,0,.474.392h4.237a.483.483,0,0,0,.479-.544c-.583-4.536-4.221-8.16-10.681-8.16-5.843,0-9.95,3.172-9.95,8.48,0,5.927,4.009,7.532,9.2,9.237,3.609,1.138,6.926,2.227,6.926,5.851,0,2.5-1.551,4.446-4.878,4.446-3.627,0-5.708-2.4-5.962-4.926a.481.481,0,0,0-.48-.434H78.112a.482.482,0,0,0-.481.525c.492,5.591,5.38,8.957,11.245,8.957,6.307,0,9.908-3.927,9.908-8.7,0-6.114-4.063-7.82-9.369-9.538Z" transform="translate(-77.501 -183.455)"/>
          </g>
        </g>
        <g id="Grupo_24882" data-name="Grupo 24882" transform="translate(24.514 0.001)">
          <g id="Grupo_24881" data-name="Grupo 24881">
            <path id="Trazado_8919" data-name="Trazado 8919" d="M126.818,213.251c12.149-7.649,8.2-29.8-8.4-29.8-13.471,0-18.826,14.579-13.48,24.382,3.577,6.56,10.973,9.019,17.744,7.247l5.941,5.983a.485.485,0,0,0,.342.142h4.972a.483.483,0,0,0,.334-.831Zm-8.4-25.155c13.946,0,14.006,22.9,0,22.9a9.787,9.787,0,0,1-9.1-5.358c-3.459-6.7-.667-17.54,9.1-17.54Z" transform="translate(-102.893 -183.456)"/>
          </g>
        </g>
        <g id="Grupo_24884" data-name="Grupo 24884" transform="translate(59.787 0.39)">
          <g id="Grupo_24883" data-name="Grupo 24883">
            <path id="Trazado_8920" data-name="Trazado 8920" d="M154.655,211.268H144.33V184.342a.483.483,0,0,0-.483-.483h-3.934a.483.483,0,0,0-.483.483v30.478a.483.483,0,0,0,.483.483h14.743a.483.483,0,0,0,.483-.483V211.75A.484.484,0,0,0,154.655,211.268Z" transform="translate(-139.431 -183.859)"/>
          </g>
        </g>
      </g>
      <g id="Grupo_24896" data-name="Grupo 24896" transform="translate(50.261 52.353)">
        <path id="Trazado_8287" data-name="Trazado 8287" d="M337.25,198.741l-26.726-15.43c-1.641-.947-1.435-2.6.459-3.7l25.806-14.9a7.113,7.113,0,0,1,6.4-.265l26.726,15.43c1.639.947,1.435,2.6-.46,3.7l-25.806,14.9A7.111,7.111,0,0,1,337.25,198.741Z" transform="translate(-301.648 -97.408)" fill="#c4d9e8" opacity="0.5"/>
        <g id="Grupo_23179" data-name="Grupo 23179" transform="translate(0 36.906)">
          <path id="Trazado_8288" data-name="Trazado 8288" d="M379.421,169.222h0V157.674l-25.893-.014-8.949-5.167c-2.054-1.186-5.642-1.038-8.013.331l-8.351,4.821-25.915-.014v11.875a2.322,2.322,0,0,0,1.376,2.147l33.465,19.322c2.055,1.186,5.642,1.037,8.014-.332l32.314-18.657C378.838,171.2,379.5,170.174,379.421,169.222Z" transform="translate(-302.29 -135.405)" fill="#396caa"/>
          <path id="Trazado_8289" data-name="Trazado 8289" d="M340.861,151.7a9.241,9.241,0,0,0-4.295,1.126l-8.351,4.821-25.915-.014v11.875a2.322,2.322,0,0,0,1.376,2.147l33.465,19.322a7.277,7.277,0,0,0,3.719.795Z" transform="translate(-302.29 -135.405)" fill="#396caa"/>
          <path id="Trazado_8290" data-name="Trazado 8290" d="M305.233,157.142H302.3v11.875a2.322,2.322,0,0,0,1.376,2.147l1.557.9Z" transform="translate(-302.29 -134.915)" fill="#5793ce"/>
          <path id="Trazado_8291" data-name="Trazado 8291" d="M334.737,189.082a9.122,9.122,0,0,0,6.405-.073V175.525h-6.405Z" transform="translate(-299.369 -133.259)" fill="#5793ce"/>
          <path id="Trazado_8292" data-name="Trazado 8292" d="M337.142,180.488l-33.465-19.321c-2.054-1.186-1.8-3.257.576-4.626l32.314-18.657c2.371-1.369,5.959-1.518,8.013-.332l33.466,19.322c2.054,1.186,1.8,3.257-.576,4.626l-32.314,18.657C342.784,181.526,339.2,181.674,337.142,180.488Z" transform="translate(-302.29 -136.751)" fill="#d4ecff"/>
          <path id="Trazado_8293" data-name="Trazado 8293" d="M337.229,176.713l-28.045-16.191c-1.721-.994-1.505-2.729.482-3.877l27.08-15.634a7.46,7.46,0,0,1,6.715-.278l28.046,16.191c1.721.994,1.505,2.729-.483,3.877l-27.079,15.634A7.466,7.466,0,0,1,337.229,176.713Z" transform="translate(-301.774 -136.453)" fill="#5793ce"/>
          <g id="Grupo_23178" data-name="Grupo 23178" transform="translate(62.118 30.877)">
            <path id="Trazado_8294" data-name="Trazado 8294" d="M361.98,170.649a2.987,2.987,0,0,1-1.352,2.341c-.746.431-1.352.082-1.352-.78a2.991,2.991,0,0,1,1.352-2.341C361.375,169.438,361.98,169.786,361.98,170.649Z" transform="translate(-359.277 -164.662)" fill="#d4ecff"/>
            <path id="Trazado_8295" data-name="Trazado 8295" d="M365.97,168.346a2.988,2.988,0,0,1-1.352,2.341c-.747.431-1.352.081-1.352-.78a2.987,2.987,0,0,1,1.352-2.341C365.365,167.134,365.97,167.484,365.97,168.346Z" transform="translate(-358.918 -164.869)" fill="#d4ecff"/>
            <path id="Trazado_8296" data-name="Trazado 8296" d="M369.96,166.042a2.987,2.987,0,0,1-1.352,2.341c-.747.431-1.352.082-1.352-.78a2.988,2.988,0,0,1,1.352-2.341C369.355,164.831,369.96,165.18,369.96,166.042Z" transform="translate(-358.558 -165.077)" fill="#d4ecff"/>
          </g>
        </g>
        <g id="Grupo_23181" data-name="Grupo 23181" transform="translate(0 18.453)">
          <path id="Trazado_8297" data-name="Trazado 8297" d="M379.421,152.293h0V140.746l-25.893-.015-8.949-5.167c-2.054-1.186-5.642-1.037-8.013.332l-8.351,4.82L302.3,140.7v11.876a2.321,2.321,0,0,0,1.376,2.146l33.465,19.322c2.055,1.186,5.642,1.037,8.014-.332l32.314-18.656C378.838,154.268,379.5,153.246,379.421,152.293Z" transform="translate(-302.29 -118.477)" fill="#396caa"/>
          <path id="Trazado_8298" data-name="Trazado 8298" d="M340.861,134.769a9.241,9.241,0,0,0-4.295,1.127l-8.351,4.82L302.3,140.7v11.876a2.321,2.321,0,0,0,1.376,2.146l33.465,19.322a7.254,7.254,0,0,0,3.719.795Z" transform="translate(-302.29 -118.476)" fill="#396caa"/>
          <path id="Trazado_8299" data-name="Trazado 8299" d="M305.233,140.214l-2.932,0v11.876a2.321,2.321,0,0,0,1.376,2.146l1.557.9Z" transform="translate(-302.29 -117.986)" fill="#5793ce"/>
          <path id="Trazado_8300" data-name="Trazado 8300" d="M334.737,172.154a9.134,9.134,0,0,0,6.405-.073V158.6h-6.405Z" transform="translate(-299.369 -116.331)" fill="#5793ce"/>
          <path id="Trazado_8301" data-name="Trazado 8301" d="M337.142,163.56l-33.465-19.322c-2.054-1.186-1.8-3.257.576-4.626l32.314-18.657c2.371-1.369,5.959-1.517,8.013-.331l33.466,19.321c2.054,1.186,1.8,3.257-.576,4.626l-32.314,18.657C342.784,164.6,339.2,164.745,337.142,163.56Z" transform="translate(-302.29 -119.822)" fill="#d4ecff"/>
          <path id="Trazado_8302" data-name="Trazado 8302" d="M337.229,159.784l-28.045-16.191c-1.721-.994-1.505-2.729.482-3.877l27.08-15.634a7.464,7.464,0,0,1,6.715-.278l28.046,16.191c1.721.994,1.505,2.729-.483,3.877l-27.079,15.634A7.463,7.463,0,0,1,337.229,159.784Z" transform="translate(-301.774 -119.524)" fill="#5793ce"/>
          <g id="Grupo_23180" data-name="Grupo 23180" transform="translate(62.118 30.877)">
            <path id="Trazado_8303" data-name="Trazado 8303" d="M361.98,153.72a2.987,2.987,0,0,1-1.352,2.341c-.746.432-1.352.082-1.352-.78a2.989,2.989,0,0,1,1.352-2.34C361.375,152.509,361.98,152.859,361.98,153.72Z" transform="translate(-359.277 -147.734)" fill="#d4ecff"/>
            <path id="Trazado_8304" data-name="Trazado 8304" d="M365.97,151.417a2.988,2.988,0,0,1-1.352,2.341c-.747.431-1.352.082-1.352-.78a2.987,2.987,0,0,1,1.352-2.341C365.365,150.206,365.97,150.555,365.97,151.417Z" transform="translate(-358.918 -147.941)" fill="#d4ecff"/>
            <path id="Trazado_8305" data-name="Trazado 8305" d="M369.96,149.113a2.987,2.987,0,0,1-1.352,2.341c-.747.432-1.352.082-1.352-.78a2.986,2.986,0,0,1,1.352-2.34C369.355,147.9,369.96,148.252,369.96,149.113Z" transform="translate(-358.558 -148.148)" fill="#d4ecff"/>
          </g>
        </g>
        <g id="Grupo_23184" data-name="Grupo 23184" transform="translate(0 0)">
          <path id="Trazado_8306" data-name="Trazado 8306" d="M379.421,135.364h0V123.817l-25.893-.014-8.949-5.168c-2.054-1.186-5.642-1.037-8.013.332l-8.351,4.821-25.915-.015V135.65a2.323,2.323,0,0,0,1.376,2.147l33.465,19.321c2.055,1.186,5.642,1.038,8.014-.332l32.314-18.656C378.838,137.339,379.5,136.317,379.421,135.364Z" transform="translate(-302.29 -101.548)" fill="#396caa"/>
          <path id="Trazado_8307" data-name="Trazado 8307" d="M340.861,117.841a9.228,9.228,0,0,0-4.295,1.126l-8.351,4.821-25.915-.015v11.876a2.323,2.323,0,0,0,1.376,2.147l33.465,19.321a7.255,7.255,0,0,0,3.719.795Z" transform="translate(-302.29 -101.547)" fill="#396caa"/>
          <path id="Trazado_8308" data-name="Trazado 8308" d="M305.233,123.285l-2.932,0v11.876a2.323,2.323,0,0,0,1.376,2.147l1.557.9Z" transform="translate(-302.29 -101.057)" fill="#5793ce"/>
          <path id="Trazado_8309" data-name="Trazado 8309" d="M334.737,155.225a9.134,9.134,0,0,0,6.405-.073V141.668h-6.405Z" transform="translate(-299.369 -99.402)" fill="#5793ce"/>
          <path id="Trazado_8310" data-name="Trazado 8310" d="M337.142,146.631l-33.465-19.322c-2.054-1.186-1.8-3.257.576-4.626l32.314-18.656c2.371-1.37,5.959-1.518,8.013-.332l33.466,19.321c2.054,1.186,1.8,3.258-.576,4.627L345.156,146.3C342.784,147.667,339.2,147.817,337.142,146.631Z" transform="translate(-302.29 -102.893)" fill="#d4ecff"/>
          <path id="Trazado_8311" data-name="Trazado 8311" d="M377.47,123.632l-32.314,18.657c-2.372,1.369-5.959,1.517-8.014.331L303.677,123.3a3.09,3.09,0,0,1-1.025-.91c-.706,1.136-.386,2.368,1.025,3.182l33.465,19.322c2.055,1.186,5.642,1.037,8.014-.333l32.314-18.656c1.842-1.064,2.4-2.551,1.6-3.717A4.488,4.488,0,0,1,377.47,123.632Z" transform="translate(-302.29 -101.156)" fill="#fff"/>
          <g id="Grupo_23182" data-name="Grupo 23182" transform="translate(62.118 30.876)">
            <path id="Trazado_8312" data-name="Trazado 8312" d="M361.98,136.792a2.988,2.988,0,0,1-1.352,2.341c-.746.431-1.352.081-1.352-.78a2.989,2.989,0,0,1,1.352-2.341C361.375,135.58,361.98,135.93,361.98,136.792Z" transform="translate(-359.277 -130.805)" fill="#d4ecff"/>
            <path id="Trazado_8313" data-name="Trazado 8313" d="M365.97,134.488a2.986,2.986,0,0,1-1.352,2.341c-.747.431-1.352.082-1.352-.78a2.988,2.988,0,0,1,1.352-2.341C365.365,133.277,365.97,133.625,365.97,134.488Z" transform="translate(-358.918 -131.012)" fill="#d4ecff"/>
            <path id="Trazado_8314" data-name="Trazado 8314" d="M369.96,132.185a2.988,2.988,0,0,1-1.352,2.341c-.747.431-1.352.081-1.352-.78a2.987,2.987,0,0,1,1.352-2.341C369.355,130.973,369.96,131.323,369.96,132.185Z" transform="translate(-358.558 -131.219)" fill="#d4ecff"/>
          </g>
          <g id="Grupo_23183" data-name="Grupo 23183" transform="translate(20.522 11.291)">
            <path id="Trazado_8315" data-name="Trazado 8315" d="M337.426,133.719l-15.661-9.041c-.961-.555-.84-1.525.269-2.166l15.121-8.73a4.167,4.167,0,0,1,3.75-.155l15.661,9.041c.961.555.84,1.525-.269,2.166l-15.121,8.73A4.167,4.167,0,0,1,337.426,133.719Z" transform="translate(-321.117 -113.252)" fill="#5793ce"/>
            <path id="Trazado_8316" data-name="Trazado 8316" d="M337.64,125.317l-2.166-1.25c-.133-.077-.117-.211.037-.3l2.092-1.208a.576.576,0,0,1,.519-.022l2.167,1.251c.133.076.115.21-.037.3l-2.093,1.209A.576.576,0,0,1,337.64,125.317Z" transform="translate(-319.832 -112.421)" fill="#d4ecff"/>
            <path id="Trazado_8317" data-name="Trazado 8317" d="M321.766,124.678l.045.025c.073-.052.141-.106.225-.155l15.121-8.73a4.168,4.168,0,0,1,3.75-.156l15.617,9.017c.885-.634.932-1.5.044-2.011l-15.661-9.041a4.167,4.167,0,0,0-3.75.155l-15.121,8.73C320.925,123.153,320.8,124.123,321.766,124.678Z" transform="translate(-321.117 -113.252)" fill="#396caa"/>
          </g>
        </g>
      </g>
    </g>
  </g>
</svg>
