<svg xmlns="http://www.w3.org/2000/svg" width="88" height="88" viewBox="0 0 88 88">
  <g id="Grupo_24931" data-name="Grupo 24931" transform="translate(-266 -7066)">
    <g id="Elipse_1355" data-name="Elipse 1355" transform="translate(266 7066)" fill="#fff" stroke="#039be5" stroke-width="1">
      <circle cx="44" cy="44" r="44" stroke="none"/>
      <circle cx="44" cy="44" r="43.5" fill="none"/>
    </g>
    <g id="Grupo_24928" data-name="Grupo 24928" transform="translate(290.567 7085.191)">
      <g id="bases-de-datos" transform="translate(0 0)">
        <path id="Trazado_9135" data-name="Trazado 9135" d="M189.468,189.946a11.465,11.465,0,1,1-7.649,17.883h0a11.463,11.463,0,0,1,7.651-17.883Z" transform="translate(-159.528 -167.183)" fill="#00efd1"/>
        <g id="Grupo_24925" data-name="Grupo 24925" transform="translate(1.181 6.396)">
          <path id="Trazado_9136" data-name="Trazado 9136" d="M48.715,136.38v6.506a11.477,11.477,0,0,0-9.28,8.221,37.8,37.8,0,0,1-5.1.336c-7.943,0-14.38-2.328-14.38-5.2V136.38c0,2.875,6.437,5.2,14.38,5.2s14.38-2.328,14.38-5.2Z" transform="translate(-19.956 -126.519)" fill="#00acea"/>
          <path id="Trazado_9137" data-name="Trazado 9137" d="M48.715,53.66v9.861c0,2.875-6.436,5.2-14.38,5.2s-14.38-2.328-14.38-5.2V53.66c0,2.874,6.438,5.2,14.38,5.2S48.715,56.534,48.715,53.66Z" transform="translate(-19.956 -53.66)" fill="#00acea"/>
        </g>
        <ellipse id="Elipse_1354" data-name="Elipse 1354" cx="14.38" cy="5.204" rx="14.38" ry="5.204" transform="translate(1.181 1.192)" fill="#00efd1"/>
        <path id="Trazado_9138" data-name="Trazado 9138" d="M39.435,223.967a11.489,11.489,0,0,0,1.63,9.661,36.021,36.021,0,0,1-6.729.6c-7.943,0-14.38-2.329-14.38-5.2V219.1c0,2.875,6.437,5.2,14.38,5.2a37.805,37.805,0,0,0,5.1-.336Z" transform="translate(-18.775 -192.982)" fill="#00acea"/>
        <g id="Grupo_24926" data-name="Grupo 24926">
          <path id="Trazado_9139" data-name="Trazado 9139" d="M112.238,129.474h4.768a1.192,1.192,0,1,0,0-2.384h-4.768a1.192,1.192,0,0,0,0,2.384Z" transform="translate(-99.006 -111.94)" fill="#083863"/>
          <path id="Trazado_9140" data-name="Trazado 9140" d="M112.238,211.474h4.768a1.192,1.192,0,1,0,0-2.384h-4.768a1.192,1.192,0,1,0,0,2.384Z" transform="translate(-99.006 -184.166)" fill="#083863"/>
          <path id="Trazado_9141" data-name="Trazado 9141" d="M41.733,21.436c-.189,0-.337.005-.575.014V6.4c0-1.365-.857-3.306-4.988-4.8A32.17,32.17,0,0,0,25.6,0,32.14,32.14,0,0,0,15.036,1.6c-4.131,1.495-4.99,3.435-4.99,4.8v29.65c0,1.365.862,3.306,4.992,4.8a32.188,32.188,0,0,0,10.571,1.6,37.684,37.684,0,0,0,6.214-.494,12.654,12.654,0,1,0,9.91-20.512ZM25.607,2.384C34.265,2.384,38.794,5,38.794,6.4s-4.53,4.012-13.188,4.012S12.419,7.8,12.419,6.4,16.949,2.384,25.607,2.384ZM12.43,9.95A14.138,14.138,0,0,0,15.039,11.2a32.185,32.185,0,0,0,10.571,1.6,32.132,32.132,0,0,0,10.563-1.6,14.061,14.061,0,0,0,2.6-1.247v6.307c0,1.4-4.514,4.011-13.172,4.011S12.43,17.657,12.43,16.257Zm0,15.961v-6.1a14.123,14.123,0,0,0,2.608,1.247A32.2,32.2,0,0,0,25.61,22.652a32.148,32.148,0,0,0,10.563-1.595,14.046,14.046,0,0,0,2.6-1.246v1.974a12.647,12.647,0,0,0-8.982,8.11,37.031,37.031,0,0,1-4.19.234,29.764,29.764,0,0,1-9.755-1.452c-2.528-.915-3.417-1.95-3.417-2.559Zm3.42,12.694c-2.528-.915-3.42-1.951-3.42-2.56V29.671a14.134,14.134,0,0,0,2.608,1.247A32.2,32.2,0,0,0,25.61,32.513c1.223,0,2.426-.055,3.6-.161A12.768,12.768,0,0,0,29.231,36a1.192,1.192,0,0,0-1.186-1.066H23.278a1.192,1.192,0,1,0,0,2.384h4.768a1.192,1.192,0,0,0,1.192-1.192c0-.041,0-.081-.006-.121a12.531,12.531,0,0,0,1.187,3.739,36.743,36.743,0,0,1-4.81.311,29.786,29.786,0,0,1-9.76-1.453Zm25.894,5.76a10.283,10.283,0,0,1-8.429-4.4l-.027-.037a10.272,10.272,0,0,1,6.88-15.986h0a10.273,10.273,0,1,1,1.573,20.424Z" transform="translate(-10.046 0)" fill="#083863"/>
        </g>
      </g>
      <g id="Grupo_24927" data-name="Grupo 24927" transform="translate(26.892 29.3)">
        <path id="Trazado_9142" data-name="Trazado 9142" d="M3176.663,7098.082v9.091" transform="translate(-3172.118 -7098.082)" fill="none" stroke="#111e61" stroke-linecap="round" stroke-width="1.5"/>
        <path id="Trazado_9143" data-name="Trazado 9143" d="M0,0V9.091" transform="translate(9.091 4.545) rotate(90)" fill="none" stroke="#111e61" stroke-linecap="round" stroke-width="1.5"/>
      </g>
    </g>
  </g>
</svg>
