<svg xmlns="http://www.w3.org/2000/svg" width="88" height="88" viewBox="0 0 88 88">
  <g id="Grupo_24932" data-name="Grupo 24932" transform="translate(-266 -7535)">
    <g id="Elipse_1357" data-name="Elipse 1357" transform="translate(266 7535)" fill="#fff" stroke="#039be5" stroke-width="1">
      <circle cx="44" cy="44" r="44" stroke="none"/>
      <circle cx="44" cy="44" r="43.5" fill="none"/>
    </g>
    <g id="eliminar" transform="translate(292.194 7557.79)">
      <path id="Trazado_9129" data-name="Trazado 9129" d="M40.15,62.3a2.81,2.81,0,1,1,0,5.621H13.01a2.81,2.81,0,1,1,0-5.621Zm0,0" transform="translate(-9.176 -56.048)" fill="#00acea"/>
      <path id="Trazado_9130" data-name="Trazado 9130" d="M65.82,118.341v25.574a4.091,4.091,0,0,1-4.015,4.316H42.816a4.091,4.091,0,0,1-4.015-4.316V118.3H65.82Zm0,0" transform="translate(-34.906 -106.427)" fill="#00efd1"/>
      <g id="Grupo_24924" data-name="Grupo 24924" transform="translate(0 0)">
        <path id="Trazado_9131" data-name="Trazado 9131" d="M223.406,154.7a1,1,0,0,0-1,1v18.97a1,1,0,0,0,2.007,0v-18.97A1,1,0,0,0,223.406,154.7Zm0,0" transform="translate(-200.08 -139.176)" fill="#083863"/>
        <path id="Trazado_9132" data-name="Trazado 9132" d="M105.406,154.7a1,1,0,0,0-1,1v18.97a1,1,0,0,0,2.007,0v-18.97A1,1,0,0,0,105.406,154.7Zm0,0" transform="translate(-93.924 -139.176)" fill="#083863"/>
        <path id="Trazado_9133" data-name="Trazado 9133" d="M2.851,12.758V37.487a5.536,5.536,0,0,0,1.472,3.819,4.941,4.941,0,0,0,3.586,1.551H26.9a4.941,4.941,0,0,0,3.586-1.551,5.537,5.537,0,0,0,1.473-3.819V12.759a4.033,4.033,0,0,0,1.734-1,3.843,3.843,0,0,0-2.718-6.54H25.835V3.963A3.943,3.943,0,0,0,21.861,0H12.948A3.943,3.943,0,0,0,8.973,3.963V5.218H3.834a3.834,3.834,0,0,0-.983,7.54ZM26.9,40.849H7.909a3.178,3.178,0,0,1-3.051-3.362V12.846H29.95V37.487A3.179,3.179,0,0,1,26.9,40.849ZM10.981,3.963a1.933,1.933,0,0,1,1.967-1.957h8.913a1.934,1.934,0,0,1,1.967,1.957V5.218H10.981ZM2.556,7.77a1.813,1.813,0,0,1,1.278-.545h27.14a1.822,1.822,0,0,1,1.807,1.822,1.793,1.793,0,0,1-1.807,1.791H3.834a1.8,1.8,0,0,1-1.807-1.8A1.78,1.78,0,0,1,2.556,7.77Zm0,0" transform="translate(0 0.001)" fill="#083863"/>
        <path id="Trazado_9134" data-name="Trazado 9134" d="M164.406,154.7a1,1,0,0,0-1,1v18.97a1,1,0,0,0,2.007,0v-18.97A1,1,0,0,0,164.406,154.7Zm0,0" transform="translate(-147.002 -139.176)" fill="#083863"/>
      </g>
    </g>
  </g>
</svg>
