<svg xmlns="http://www.w3.org/2000/svg" width="88" height="88" viewBox="0 0 88 88">
  <g id="Grupo_25024" data-name="Grupo 25024" transform="translate(-236 -8731)">
    <g id="Elipse_1355" data-name="Elipse 1355" transform="translate(236 8731)" fill="#fff" stroke="#039be5" stroke-width="1">
      <circle cx="44" cy="44" r="44" stroke="none"/>
      <circle cx="44" cy="44" r="43.5" fill="none"/>
    </g>
    <g id="Grupo_24946" data-name="Grupo 24946" transform="translate(255.508 8713.34)">
      <g id="Grupo_24944" data-name="Grupo 24944" transform="translate(0.802 39.784)">
        <path id="Trazado_9163" data-name="Trazado 9163" d="M304.262,48.545a2.056,2.056,0,0,1-2.057,2.057h-18.46l5.583-4.114h12.877A2.057,2.057,0,0,1,304.262,48.545Z" transform="translate(-254.221 -46.488)" fill="#ffcebf"/>
        <path id="Trazado_9164" data-name="Trazado 9164" d="M433.94,48.545a2.056,2.056,0,0,1-2.057,2.057h-2.942a2.057,2.057,0,0,0,0-4.114h2.942A2.057,2.057,0,0,1,433.94,48.545Z" transform="translate(-383.898 -46.488)" fill="#ffb09e"/>
        <path id="Trazado_9165" data-name="Trazado 9165" d="M305.91,78.561a2.056,2.056,0,0,1-2.057,2.057H283.746V76.5h20.106a2.057,2.057,0,0,1,2.057,2.057Z" transform="translate(-254.222 -73.296)" fill="#ffcebf"/>
        <path id="Trazado_9166" data-name="Trazado 9166" d="M449.343,78.561a2.056,2.056,0,0,1-2.057,2.057h-2.942a2.057,2.057,0,1,0,0-4.114h2.942A2.057,2.057,0,0,1,449.343,78.561Z" transform="translate(-397.655 -73.296)" fill="#ffb09e"/>
        <path id="Trazado_9167" data-name="Trazado 9167" d="M307.387,108.586a2.056,2.056,0,0,1-2.057,2.057H283.746V106.53H305.33a2.057,2.057,0,0,1,2.057,2.056Z" transform="translate(-254.222 -100.113)" fill="#ffcebf"/>
        <path id="Trazado_9168" data-name="Trazado 9168" d="M463.174,108.586a2.056,2.056,0,0,1-2.057,2.057h-2.941a2.057,2.057,0,0,0,0-4.113h2.941A2.057,2.057,0,0,1,463.174,108.586Z" transform="translate(-410.009 -100.113)" fill="#ffb09e"/>
        <path id="Trazado_9169" data-name="Trazado 9169" d="M7.507,63.573H16.62V82.382H7.507Z" transform="translate(-7.507 -61.747)" fill="#00efd1"/>
        <path id="Trazado_9170" data-name="Trazado 9170" d="M65.246,63.573h2.942V82.382H65.246Z" transform="translate(-59.075 -61.747)" fill="#a6f8ee"/>
        <path id="Trazado_9171" data-name="Trazado 9171" d="M127.632,59.292v5.017a2.556,2.556,0,0,1-.893,1.942l-2.771,2.376a1.922,1.922,0,0,1-2.571-.059,1.9,1.9,0,0,1-.573-1.057,1.975,1.975,0,0,1-.031-.344,1.925,1.925,0,0,1,.62-1.414l1.56-1.439a2.556,2.556,0,0,0,.521-1.546V61.5a1.269,1.269,0,0,0-1.268-1.269h-9.687a4.56,4.56,0,0,0-4.559,4.56A1.481,1.481,0,0,0,109.3,66.26l1.8.195a2.182,2.182,0,0,1-.235,4.351h-4.923a4.507,4.507,0,0,1-4.025-2.482A4.955,4.955,0,0,0,97.495,65.6H92.76V48.314l26-1.826v9.625h5.7a3.178,3.178,0,0,1,3.178,3.178Z" transform="translate(-83.648 -46.488)" fill="#ffcebf"/>
        <path id="Trazado_9172" data-name="Trazado 9172" d="M218.18,183.421A2.186,2.186,0,0,1,216,185.608h-2.639a2.182,2.182,0,0,0,.235-4.351l-1.8-.195a1.481,1.481,0,0,1-1.322-1.473,4.56,4.56,0,0,1,4.559-4.56h2.639a4.56,4.56,0,0,0-4.559,4.56,1.482,1.482,0,0,0,1.322,1.473l1.8.195A2.182,2.182,0,0,1,218.18,183.421Z" transform="translate(-188.779 -161.291)" fill="#ffb09e"/>
        <path id="Trazado_9173" data-name="Trazado 9173" d="M366.936,139.724v5.017a2.557,2.557,0,0,1-.893,1.942l-2.771,2.376A1.922,1.922,0,0,1,360.7,149l2.7-2.317a2.556,2.556,0,0,0,.893-1.942v-5.017a3.178,3.178,0,0,0-3.178-3.178h2.639a3.178,3.178,0,0,1,3.178,3.178Z" transform="translate(-322.953 -126.921)" fill="#ffb09e"/>
        <path id="Trazado_9174" data-name="Trazado 9174" d="M257.451,335.841v9.825H240.2v-9.825a4.754,4.754,0,0,1,4.962-4.516h7.323A4.755,4.755,0,0,1,257.451,335.841Z" transform="translate(-215.334 -300.882)" fill="#00acea"/>
        <path id="Trazado_9175" data-name="Trazado 9175" d="M333.1,335.841v9.825h-3.231v-9.825a4.755,4.755,0,0,0-4.961-4.516h3.231A4.755,4.755,0,0,1,333.1,335.841Z" transform="translate(-290.987 -300.882)" fill="#96d4ea"/>
        <path id="Trazado_9176" data-name="Trazado 9176" d="M290.638,240.141v1.713H282.6v-1.713a1.577,1.577,0,0,1,1.577-1.577h4.89a1.577,1.577,0,0,1,1.577,1.577Z" transform="translate(-253.194 -218.035)" fill="#87523e"/>
        <path id="Trazado_9177" data-name="Trazado 9177" d="M320.825,240.141v1.713h-2.854v-1.713a1.577,1.577,0,0,0-1.577-1.577h2.854A1.577,1.577,0,0,1,320.825,240.141Z" transform="translate(-283.38 -218.035)" fill="#7c4b37"/>
        <path id="Trazado_9178" data-name="Trazado 9178" d="M290.638,269.341v2.6a4.022,4.022,0,1,1-8.043,0v-2.6Z" transform="translate(-253.194 -245.523)" fill="#ffcebf"/>
        <path id="Trazado_9179" data-name="Trazado 9179" d="M312.315,269.341v2.6a4.024,4.024,0,0,1-5.449,3.761,4.024,4.024,0,0,0,2.6-3.761v-2.6Z" transform="translate(-274.871 -245.523)" fill="#ffb09e"/>
        <path id="Trazado_9180" data-name="Trazado 9180" d="M70.169,401.648v2.792h-15.7v-2.792a4.516,4.516,0,0,1,4.516-4.516h6.669A4.517,4.517,0,0,1,70.169,401.648Z" transform="translate(-49.448 -359.655)" fill="#00efd1"/>
        <path id="Trazado_9181" data-name="Trazado 9181" d="M140.394,401.648v2.792h-2.781v-2.792a4.517,4.517,0,0,0-4.518-4.516h2.781A4.517,4.517,0,0,1,140.394,401.648Z" transform="translate(-119.672 -359.655)" fill="#84f8ea"/>
        <path id="Trazado_9182" data-name="Trazado 9182" d="M99.784,312.426a5.652,5.652,0,0,1-2.435,1.673,15.721,15.721,0,0,1-5.037.9v-2.577a1.465,1.465,0,0,1,1.465-1.465h4.541A1.465,1.465,0,0,1,99.784,312.426Z" transform="translate(-83.248 -282.694)" fill="#444"/>
        <path id="Trazado_9183" data-name="Trazado 9183" d="M129.627,312.427a5.652,5.652,0,0,1-2.435,1.673v-1.673a1.465,1.465,0,0,0-1.466-1.465h2.435A1.465,1.465,0,0,1,129.627,312.427Z" transform="translate(-113.092 -282.695)" fill="#444"/>
        <path id="Trazado_9184" data-name="Trazado 9184" d="M99.784,324.667v4.009a3.736,3.736,0,1,1-7.472,0v-1.432a15.721,15.721,0,0,0,5.037-.9,5.651,5.651,0,0,0,2.435-1.673Z" transform="translate(-83.248 -294.935)" fill="#ffcebf"/>
        <path id="Trazado_9185" data-name="Trazado 9185" d="M120.825,324.667v4.009a3.737,3.737,0,0,1-4.954,3.533,3.737,3.737,0,0,0,2.519-3.533V326.34a5.651,5.651,0,0,0,2.435-1.673Z" transform="translate(-104.289 -294.935)" fill="#ffb09e"/>
      </g>
      <g id="Grupo_24945" data-name="Grupo 24945" transform="translate(0 38.982)">
        <path id="Trazado_9186" data-name="Trazado 9186" d="M53.214,45.714a2.887,2.887,0,0,0-1.63-3.281,2.886,2.886,0,0,0-2.8-3.451H35.853L9.892,40.808H.8a.8.8,0,0,0-.8.8v2.542a.8.8,0,0,0,1.6,0V42.413H9.112v17.2H1.6V47.949a.8.8,0,0,0-1.6,0v12.47a.8.8,0,0,0,.8.8H9.915a.8.8,0,0,0,.8-.8v-.725h3.931a4.188,4.188,0,0,1,3.708,2.286A5.28,5.28,0,0,0,23.1,64.9h4.923a2.968,2.968,0,0,0,1.38-.342v1.644a4.8,4.8,0,0,0,1.235,3.219,5.619,5.619,0,0,0-5.766,5.536v9.608a.8.8,0,0,0,.8.8H42.919a.8.8,0,0,0,.8-.8V74.961a5.571,5.571,0,0,0-1.906-4.177,5.871,5.871,0,0,0-4-1.36,4.8,4.8,0,0,0,1.235-3.219V63.059a2.7,2.7,0,0,0,2.6-.527l2.771-2.376a3.355,3.355,0,0,0,1.173-2.551.8.8,0,0,0-1.6,0,1.752,1.752,0,0,1-.613,1.332L40.6,61.313a1.122,1.122,0,0,1-1.489-1.676l1.56-1.439a3.079,3.079,0,0,0,.779-2.135V54.791a2.072,2.072,0,0,0-2.07-2.07H29.693a5.368,5.368,0,0,0-5.362,5.362,2.279,2.279,0,0,0,2.038,2.271l1.8.195a1.382,1.382,0,0,1-.148,2.751H23.1a3.684,3.684,0,0,1-3.308-2.039,5.807,5.807,0,0,0-5.142-3.17H10.717V42.359l25.22-1.772h12.85a1.266,1.266,0,0,1,1.2,1.6H35.909a.8.8,0,1,0,0,1.6H50.433a1.266,1.266,0,0,1,1.2,1.6l-16.371,0h0a.8.8,0,1,0,0,1.6l16.644,0a1.255,1.255,0,0,1,0,2.509H44.132a3.961,3.961,0,0,0-2.524-.905H34.3a.8.8,0,1,0,0,1.6h7.313a2.4,2.4,0,0,1,2.29,1.745,7.217,7.217,0,0,1,.085,1.876.8.8,0,0,0,1.6,0,7.153,7.153,0,0,0-.283-2.716h6.605a2.876,2.876,0,0,0,1.3-5.4ZM37.444,61.891v.91H31.006v-.91a.776.776,0,0,1,.775-.775H36.67a.776.776,0,0,1,.775.775ZM26.475,74.961a3.936,3.936,0,0,1,3.932-3.932h3V83.767H26.475V74.961Zm15.641,0v8.806h-7.1V71.029h3.171A3.936,3.936,0,0,1,42.116,74.961Zm-11.11-8.756V64.4h6.439v1.8a3.219,3.219,0,0,1-6.439,0Zm-2.663-7.253-1.8-.2a.678.678,0,0,1-.606-.675,3.761,3.761,0,0,1,3.757-3.757h9.687a.466.466,0,0,1,.465.465v1.273a1.761,1.761,0,0,1-.319,1.008c-.787.726-1.884,1.471-2.238,2.522a2.371,2.371,0,0,0-.619-.082H31.781a2.366,2.366,0,0,0-1.461.5,2.983,2.983,0,0,0-1.977-1.061Z" transform="translate(0 -38.982)"/>
        <path id="Trazado_9187" data-name="Trazado 9187" d="M59,312.667a4.516,4.516,0,0,0,1.081-2.935v-4.008s0-.007,0-.011,0-.03,0-.045a2.269,2.269,0,0,0-2.265-2.211H53.271A2.27,2.27,0,0,0,51,305.723v4.008a4.518,4.518,0,0,0,1.084,2.938,5.325,5.325,0,0,0-5.129,5.315v2.792a.8.8,0,0,0,.8.8h1.774a.8.8,0,1,0,0-1.6h-.972v-1.989a3.719,3.719,0,0,1,3.715-3.715h2.455v5.7h-1.4a.8.8,0,0,0,0,1.6H63.464a.8.8,0,0,0,.8-.8v-2.792A5.325,5.325,0,0,0,59,312.667Zm-6.391-3.594a13.509,13.509,0,0,0,5.867-1.6v2.257a2.937,2.937,0,0,1-2.932,2.934h0a2.937,2.937,0,0,1-2.932-2.934v-.66Zm.663-4.011h4.542a.663.663,0,0,1,.615.417c-1.34,1.391-4.157,1.872-5.819,1.989v-1.743a.663.663,0,0,1,.663-.663Zm9.39,14.913H56.338v-5.7h2.609a3.719,3.719,0,0,1,3.715,3.715v1.989Z" transform="translate(-41.94 -275.189)"/>
        <circle id="Elipse_1359" data-name="Elipse 1359" cx="0.904" cy="0.904" r="0.904" transform="translate(5.154 15.921)"/>
      </g>
    </g>
  </g>
</svg>
