<svg xmlns="http://www.w3.org/2000/svg" width="88" height="88" viewBox="0 0 88 88">
  <g id="Grupo_25022" data-name="Grupo 25022" transform="translate(-236 -11033)">
    <g id="Grupo_24942" data-name="Grupo 24942" transform="translate(-30 3967)">
      <g id="Elipse_1355" data-name="Elipse 1355" transform="translate(266 7066)" fill="#fff" stroke="#039be5" stroke-width="1">
        <circle cx="44" cy="44" r="44" stroke="none"/>
        <circle cx="44" cy="44" r="43.5" fill="none"/>
      </g>
    </g>
    <g id="actualizar" transform="translate(259 11025.973)">
      <g id="Grupo_24951" data-name="Grupo 24951" transform="translate(0.666 35.061)">
        <g id="Grupo_24947" data-name="Grupo 24947" transform="translate(0 7.515)">
          <path id="Trazado_9206" data-name="Trazado 9206" d="M41.489,146.47H8.392a.888.888,0,0,1-.888-.888V127.875l.444-1.273H41.933l.444,1.273v17.707A.888.888,0,0,1,41.489,146.47Z" transform="translate(-7.504 -126.602)" fill="#d3effb"/>
        </g>
        <g id="Grupo_24948" data-name="Grupo 24948" transform="translate(0 7.515)">
          <path id="Trazado_9207" data-name="Trazado 9207" d="M41.933,126.6H39.038v15.642a.888.888,0,0,1-.888.888H7.5v2.45a.888.888,0,0,0,.888.888h33.1a.888.888,0,0,0,.888-.888V127.876Z" transform="translate(-7.504 -126.603)" fill="#b1e4f9"/>
        </g>
        <g id="Grupo_24949" data-name="Grupo 24949" transform="translate(0 0)">
          <path id="Trazado_9208" data-name="Trazado 9208" d="M42.377,50.688H7.5v-7.9a.887.887,0,0,1,.887-.887h33.1a.887.887,0,0,1,.887.887Z" transform="translate(-7.504 -41.899)" fill="#00acea"/>
        </g>
        <g id="Grupo_24950" data-name="Grupo 24950" transform="translate(31.534)">
          <path id="Trazado_9209" data-name="Trazado 9209" d="M365.371,41.9h-2.45v8.789h3.338v-7.9A.888.888,0,0,0,365.371,41.9Z" transform="translate(-362.921 -41.899)" fill="#a6def2"/>
        </g>
      </g>
      <g id="Grupo_24952" data-name="Grupo 24952" transform="translate(32.755 48.981)">
        <path id="Trazado_9210" data-name="Trazado 9210" d="M373.654,199.747l.2-.457a.355.355,0,0,0-.432-.479l-3.993,1.245a.355.355,0,0,0-.212.5l1.857,3.748a.355.355,0,0,0,.645-.018l.218-.509a.178.178,0,0,1,.226-.1,7.812,7.812,0,0,1,0,14.576.562.562,0,0,0-.332.691l.864,2.771a.565.565,0,0,0,.736.36,11.835,11.835,0,0,0,.326-22.093A.177.177,0,0,1,373.654,199.747Z" transform="translate(-369.175 -198.794)" fill="#00efd1"/>
      </g>
      <g id="Grupo_24953" data-name="Grupo 24953" transform="translate(21.078 50.001)">
        <path id="Trazado_9211" data-name="Trazado 9211" d="M245.314,210.325a11.834,11.834,0,0,0-.557,22,.177.177,0,0,1,.094.233l-.125.291a.355.355,0,0,0,.432.479l3.993-1.245a.355.355,0,0,0,.212-.5l-1.857-3.748a.355.355,0,0,0-.645.018l-.29.677a.177.177,0,0,1-.232.095,7.812,7.812,0,0,1,.24-14.478.562.562,0,0,0,.332-.691l-.864-2.771A.565.565,0,0,0,245.314,210.325Z" transform="translate(-237.56 -210.289)" fill="#00efd1"/>
      </g>
      <g id="Grupo_24954" data-name="Grupo 24954" transform="translate(35.282 48.981)">
        <path id="Trazado_9212" data-name="Trazado 9212" d="M399.7,199.981a.177.177,0,0,1-.1-.234l.2-.457a.355.355,0,0,0-.432-.479l-1.716.535a.355.355,0,0,1,.432.479l-.2.457a.177.177,0,0,0,.1.234,11.835,11.835,0,0,1,.949,21.538.567.567,0,0,0,.441.021,11.835,11.835,0,0,0,.326-22.093Z" transform="translate(-397.651 -198.794)" fill="#00efd1"/>
      </g>
      <g id="Grupo_24956" data-name="Grupo 24956" transform="translate(23.625 55.977)">
        <g id="Grupo_24955" data-name="Grupo 24955">
          <path id="Trazado_9213" data-name="Trazado 9213" d="M273.668,289.211a.355.355,0,0,0-.645.018l-.29.677a.177.177,0,0,1-.232.095,7.807,7.807,0,0,1-2.8-12.359,7.811,7.811,0,0,0,1.319,13.66.177.177,0,0,0,.232-.095l.29-.677a.355.355,0,0,1,.645-.018l1.681,3.393,1.441-.449a.355.355,0,0,0,.212-.5Z" transform="translate(-266.267 -277.641)" fill="#00efd1"/>
        </g>
      </g>
      <g id="Grupo_24957" data-name="Grupo 24957" transform="translate(3.623 46.8)">
        <path id="Trazado_9214" data-name="Trazado 9214" d="M48.444,183.093H42.108a1.273,1.273,0,0,1-1.273-1.273v-6.336a1.273,1.273,0,0,1,1.273-1.273h6.278a1.331,1.331,0,0,1,1.331,1.331v6.278a1.273,1.273,0,0,1-1.273,1.273Z" transform="translate(-40.835 -174.212)" fill="#00acea"/>
      </g>
      <g id="Grupo_24958" data-name="Grupo 24958" transform="translate(0 34.395)">
        <path id="Trazado_9215" data-name="Trazado 9215" d="M245.839,215.012v-3.162a.666.666,0,1,0-1.332,0v3.162a.222.222,0,0,1-.222.222h-8.852a7.169,7.169,0,0,1,4.54-7.3,1.23,1.23,0,0,0,.728-1.511l-.864-2.771a1.231,1.231,0,0,0-1.6-.787,12.5,12.5,0,0,0-1.023,23.039,1.021,1.021,0,0,0,1.295,1.221l3.993-1.245a1.021,1.021,0,0,0,.611-1.428l-1.857-3.748a1.021,1.021,0,0,0-1.853.052l-.092.214a7.138,7.138,0,0,1-3.584-4.24c-.017-.056-.032-.111-.048-.167h8.606A1.555,1.555,0,0,0,245.839,215.012Zm-6.606,7.393a.844.844,0,0,0,1.1-.445l.025-.058,1.4,2.818-3.075.958a.845.845,0,0,0-.513-.8,11.168,11.168,0,0,1,.428-20.723l.8,2.576a8.478,8.478,0,0,0-.169,15.675Z" transform="translate(-209.635 -187.85)"/>
        <circle id="Elipse_1360" data-name="Elipse 1360" cx="1.298" cy="1.298" r="1.298" transform="translate(3.623 3.737)"/>
        <circle id="Elipse_1361" data-name="Elipse 1361" cx="1.298" cy="1.298" r="1.298" transform="translate(7.571 3.737)"/>
        <circle id="Elipse_1362" data-name="Elipse 1362" cx="1.298" cy="1.298" r="1.298" transform="translate(11.52 3.737)"/>
        <path id="Trazado_9216" data-name="Trazado 9216" d="M44.859,57.428a12.46,12.46,0,0,0-6.819-7.682l0-.007A1.021,1.021,0,0,0,36.8,48.362l-.6.186v-12.6a1.555,1.555,0,0,0-1.554-1.554H8.329a.666.666,0,1,0,0,1.332H34.651a.222.222,0,0,1,.222.222v7.235H1.332V35.949a.222.222,0,0,1,.222-.222H4.945a.666.666,0,1,0,0-1.332H1.554A1.555,1.555,0,0,0,0,35.949V61.556A1.555,1.555,0,0,0,1.554,63.11H17.568a.666.666,0,0,0,0-1.332H1.554a.222.222,0,0,1-.222-.222V44.515H34.873v4.448l-2.066.644a1.021,1.021,0,0,0-.611,1.428l1.857,3.748a1.021,1.021,0,0,0,1.853-.052l.026-.061A7.146,7.146,0,0,1,35.5,67.818a1.23,1.23,0,0,0-.728,1.511l.864,2.771a1.239,1.239,0,0,0,1.6.787,12.521,12.521,0,0,0,7.623-15.459ZM36.874,71.6l-.8-2.576a8.478,8.478,0,0,0-.092-15.781.839.839,0,0,0-1.028.354l-1.4-2.827,3.022-.942a.835.835,0,0,0,.046.5.85.85,0,0,0,.465.461A11.169,11.169,0,0,1,36.874,71.6Z" transform="translate(0 -34.395)"/>
        <path id="Trazado_9217" data-name="Trazado 9217" d="M35.27,166.708a1.941,1.941,0,0,0-1.939,1.939v6.335a1.941,1.941,0,0,0,1.939,1.939H41.6a1.941,1.941,0,0,0,1.939-1.939v-6.276a2,2,0,0,0-2-2Zm6.942,2v6.276a.608.608,0,0,1-.608.608H35.27a.608.608,0,0,1-.608-.608v-6.335a.608.608,0,0,1,.608-.608h6.276A.667.667,0,0,1,42.212,168.705Z" transform="translate(-30.374 -154.969)"/>
        <path id="Trazado_9218" data-name="Trazado 9218" d="M169.59,173.106h4.9a.666.666,0,1,0,0-1.332h-4.9a.666.666,0,1,0,0,1.332Z" transform="translate(-153.936 -159.585)"/>
        <path id="Trazado_9219" data-name="Trazado 9219" d="M169.59,207.812h4.9a.666.666,0,0,0,0-1.332h-4.9a.666.666,0,0,0,0,1.332Z" transform="translate(-153.936 -191.212)"/>
      </g>
    </g>
  </g>
</svg>
