<svg xmlns="http://www.w3.org/2000/svg" width="88" height="88" viewBox="0 0 88 88">
  <g id="Grupo_24943" data-name="Grupo 24943" transform="translate(-266 -7066)">
    <g id="Elipse_1355" data-name="Elipse 1355" transform="translate(266 7066)" fill="#fff" stroke="#039be5" stroke-width="1">
      <circle cx="44" cy="44" r="44" stroke="none"/>
      <circle cx="44" cy="44" r="43.5" fill="none"/>
    </g>
    <g id="expediente" transform="translate(293.367 7089.651)">
      <g id="Grupo_24935" data-name="Grupo 24935" transform="translate(0.641 0.645)">
        <path id="Trazado_9144" data-name="Trazado 9144" d="M69,19.885v22.7a3.439,3.439,0,0,1-3.439,3.439H41.916a3.439,3.439,0,0,1-3.439-3.439V10.939A3.439,3.439,0,0,1,41.916,7.5h14.72a2.58,2.58,0,0,1,1.826.757l9.785,9.806A2.58,2.58,0,0,1,69,19.885Z" transform="translate(-38.477 -7.5)" fill="#00acea"/>
        <path id="Trazado_9145" data-name="Trazado 9145" d="M245.991,19.886V21.4h-8.97a4.913,4.913,0,0,1-4.9-4.91V7.5h1.51a2.58,2.58,0,0,1,1.825.757l9.786,9.806A2.579,2.579,0,0,1,245.991,19.886Z" transform="translate(-215.468 -7.5)" fill="#00acea"/>
        <path id="Trazado_9146" data-name="Trazado 9146" d="M44.5,46.02H41.916a3.439,3.439,0,0,1-3.439-3.439V10.939A3.439,3.439,0,0,1,41.916,7.5H44.5a3.439,3.439,0,0,0-3.439,3.439V42.58A3.439,3.439,0,0,0,44.5,46.02Z" transform="translate(-38.477 -7.5)" fill="#00acea"/>
        <g id="Grupo_24933" data-name="Grupo 24933" transform="translate(4.119 0.234)">
          <path id="Trazado_9147" data-name="Trazado 9147" d="M99.666,143.79H89.03a.645.645,0,1,1,0-1.29H99.666a.645.645,0,1,1,0,1.29Z" transform="translate(-88.213 -131.126)" fill="#a29aa5"/>
          <path id="Trazado_9148" data-name="Trazado 9148" d="M99.666,323.79H89.03a.645.645,0,1,1,0-1.29H99.666a.645.645,0,1,1,0,1.29Z" transform="translate(-88.213 -295.65)" fill="#a29aa5"/>
          <path id="Trazado_9149" data-name="Trazado 9149" d="M106.29,203.79H87.03a.645.645,0,0,1,0-1.29h19.26a.645.645,0,1,1,0,1.29Z" transform="translate(-86.385 -185.967)" fill="#a29aa5"/>
          <path id="Trazado_9150" data-name="Trazado 9150" d="M106.29,263.79H87.03a.645.645,0,0,1,0-1.29h19.26a.645.645,0,1,1,0,1.29Z" transform="translate(-86.385 -240.809)" fill="#a29aa5"/>
          <path id="Trazado_9151" data-name="Trazado 9151" d="M273.18,21.3h-8.738a2.328,2.328,0,0,1-2.325-2.33V10.22a2.543,2.543,0,0,1,.756.524l9.786,9.806A2.564,2.564,0,0,1,273.18,21.3Z" transform="translate(-247.007 -10.22)" fill="#00efd1"/>
        </g>
        <ellipse id="Elipse_1358" data-name="Elipse 1358" cx="8.728" cy="8.727" rx="8.728" ry="8.727" transform="translate(19.946 25.279)" fill="#00efd1"/>
        <path id="Trazado_9152" data-name="Trazado 9152" d="M286.156,334.151a8.728,8.728,0,1,1-12.223-12.221,8.728,8.728,0,0,0,12.223,12.221Z" transform="translate(-250.511 -294.895)" fill="#00efd1"/>
        <g id="Grupo_24934" data-name="Grupo 24934" transform="translate(24.923 30.254)">
          <path id="Trazado_9153" data-name="Trazado 9153" d="M335.468,366.491a1.29,1.29,0,0,1-1.824,0l-1.55-1.55-1.55,1.55a1.29,1.29,0,0,1-1.824-1.824l1.55-1.55-1.55-1.55a1.29,1.29,0,1,1,1.824-1.824l1.55,1.55,1.55-1.55a1.29,1.29,0,0,1,1.824,1.824l-1.55,1.55,1.55,1.55A1.29,1.29,0,0,1,335.468,366.491Z" transform="translate(-328.342 -359.365)" fill="#f9f8f9"/>
        </g>
      </g>
      <g id="Grupo_24936" data-name="Grupo 24936">
        <path id="Trazado_9154" data-name="Trazado 9154" d="M31.668,9.587a.645.645,0,0,0,.645-.645V4.084A2.8,2.8,0,0,1,35.107,1.29h7.261a.645.645,0,0,0,0-1.29H35.107a4.089,4.089,0,0,0-4.084,4.084V8.942A.645.645,0,0,0,31.668,9.587Z" transform="translate(-31.023)"/>
        <path id="Trazado_9155" data-name="Trazado 9155" d="M37.984,158.713H35.107a2.8,2.8,0,0,1-2.794-2.794V132.145a.645.645,0,0,0-1.29,0v23.774A4.089,4.089,0,0,0,35.107,160h2.876a.645.645,0,0,0,0-1.29Z" transform="translate(-31.023 -120.193)"/>
        <path id="Trazado_9156" data-name="Trazado 9156" d="M99.712,142.5H89.076a.645.645,0,1,0,0,1.29H99.712a.645.645,0,1,0,0-1.29Z" transform="translate(-83.495 -130.248)"/>
        <path id="Trazado_9157" data-name="Trazado 9157" d="M89.076,322.5a.645.645,0,1,0,0,1.29H99.712a.645.645,0,1,0,0-1.29Z" transform="translate(-83.495 -294.771)"/>
        <path id="Trazado_9158" data-name="Trazado 9158" d="M106.336,202.5H87.076a.645.645,0,0,0,0,1.29h19.26a.645.645,0,1,0,0-1.29Z" transform="translate(-81.667 -185.089)"/>
        <path id="Trazado_9159" data-name="Trazado 9159" d="M106.981,263.145a.645.645,0,0,0-.645-.645H87.076a.645.645,0,1,0,0,1.29h19.26A.645.645,0,0,0,106.981,263.145Z" transform="translate(-81.667 -239.93)"/>
        <path id="Trazado_9160" data-name="Trazado 9160" d="M161.965,25.617V13.03a3.2,3.2,0,0,0-.942-2.277L151.238.947A3.2,3.2,0,0,0,148.956,0h-4.449a.645.645,0,1,0,0,1.29h4.449a1.946,1.946,0,0,1,.425.048v8.3a2.976,2.976,0,0,0,2.97,2.975h8.277a1.946,1.946,0,0,1,.048.422V25.356a9.381,9.381,0,0,0-9.768,5.474.645.645,0,0,0,1.178.526,8.087,8.087,0,0,1,9.1-4.6h0a8.082,8.082,0,1,1-9.806,7.9c0-.2.007-.4.021-.593a.645.645,0,0,0-1.286-.093c-.016.227-.025.458-.025.686a9.318,9.318,0,0,0,.836,3.869h-10.81a.645.645,0,0,0,0,1.29h11.526a9.371,9.371,0,1,0,10.318-14.192ZM150.671,9.633V2.2l9.1,9.115h-7.415A1.685,1.685,0,0,1,150.671,9.633Z" transform="translate(-130.152 0)"/>
        <path id="Trazado_9161" data-name="Trazado 9161" d="M320.841,358.763a1.922,1.922,0,0,0,.566,1.368,1.944,1.944,0,0,0,2.736,0l1.094-1.094,1.094,1.094a1.944,1.944,0,0,0,2.736,0h0a1.944,1.944,0,0,0,0-2.736l-1.094-1.094,1.094-1.094a1.935,1.935,0,1,0-2.736-2.736l-1.094,1.094-1.094-1.094a1.935,1.935,0,0,0-2.736,2.736L322.5,356.3l-1.094,1.094A1.922,1.922,0,0,0,320.841,358.763Zm1.479-.456,1.55-1.55a.645.645,0,0,0,0-.912l-1.55-1.55a.645.645,0,0,1,.912-.912l1.55,1.55a.645.645,0,0,0,.912,0l1.55-1.55a.645.645,0,1,1,.912.912l-1.55,1.55a.645.645,0,0,0,0,.912l1.55,1.55a.648.648,0,0,1,0,.912h0a.645.645,0,0,1-.912,0l-1.55-1.55a.645.645,0,0,0-.912,0l-1.55,1.55a.645.645,0,1,1-.912-.912Z" transform="translate(-295.922 -321.65)"/>
      </g>
    </g>
  </g>
</svg>
