<svg xmlns="http://www.w3.org/2000/svg" width="530" height="70" viewBox="0 0 530 70">
  <g id="Grupo_29229" data-name="Grupo 29229" transform="translate(-1612 -2590)">
    <rect id="Rectángulo_6409" data-name="Rectángulo 6409" width="530" height="70" transform="translate(1612 2590)"/>
    <path id="Trazado_13490" data-name="Trazado 13490" d="M3.066-10.566l.049,1.172A3.9,3.9,0,0,1,6.25-10.762a3.021,3.021,0,0,1,3.018,1.7,4,4,0,0,1,1.372-1.23,4.052,4.052,0,0,1,2-.469q3.477,0,3.535,3.682V0H14.365V-6.973a2.426,2.426,0,0,0-.518-1.694,2.279,2.279,0,0,0-1.738-.562,2.4,2.4,0,0,0-1.67.6,2.436,2.436,0,0,0-.771,1.616V0H7.852V-6.924A2.016,2.016,0,0,0,5.6-9.229,2.417,2.417,0,0,0,3.164-7.715V0H1.357V-10.566Zm19.287,7.92,2.461-7.92h1.934L22.5,1.631q-.986,2.637-3.135,2.637l-.342-.029-.674-.127V2.646l.488.039a2.4,2.4,0,0,0,1.431-.371A2.686,2.686,0,0,0,21.113.957l.4-1.074-3.77-10.449h1.973ZM34.512-2.8A1.33,1.33,0,0,0,33.96-3.94a5.311,5.311,0,0,0-1.924-.7,9.1,9.1,0,0,1-2.178-.7,3.1,3.1,0,0,1-1.191-.977,2.336,2.336,0,0,1-.386-1.348,2.741,2.741,0,0,1,1.1-2.2,4.291,4.291,0,0,1,2.808-.9,4.415,4.415,0,0,1,2.915.928,2.947,2.947,0,0,1,1.118,2.373H34.4a1.631,1.631,0,0,0-.63-1.279,2.36,2.36,0,0,0-1.587-.537,2.47,2.47,0,0,0-1.543.43,1.353,1.353,0,0,0-.557,1.123,1.1,1.1,0,0,0,.518.986,6.368,6.368,0,0,0,1.87.635,9.744,9.744,0,0,1,2.192.723A3.2,3.2,0,0,1,35.913-4.37a2.485,2.485,0,0,1,.405,1.44A2.7,2.7,0,0,1,35.186-.659,4.752,4.752,0,0,1,32.246.2,5.321,5.321,0,0,1,30-.254a3.653,3.653,0,0,1-1.528-1.255,3.025,3.025,0,0,1-.552-1.743h1.807a1.87,1.87,0,0,0,.728,1.44,2.822,2.822,0,0,0,1.792.532,2.913,2.913,0,0,0,1.646-.415A1.275,1.275,0,0,0,34.512-2.8Zm3.721-2.568a6.2,6.2,0,0,1,1.143-3.94,3.7,3.7,0,0,1,3.066-1.45A3.7,3.7,0,0,1,45.4-9.5l.078-1.064h1.66V4.063H45.332V-.977A3.792,3.792,0,0,1,42.422.2,3.644,3.644,0,0,1,39.37-1.294a6.34,6.34,0,0,1-1.138-3.95Zm1.807.205a4.7,4.7,0,0,0,.767,2.852,2.438,2.438,0,0,0,2.065,1.035,2.705,2.705,0,0,0,2.461-1.426V-7.881a2.714,2.714,0,0,0-2.441-1.4,2.457,2.457,0,0,0-2.08,1.04A5.118,5.118,0,0,0,40.039-5.166ZM52,0H50.2V-15H52ZM63.6-5.3H58.838V-6.777H63.6Zm3.564-3.984a3.841,3.841,0,0,1,3.125-1.475q3.35,0,3.379,3.779V0H71.865V-6.992a2.432,2.432,0,0,0-.522-1.689,2.094,2.094,0,0,0-1.6-.547A2.607,2.607,0,0,0,68.2-8.76a3.183,3.183,0,0,0-1.035,1.23V0H65.361V-15h1.807Zm15.869-1.279L83.1-9.238a3.85,3.85,0,0,1,3.164-1.523q3.35,0,3.379,3.779V0H87.832V-6.992a2.432,2.432,0,0,0-.522-1.689,2.094,2.094,0,0,0-1.6-.547,2.607,2.607,0,0,0-1.543.469,3.183,3.183,0,0,0-1.035,1.23V0H81.328V-10.566Zm8.848,5.186a6.241,6.241,0,0,1,.61-2.793,4.553,4.553,0,0,1,1.7-1.914,4.626,4.626,0,0,1,2.485-.674,4.456,4.456,0,0,1,3.491,1.494A5.748,5.748,0,0,1,101.5-5.293v.127a6.3,6.3,0,0,1-.591,2.769A4.486,4.486,0,0,1,99.224-.488,4.679,4.679,0,0,1,96.7.2,4.445,4.445,0,0,1,93.218-1.3a5.719,5.719,0,0,1-1.333-3.955Zm1.816.215a4.52,4.52,0,0,0,.815,2.822A2.61,2.61,0,0,0,96.7-1.279a2.594,2.594,0,0,0,2.188-1.079A4.943,4.943,0,0,0,99.7-5.381,4.513,4.513,0,0,0,98.872-8.2,2.623,2.623,0,0,0,96.68-9.277a2.594,2.594,0,0,0-2.158,1.064A4.906,4.906,0,0,0,93.7-5.166Zm11.768-5.4.049,1.172a3.9,3.9,0,0,1,3.135-1.367,3.021,3.021,0,0,1,3.018,1.7,4,4,0,0,1,1.372-1.23,4.052,4.052,0,0,1,2-.469q3.477,0,3.535,3.682V0h-1.807V-6.973a2.426,2.426,0,0,0-.518-1.694,2.279,2.279,0,0,0-1.738-.562,2.4,2.4,0,0,0-1.67.6,2.436,2.436,0,0,0-.771,1.616V0h-1.816V-6.924A2.016,2.016,0,0,0,108-9.229a2.417,2.417,0,0,0-2.432,1.514V0H103.76V-10.566Zm24.775,5.4a6.283,6.283,0,0,1-1.113,3.892A3.557,3.557,0,0,1,126.143.2a3.683,3.683,0,0,1-3.1-1.416L122.959,0H121.3V-15h1.807v5.6a3.663,3.663,0,0,1,3.018-1.357,3.579,3.579,0,0,1,3.022,1.455,6.471,6.471,0,0,1,1.1,3.984Zm-1.807-.205a4.882,4.882,0,0,0-.713-2.852,2.36,2.36,0,0,0-2.051-1.006,2.652,2.652,0,0,0-2.568,1.66V-3a2.727,2.727,0,0,0,2.588,1.66,2.347,2.347,0,0,0,2.021-1.006A5.192,5.192,0,0,0,128.438-5.371Zm9.189-3.574a5.414,5.414,0,0,0-.889-.068A2.381,2.381,0,0,0,134.326-7.5V0H132.52V-10.566h1.758l.029,1.221a2.813,2.813,0,0,1,2.52-1.416,1.846,1.846,0,0,1,.8.137ZM143.672.2a4.617,4.617,0,0,1-3.5-1.411,5.237,5.237,0,0,1-1.348-3.774v-.332a6.341,6.341,0,0,1,.6-2.808,4.685,4.685,0,0,1,1.68-1.934,4.223,4.223,0,0,1,2.339-.7,3.957,3.957,0,0,1,3.2,1.357,5.877,5.877,0,0,1,1.143,3.887v.752h-7.158a3.756,3.756,0,0,0,.913,2.524,2.87,2.87,0,0,0,2.222.962,3.147,3.147,0,0,0,1.621-.391,4.073,4.073,0,0,0,1.162-1.035l1.1.859A4.437,4.437,0,0,1,143.672.2Zm-.225-9.473a2.41,2.41,0,0,0-1.836.8,3.868,3.868,0,0,0-.918,2.231h5.293v-.137a3.441,3.441,0,0,0-.742-2.134A2.269,2.269,0,0,0,143.447-9.277ZM157.5,1.475h-8.945V0H157.5ZM165.059-2.8a1.33,1.33,0,0,0-.552-1.138,5.311,5.311,0,0,0-1.924-.7,9.1,9.1,0,0,1-2.178-.7,3.1,3.1,0,0,1-1.191-.977,2.336,2.336,0,0,1-.386-1.348,2.741,2.741,0,0,1,1.1-2.2,4.291,4.291,0,0,1,2.808-.9,4.415,4.415,0,0,1,2.915.928,2.947,2.947,0,0,1,1.118,2.373h-1.816a1.631,1.631,0,0,0-.63-1.279,2.36,2.36,0,0,0-1.587-.537,2.47,2.47,0,0,0-1.543.43,1.353,1.353,0,0,0-.557,1.123,1.1,1.1,0,0,0,.518.986,6.368,6.368,0,0,0,1.87.635,9.744,9.744,0,0,1,2.192.723A3.2,3.2,0,0,1,166.46-4.37a2.485,2.485,0,0,1,.405,1.44,2.7,2.7,0,0,1-1.133,2.271A4.752,4.752,0,0,1,162.793.2a5.321,5.321,0,0,1-2.246-.449,3.653,3.653,0,0,1-1.528-1.255,3.025,3.025,0,0,1-.552-1.743h1.807A1.87,1.87,0,0,0,161-1.812a2.822,2.822,0,0,0,1.792.532,2.913,2.913,0,0,0,1.646-.415A1.275,1.275,0,0,0,165.059-2.8ZM173.6.2a4.617,4.617,0,0,1-3.5-1.411A5.237,5.237,0,0,1,168.76-4.99v-.332a6.341,6.341,0,0,1,.6-2.808,4.685,4.685,0,0,1,1.68-1.934,4.223,4.223,0,0,1,2.339-.7,3.957,3.957,0,0,1,3.2,1.357,5.877,5.877,0,0,1,1.143,3.887v.752h-7.158a3.756,3.756,0,0,0,.913,2.524,2.87,2.87,0,0,0,2.222.962,3.147,3.147,0,0,0,1.621-.391,4.073,4.073,0,0,0,1.162-1.035l1.1.859A4.437,4.437,0,0,1,173.6.2Zm-.225-9.473a2.41,2.41,0,0,0-1.836.8,3.868,3.868,0,0,0-.918,2.231h5.293v-.137a3.441,3.441,0,0,0-.742-2.134A2.269,2.269,0,0,0,173.379-9.277Zm11.543.332a5.414,5.414,0,0,0-.889-.068A2.381,2.381,0,0,0,181.621-7.5V0h-1.807V-10.566h1.758l.029,1.221a2.813,2.813,0,0,1,2.52-1.416,1.846,1.846,0,0,1,.8.137Zm5.322,6.494,2.617-8.115h1.846L190.918,0h-1.377l-3.828-10.566h1.846ZM198.408,0H196.6V-10.566h1.807Zm-1.953-13.369a1.078,1.078,0,0,1,.269-.742,1.008,1.008,0,0,1,.8-.3,1.024,1.024,0,0,1,.8.3,1.067,1.067,0,0,1,.273.742,1.032,1.032,0,0,1-.273.732,1.043,1.043,0,0,1-.8.293,1.026,1.026,0,0,1-.8-.293A1.043,1.043,0,0,1,196.455-13.369Zm4.4,8a6.19,6.19,0,0,1,1.152-3.911,3.644,3.644,0,0,1,3.018-1.479,3.665,3.665,0,0,1,2.939,1.27V-15h1.807V0h-1.66l-.088-1.133A3.679,3.679,0,0,1,205.01.2a3.609,3.609,0,0,1-2.993-1.5,6.26,6.26,0,0,1-1.157-3.926Zm1.807.205a4.687,4.687,0,0,0,.742,2.813,2.4,2.4,0,0,0,2.051,1.016,2.636,2.636,0,0,0,2.51-1.543V-7.734a2.656,2.656,0,0,0-2.49-1.494,2.411,2.411,0,0,0-2.07,1.025A5.16,5.16,0,0,0,202.666-5.166Zm9.434-.215a6.241,6.241,0,0,1,.61-2.793,4.553,4.553,0,0,1,1.7-1.914,4.626,4.626,0,0,1,2.485-.674,4.456,4.456,0,0,1,3.491,1.494,5.748,5.748,0,0,1,1.333,3.975v.127a6.3,6.3,0,0,1-.591,2.769,4.486,4.486,0,0,1-1.689,1.909A4.679,4.679,0,0,1,216.914.2,4.445,4.445,0,0,1,213.433-1.3,5.719,5.719,0,0,1,212.1-5.254Zm1.816.215a4.52,4.52,0,0,0,.815,2.822,2.61,2.61,0,0,0,2.183,1.064A2.594,2.594,0,0,0,219.1-2.358a4.943,4.943,0,0,0,.811-3.022,4.513,4.513,0,0,0-.825-2.817,2.623,2.623,0,0,0-2.192-1.079,2.594,2.594,0,0,0-2.158,1.064A4.906,4.906,0,0,0,213.916-5.166Zm15.176-3.779a5.414,5.414,0,0,0-.889-.068A2.381,2.381,0,0,0,225.791-7.5V0h-1.807V-10.566h1.758l.029,1.221a2.813,2.813,0,0,1,2.52-1.416,1.846,1.846,0,0,1,.8.137ZM239.463-5.3H234.7V-6.777h4.766Zm8.281,4.258a3.837,3.837,0,0,1-3.1,1.24,3.285,3.285,0,0,1-2.573-.981,4.248,4.248,0,0,1-.894-2.905v-6.875h1.807V-3.74q0,2.4,1.953,2.4A2.7,2.7,0,0,0,247.7-2.881v-7.686H249.5V0h-1.719Zm11.162-9.521.059,1.328a3.85,3.85,0,0,1,3.164-1.523q3.35,0,3.379,3.779V0H263.7V-6.992a2.432,2.432,0,0,0-.522-1.689,2.094,2.094,0,0,0-1.6-.547,2.607,2.607,0,0,0-1.543.469A3.183,3.183,0,0,0,259-7.529V0H257.2V-10.566Zm8.848,5.186a6.241,6.241,0,0,1,.61-2.793,4.553,4.553,0,0,1,1.7-1.914,4.626,4.626,0,0,1,2.485-.674,4.456,4.456,0,0,1,3.491,1.494,5.748,5.748,0,0,1,1.333,3.975v.127a6.3,6.3,0,0,1-.591,2.769,4.486,4.486,0,0,1-1.689,1.909A4.679,4.679,0,0,1,272.568.2,4.445,4.445,0,0,1,269.087-1.3a5.719,5.719,0,0,1-1.333-3.955Zm1.816.215a4.52,4.52,0,0,0,.815,2.822,2.61,2.61,0,0,0,2.183,1.064,2.594,2.594,0,0,0,2.188-1.079,4.943,4.943,0,0,0,.811-3.022,4.512,4.512,0,0,0-.825-2.817,2.623,2.623,0,0,0-2.192-1.079,2.594,2.594,0,0,0-2.158,1.064A4.906,4.906,0,0,0,269.57-5.166Zm11.768-5.4.049,1.172a3.9,3.9,0,0,1,3.135-1.367,3.021,3.021,0,0,1,3.018,1.7,4,4,0,0,1,1.372-1.23,4.052,4.052,0,0,1,2-.469q3.477,0,3.535,3.682V0h-1.807V-6.973a2.426,2.426,0,0,0-.518-1.694,2.279,2.279,0,0,0-1.738-.562,2.4,2.4,0,0,0-1.67.6,2.436,2.436,0,0,0-.771,1.616V0h-1.816V-6.924a2.016,2.016,0,0,0-2.256-2.3,2.417,2.417,0,0,0-2.432,1.514V0h-1.807V-10.566Zm24.775,5.4A6.283,6.283,0,0,1,305-1.274,3.557,3.557,0,0,1,302.012.2a3.683,3.683,0,0,1-3.1-1.416L298.828,0h-1.66V-15h1.807v5.6a3.662,3.662,0,0,1,3.018-1.357,3.579,3.579,0,0,1,3.022,1.455,6.471,6.471,0,0,1,1.1,3.984Zm-1.807-.205a4.882,4.882,0,0,0-.713-2.852,2.36,2.36,0,0,0-2.051-1.006,2.652,2.652,0,0,0-2.568,1.66V-3a2.727,2.727,0,0,0,2.588,1.66,2.347,2.347,0,0,0,2.021-1.006A5.191,5.191,0,0,0,304.307-5.371ZM313.5-8.945a5.414,5.414,0,0,0-.889-.068A2.381,2.381,0,0,0,310.2-7.5V0h-1.807V-10.566h1.758l.029,1.221a2.813,2.813,0,0,1,2.52-1.416,1.846,1.846,0,0,1,.8.137ZM319.541.2a4.617,4.617,0,0,1-3.5-1.411A5.237,5.237,0,0,1,314.7-4.99v-.332a6.341,6.341,0,0,1,.6-2.808,4.685,4.685,0,0,1,1.68-1.934,4.223,4.223,0,0,1,2.339-.7,3.957,3.957,0,0,1,3.2,1.357,5.877,5.877,0,0,1,1.143,3.887v.752H316.5a3.756,3.756,0,0,0,.913,2.524,2.87,2.87,0,0,0,2.222.962,3.147,3.147,0,0,0,1.621-.391,4.073,4.073,0,0,0,1.162-1.035l1.1.859A4.437,4.437,0,0,1,319.541.2Zm-.225-9.473a2.41,2.41,0,0,0-1.836.8,3.869,3.869,0,0,0-.918,2.231h5.293v-.137a3.441,3.441,0,0,0-.742-2.134A2.269,2.269,0,0,0,319.316-9.277ZM333.369,1.475h-8.945V0h8.945Zm7.93-2.52A3.837,3.837,0,0,1,338.2.2a3.285,3.285,0,0,1-2.573-.981,4.248,4.248,0,0,1-.894-2.905v-6.875h1.807V-3.74q0,2.4,1.953,2.4a2.7,2.7,0,0,0,2.754-1.543v-7.686h1.807V0h-1.719ZM351.953-2.8A1.33,1.33,0,0,0,351.4-3.94a5.311,5.311,0,0,0-1.924-.7,9.1,9.1,0,0,1-2.178-.7,3.1,3.1,0,0,1-1.191-.977,2.336,2.336,0,0,1-.386-1.348,2.741,2.741,0,0,1,1.1-2.2,4.291,4.291,0,0,1,2.808-.9,4.415,4.415,0,0,1,2.915.928,2.947,2.947,0,0,1,1.118,2.373h-1.816a1.631,1.631,0,0,0-.63-1.279,2.36,2.36,0,0,0-1.587-.537,2.47,2.47,0,0,0-1.543.43,1.353,1.353,0,0,0-.557,1.123,1.1,1.1,0,0,0,.518.986,6.368,6.368,0,0,0,1.87.635,9.744,9.744,0,0,1,2.192.723,3.2,3.2,0,0,1,1.245,1.011,2.485,2.485,0,0,1,.405,1.44,2.7,2.7,0,0,1-1.133,2.271A4.752,4.752,0,0,1,349.688.2a5.321,5.321,0,0,1-2.246-.449,3.653,3.653,0,0,1-1.528-1.255,3.025,3.025,0,0,1-.552-1.743h1.807a1.87,1.87,0,0,0,.728,1.44,2.822,2.822,0,0,0,1.792.532,2.914,2.914,0,0,0,1.646-.415A1.275,1.275,0,0,0,351.953-2.8Zm10.684,1.758a3.837,3.837,0,0,1-3.1,1.24,3.285,3.285,0,0,1-2.573-.981,4.248,4.248,0,0,1-.894-2.905v-6.875h1.807V-3.74q0,2.4,1.953,2.4a2.7,2.7,0,0,0,2.754-1.543v-7.686h1.807V0h-1.719ZM373.662,0a3.8,3.8,0,0,1-.254-1.113A4.031,4.031,0,0,1,370.4.2a3.73,3.73,0,0,1-2.563-.884,2.859,2.859,0,0,1-1-2.241,2.987,2.987,0,0,1,1.255-2.563,5.916,5.916,0,0,1,3.53-.913h1.758v-.83a2.029,2.029,0,0,0-.566-1.509,2.276,2.276,0,0,0-1.67-.562,2.634,2.634,0,0,0-1.621.488,1.439,1.439,0,0,0-.654,1.182h-1.816a2.493,2.493,0,0,1,.562-1.528,3.833,3.833,0,0,1,1.523-1.167,5.125,5.125,0,0,1,2.114-.43,4.177,4.177,0,0,1,2.861.913,3.294,3.294,0,0,1,1.074,2.515v4.863a5.946,5.946,0,0,0,.371,2.314V0Zm-3-1.377a3.175,3.175,0,0,0,1.611-.439,2.658,2.658,0,0,0,1.1-1.143V-5.127h-1.416q-3.32,0-3.32,1.943a1.645,1.645,0,0,0,.566,1.328A2.177,2.177,0,0,0,370.664-1.377Zm12.461-7.568a5.414,5.414,0,0,0-.889-.068A2.381,2.381,0,0,0,379.824-7.5V0h-1.807V-10.566h1.758l.029,1.221a2.813,2.813,0,0,1,2.52-1.416,1.846,1.846,0,0,1,.8.137ZM386.748,0h-1.807V-10.566h1.807Zm-1.953-13.369a1.078,1.078,0,0,1,.269-.742,1.008,1.008,0,0,1,.8-.3,1.024,1.024,0,0,1,.8.3,1.067,1.067,0,0,1,.273.742,1.032,1.032,0,0,1-.273.732,1.043,1.043,0,0,1-.8.293,1.026,1.026,0,0,1-.8-.293A1.043,1.043,0,0,1,384.795-13.369Zm4.365,7.988a6.241,6.241,0,0,1,.61-2.793,4.553,4.553,0,0,1,1.7-1.914,4.626,4.626,0,0,1,2.485-.674,4.456,4.456,0,0,1,3.491,1.494,5.748,5.748,0,0,1,1.333,3.975v.127a6.3,6.3,0,0,1-.591,2.769A4.486,4.486,0,0,1,396.5-.488,4.679,4.679,0,0,1,393.975.2,4.445,4.445,0,0,1,390.493-1.3a5.719,5.719,0,0,1-1.333-3.955Zm1.816.215a4.52,4.52,0,0,0,.815,2.822,2.61,2.61,0,0,0,2.183,1.064,2.594,2.594,0,0,0,2.188-1.079,4.943,4.943,0,0,0,.811-3.022,4.512,4.512,0,0,0-.825-2.817,2.623,2.623,0,0,0-2.192-1.079A2.594,2.594,0,0,0,391.8-8.213,4.906,4.906,0,0,0,390.977-5.166ZM409.756-5.3H404.99V-6.777h4.766Zm10.684.137a6.327,6.327,0,0,1-1.1,3.887A3.537,3.537,0,0,1,416.348.2a3.875,3.875,0,0,1-3.027-1.221V4.063h-1.807V-10.566h1.65l.088,1.172a3.722,3.722,0,0,1,3.066-1.367,3.6,3.6,0,0,1,3.013,1.436,6.4,6.4,0,0,1,1.108,3.994Zm-1.807-.205a4.669,4.669,0,0,0-.762-2.822,2.454,2.454,0,0,0-2.09-1.035,2.656,2.656,0,0,0-2.461,1.455v5.049a2.661,2.661,0,0,0,2.48,1.445,2.442,2.442,0,0,0,2.065-1.03A5.1,5.1,0,0,0,418.633-5.371Z" transform="translate(1674 2634)" fill="#fff"/>
  </g>
</svg>
