<svg xmlns="http://www.w3.org/2000/svg" width="394" height="70" viewBox="0 0 394 70">
  <g id="Grupo_29231" data-name="Grupo 29231" transform="translate(-1612 -2747)">
    <g id="Grupo_29230" data-name="Grupo 29230">
      <rect id="Rectángulo_6410" data-name="Rectángulo 6410" width="394" height="70" transform="translate(1612 2747)"/>
      <path id="Trazado_13491" data-name="Trazado 13491" d="M3.066-10.566l.049,1.172A3.9,3.9,0,0,1,6.25-10.762a3.021,3.021,0,0,1,3.018,1.7,4,4,0,0,1,1.372-1.23,4.052,4.052,0,0,1,2-.469q3.477,0,3.535,3.682V0H14.365V-6.973a2.426,2.426,0,0,0-.518-1.694,2.279,2.279,0,0,0-1.738-.562,2.4,2.4,0,0,0-1.67.6,2.436,2.436,0,0,0-.771,1.616V0H7.852V-6.924A2.016,2.016,0,0,0,5.6-9.229,2.417,2.417,0,0,0,3.164-7.715V0H1.357V-10.566Zm19.287,7.92,2.461-7.92h1.934L22.5,1.631q-.986,2.637-3.135,2.637l-.342-.029-.674-.127V2.646l.488.039a2.4,2.4,0,0,0,1.431-.371A2.686,2.686,0,0,0,21.113.957l.4-1.074-3.77-10.449h1.973ZM34.512-2.8A1.33,1.33,0,0,0,33.96-3.94a5.311,5.311,0,0,0-1.924-.7,9.1,9.1,0,0,1-2.178-.7,3.1,3.1,0,0,1-1.191-.977,2.336,2.336,0,0,1-.386-1.348,2.741,2.741,0,0,1,1.1-2.2,4.291,4.291,0,0,1,2.808-.9,4.415,4.415,0,0,1,2.915.928,2.947,2.947,0,0,1,1.118,2.373H34.4a1.631,1.631,0,0,0-.63-1.279,2.36,2.36,0,0,0-1.587-.537,2.47,2.47,0,0,0-1.543.43,1.353,1.353,0,0,0-.557,1.123,1.1,1.1,0,0,0,.518.986,6.368,6.368,0,0,0,1.87.635,9.744,9.744,0,0,1,2.192.723A3.2,3.2,0,0,1,35.913-4.37a2.485,2.485,0,0,1,.405,1.44A2.7,2.7,0,0,1,35.186-.659,4.752,4.752,0,0,1,32.246.2,5.321,5.321,0,0,1,30-.254a3.653,3.653,0,0,1-1.528-1.255,3.025,3.025,0,0,1-.552-1.743h1.807a1.87,1.87,0,0,0,.728,1.44,2.822,2.822,0,0,0,1.792.532,2.913,2.913,0,0,0,1.646-.415A1.275,1.275,0,0,0,34.512-2.8Zm3.721-2.568a6.2,6.2,0,0,1,1.143-3.94,3.7,3.7,0,0,1,3.066-1.45A3.7,3.7,0,0,1,45.4-9.5l.078-1.064h1.66V4.063H45.332V-.977A3.792,3.792,0,0,1,42.422.2,3.644,3.644,0,0,1,39.37-1.294a6.34,6.34,0,0,1-1.138-3.95Zm1.807.205a4.7,4.7,0,0,0,.767,2.852,2.438,2.438,0,0,0,2.065,1.035,2.705,2.705,0,0,0,2.461-1.426V-7.881a2.714,2.714,0,0,0-2.441-1.4,2.457,2.457,0,0,0-2.08,1.04A5.118,5.118,0,0,0,40.039-5.166ZM52,0H50.2V-15H52ZM63.6-5.3H58.838V-6.777H63.6Zm3.564-3.984a3.841,3.841,0,0,1,3.125-1.475q3.35,0,3.379,3.779V0H71.865V-6.992a2.432,2.432,0,0,0-.522-1.689,2.094,2.094,0,0,0-1.6-.547A2.607,2.607,0,0,0,68.2-8.76a3.183,3.183,0,0,0-1.035,1.23V0H65.361V-15h1.807ZM83.291,0H81.484V-15h1.807ZM85.7-5.381a6.241,6.241,0,0,1,.61-2.793,4.553,4.553,0,0,1,1.7-1.914,4.626,4.626,0,0,1,2.485-.674,4.456,4.456,0,0,1,3.491,1.494,5.748,5.748,0,0,1,1.333,3.975v.127A6.3,6.3,0,0,1,94.731-2.4,4.486,4.486,0,0,1,93.042-.488,4.679,4.679,0,0,1,90.518.2,4.445,4.445,0,0,1,87.036-1.3,5.719,5.719,0,0,1,85.7-5.254Zm1.816.215a4.52,4.52,0,0,0,.815,2.822,2.61,2.61,0,0,0,2.183,1.064,2.594,2.594,0,0,0,2.188-1.079,4.943,4.943,0,0,0,.811-3.022A4.513,4.513,0,0,0,92.69-8.2,2.623,2.623,0,0,0,90.5-9.277,2.594,2.594,0,0,0,88.34-8.213,4.906,4.906,0,0,0,87.52-5.166Zm14.307,3.887a2.6,2.6,0,0,0,1.689-.586,2.061,2.061,0,0,0,.8-1.465h1.709A3.276,3.276,0,0,1,105.4-1.6a4.116,4.116,0,0,1-1.538,1.309A4.438,4.438,0,0,1,101.826.2a4.353,4.353,0,0,1-3.433-1.44,5.737,5.737,0,0,1-1.274-3.94v-.3a6.361,6.361,0,0,1,.566-2.744A4.314,4.314,0,0,1,99.312-10.1a4.619,4.619,0,0,1,2.5-.664A4.238,4.238,0,0,1,104.771-9.7a3.8,3.8,0,0,1,1.255,2.764h-1.709a2.49,2.49,0,0,0-.776-1.685,2.415,2.415,0,0,0-1.724-.659,2.529,2.529,0,0,0-2.134.991,4.655,4.655,0,0,0-.757,2.866v.342a4.562,4.562,0,0,0,.752,2.813A2.541,2.541,0,0,0,101.826-1.279ZM114.58,0a3.8,3.8,0,0,1-.254-1.113A4.031,4.031,0,0,1,111.318.2a3.73,3.73,0,0,1-2.563-.884,2.859,2.859,0,0,1-1-2.241,2.987,2.987,0,0,1,1.255-2.563,5.916,5.916,0,0,1,3.53-.913H114.3v-.83a2.029,2.029,0,0,0-.566-1.509,2.276,2.276,0,0,0-1.67-.562,2.634,2.634,0,0,0-1.621.488,1.439,1.439,0,0,0-.654,1.182h-1.816a2.493,2.493,0,0,1,.562-1.528,3.832,3.832,0,0,1,1.523-1.167,5.125,5.125,0,0,1,2.114-.43,4.177,4.177,0,0,1,2.861.913A3.294,3.294,0,0,1,116.1-7.334v4.863a5.946,5.946,0,0,0,.371,2.314V0Zm-3-1.377a3.175,3.175,0,0,0,1.611-.439,2.658,2.658,0,0,0,1.1-1.143V-5.127h-1.416q-3.32,0-3.32,1.943a1.645,1.645,0,0,0,.566,1.328A2.177,2.177,0,0,0,111.582-1.377ZM120.9,0h-1.807V-15H120.9Zm4.7-9.287a3.841,3.841,0,0,1,3.125-1.475q3.35,0,3.379,3.779V0h-1.807V-6.992a2.433,2.433,0,0,0-.522-1.689,2.094,2.094,0,0,0-1.6-.547,2.607,2.607,0,0,0-1.543.469,3.183,3.183,0,0,0-1.035,1.23V0h-1.807V-15H125.6Zm8.73,3.906a6.241,6.241,0,0,1,.61-2.793,4.553,4.553,0,0,1,1.7-1.914,4.626,4.626,0,0,1,2.485-.674,4.456,4.456,0,0,1,3.491,1.494,5.748,5.748,0,0,1,1.333,3.975v.127a6.3,6.3,0,0,1-.591,2.769,4.486,4.486,0,0,1-1.689,1.909A4.679,4.679,0,0,1,139.141.2,4.445,4.445,0,0,1,135.659-1.3a5.719,5.719,0,0,1-1.333-3.955Zm1.816.215a4.52,4.52,0,0,0,.815,2.822,2.61,2.61,0,0,0,2.183,1.064,2.594,2.594,0,0,0,2.188-1.079,4.943,4.943,0,0,0,.811-3.022,4.513,4.513,0,0,0-.825-2.817,2.623,2.623,0,0,0-2.192-1.079,2.594,2.594,0,0,0-2.158,1.064A4.906,4.906,0,0,0,136.143-5.166ZM152.363-2.8a1.33,1.33,0,0,0-.552-1.138,5.311,5.311,0,0,0-1.924-.7,9.1,9.1,0,0,1-2.178-.7,3.1,3.1,0,0,1-1.191-.977,2.336,2.336,0,0,1-.386-1.348,2.741,2.741,0,0,1,1.1-2.2,4.291,4.291,0,0,1,2.808-.9,4.415,4.415,0,0,1,2.915.928,2.947,2.947,0,0,1,1.118,2.373h-1.816a1.631,1.631,0,0,0-.63-1.279,2.36,2.36,0,0,0-1.587-.537,2.47,2.47,0,0,0-1.543.43,1.353,1.353,0,0,0-.557,1.123,1.1,1.1,0,0,0,.518.986,6.368,6.368,0,0,0,1.87.635,9.744,9.744,0,0,1,2.192.723,3.2,3.2,0,0,1,1.245,1.011,2.485,2.485,0,0,1,.405,1.44,2.7,2.7,0,0,1-1.133,2.271A4.752,4.752,0,0,1,150.1.2a5.321,5.321,0,0,1-2.246-.449,3.653,3.653,0,0,1-1.528-1.255,3.025,3.025,0,0,1-.552-1.743h1.807a1.87,1.87,0,0,0,.728,1.44,2.822,2.822,0,0,0,1.792.532,2.913,2.913,0,0,0,1.646-.415A1.275,1.275,0,0,0,152.363-2.8Zm6.611-10.322v2.559h1.973v1.4h-1.973v6.561a1.467,1.467,0,0,0,.264.953,1.11,1.11,0,0,0,.9.318A4.374,4.374,0,0,0,161-1.455V0A5.268,5.268,0,0,1,159.609.2a2.25,2.25,0,0,1-1.826-.732,3.147,3.147,0,0,1-.615-2.08V-9.17h-1.924v-1.4h1.924v-2.559ZM171.768-5.3H167V-6.777h4.766Zm8.281,4.258a3.837,3.837,0,0,1-3.1,1.24,3.285,3.285,0,0,1-2.573-.981,4.248,4.248,0,0,1-.894-2.905v-6.875h1.807V-3.74q0,2.4,1.953,2.4A2.7,2.7,0,0,0,180-2.881v-7.686h1.807V0h-1.719Zm14.561-7.9a5.414,5.414,0,0,0-.889-.068A2.381,2.381,0,0,0,191.309-7.5V0H189.5V-10.566h1.758l.029,1.221a2.813,2.813,0,0,1,2.52-1.416,1.846,1.846,0,0,1,.8.137Zm.986,3.564a6.241,6.241,0,0,1,.61-2.793,4.553,4.553,0,0,1,1.7-1.914,4.626,4.626,0,0,1,2.485-.674,4.456,4.456,0,0,1,3.491,1.494,5.748,5.748,0,0,1,1.333,3.975v.127a6.3,6.3,0,0,1-.591,2.769,4.486,4.486,0,0,1-1.689,1.909A4.679,4.679,0,0,1,200.41.2,4.445,4.445,0,0,1,196.929-1.3,5.719,5.719,0,0,1,195.6-5.254Zm1.816.215a4.52,4.52,0,0,0,.815,2.822,2.61,2.61,0,0,0,2.183,1.064A2.594,2.594,0,0,0,202.6-2.358a4.943,4.943,0,0,0,.811-3.022,4.513,4.513,0,0,0-.825-2.817,2.623,2.623,0,0,0-2.192-1.079,2.594,2.594,0,0,0-2.158,1.064A4.906,4.906,0,0,0,197.412-5.166ZM207-5.381a6.241,6.241,0,0,1,.61-2.793,4.553,4.553,0,0,1,1.7-1.914,4.626,4.626,0,0,1,2.485-.674,4.456,4.456,0,0,1,3.491,1.494,5.748,5.748,0,0,1,1.333,3.975v.127A6.3,6.3,0,0,1,216.03-2.4a4.486,4.486,0,0,1-1.689,1.909A4.679,4.679,0,0,1,211.816.2,4.445,4.445,0,0,1,208.335-1.3,5.719,5.719,0,0,1,207-5.254Zm1.816.215a4.52,4.52,0,0,0,.815,2.822,2.61,2.61,0,0,0,2.183,1.064A2.594,2.594,0,0,0,214-2.358a4.943,4.943,0,0,0,.811-3.022,4.513,4.513,0,0,0-.825-2.817A2.623,2.623,0,0,0,211.8-9.277a2.594,2.594,0,0,0-2.158,1.064A4.906,4.906,0,0,0,208.818-5.166Zm12.52-7.959v2.559h1.973v1.4h-1.973v6.561a1.467,1.467,0,0,0,.264.953,1.11,1.11,0,0,0,.9.318,4.374,4.374,0,0,0,.859-.117V0A5.268,5.268,0,0,1,221.973.2a2.25,2.25,0,0,1-1.826-.732,3.147,3.147,0,0,1-.615-2.08V-9.17h-1.924v-1.4h1.924v-2.559Zm19.029,6.768h-9.785V-7.832h9.785Zm12.055,1.191a6.327,6.327,0,0,1-1.1,3.887A3.537,3.537,0,0,1,248.33.2,3.875,3.875,0,0,1,245.3-1.025V4.063H243.5V-10.566h1.65l.088,1.172a3.722,3.722,0,0,1,3.066-1.367,3.6,3.6,0,0,1,3.013,1.436,6.4,6.4,0,0,1,1.108,3.994Zm-1.807-.205a4.669,4.669,0,0,0-.762-2.822,2.454,2.454,0,0,0-2.09-1.035A2.656,2.656,0,0,0,245.3-7.773v5.049a2.661,2.661,0,0,0,2.48,1.445,2.442,2.442,0,0,0,2.065-1.03A5.1,5.1,0,0,0,250.615-5.371Z" transform="translate(1674 2790)" fill="#fff"/>
    </g>
  </g>
</svg>
