<svg id="Componente_2_1" data-name="Componente 2 – 1" xmlns="http://www.w3.org/2000/svg" width="355" height="70" viewBox="0 0 355 70">
  <g id="Grupo_29233" data-name="Grupo 29233" transform="translate(-179 -3668)">
    <rect id="Rectángulo_5804" data-name="Rectángulo 5804" width="355" height="70" transform="translate(179 3668)"/>
  </g>
  <path id="Trazado_13493" data-name="Trazado 13493" d="M3.066-10.566l.049,1.172A3.9,3.9,0,0,1,6.25-10.762a3.021,3.021,0,0,1,3.018,1.7,4,4,0,0,1,1.372-1.23,4.052,4.052,0,0,1,2-.469q3.477,0,3.535,3.682V0H14.365V-6.973a2.426,2.426,0,0,0-.518-1.694,2.279,2.279,0,0,0-1.738-.562,2.4,2.4,0,0,0-1.67.6,2.436,2.436,0,0,0-.771,1.616V0H7.852V-6.924A2.016,2.016,0,0,0,5.6-9.229,2.417,2.417,0,0,0,3.164-7.715V0H1.357V-10.566Zm19.287,7.92,2.461-7.92h1.934L22.5,1.631q-.986,2.637-3.135,2.637l-.342-.029-.674-.127V2.646l.488.039a2.4,2.4,0,0,0,1.431-.371A2.686,2.686,0,0,0,21.113.957l.4-1.074-3.77-10.449h1.973ZM34.512-2.8A1.33,1.33,0,0,0,33.96-3.94a5.311,5.311,0,0,0-1.924-.7,9.1,9.1,0,0,1-2.178-.7,3.1,3.1,0,0,1-1.191-.977,2.336,2.336,0,0,1-.386-1.348,2.741,2.741,0,0,1,1.1-2.2,4.291,4.291,0,0,1,2.808-.9,4.415,4.415,0,0,1,2.915.928,2.947,2.947,0,0,1,1.118,2.373H34.4a1.631,1.631,0,0,0-.63-1.279,2.36,2.36,0,0,0-1.587-.537,2.47,2.47,0,0,0-1.543.43,1.353,1.353,0,0,0-.557,1.123,1.1,1.1,0,0,0,.518.986,6.368,6.368,0,0,0,1.87.635,9.744,9.744,0,0,1,2.192.723A3.2,3.2,0,0,1,35.913-4.37a2.485,2.485,0,0,1,.405,1.44A2.7,2.7,0,0,1,35.186-.659,4.752,4.752,0,0,1,32.246.2,5.321,5.321,0,0,1,30-.254a3.653,3.653,0,0,1-1.528-1.255,3.025,3.025,0,0,1-.552-1.743h1.807a1.87,1.87,0,0,0,.728,1.44,2.822,2.822,0,0,0,1.792.532,2.913,2.913,0,0,0,1.646-.415A1.275,1.275,0,0,0,34.512-2.8Zm3.721-2.568a6.2,6.2,0,0,1,1.143-3.94,3.7,3.7,0,0,1,3.066-1.45A3.7,3.7,0,0,1,45.4-9.5l.078-1.064h1.66V4.063H45.332V-.977A3.792,3.792,0,0,1,42.422.2,3.644,3.644,0,0,1,39.37-1.294a6.34,6.34,0,0,1-1.138-3.95Zm1.807.205a4.7,4.7,0,0,0,.767,2.852,2.438,2.438,0,0,0,2.065,1.035,2.705,2.705,0,0,0,2.461-1.426V-7.881a2.714,2.714,0,0,0-2.441-1.4,2.457,2.457,0,0,0-2.08,1.04A5.118,5.118,0,0,0,40.039-5.166ZM52,0H50.2V-15H52Zm9.287-6.348L54.834-8.877v-1.855l8.34,3.691v1.426l-8.34,3.7V-3.789Zm15.527,5.3A3.837,3.837,0,0,1,73.721.2a3.285,3.285,0,0,1-2.573-.981,4.248,4.248,0,0,1-.894-2.905v-6.875h1.807V-3.74q0,2.4,1.953,2.4a2.7,2.7,0,0,0,2.754-1.543v-7.686h1.807V0H76.855ZM87.471-2.8a1.33,1.33,0,0,0-.552-1.138A5.311,5.311,0,0,0,85-4.639a9.1,9.1,0,0,1-2.178-.7,3.1,3.1,0,0,1-1.191-.977,2.336,2.336,0,0,1-.386-1.348,2.741,2.741,0,0,1,1.1-2.2,4.291,4.291,0,0,1,2.808-.9,4.415,4.415,0,0,1,2.915.928A2.947,2.947,0,0,1,89.18-7.461H87.363a1.631,1.631,0,0,0-.63-1.279,2.36,2.36,0,0,0-1.587-.537,2.47,2.47,0,0,0-1.543.43,1.353,1.353,0,0,0-.557,1.123,1.1,1.1,0,0,0,.518.986,6.368,6.368,0,0,0,1.87.635,9.744,9.744,0,0,1,2.192.723A3.2,3.2,0,0,1,88.872-4.37a2.485,2.485,0,0,1,.405,1.44A2.7,2.7,0,0,1,88.145-.659,4.752,4.752,0,0,1,85.205.2a5.321,5.321,0,0,1-2.246-.449,3.653,3.653,0,0,1-1.528-1.255,3.025,3.025,0,0,1-.552-1.743h1.807a1.87,1.87,0,0,0,.728,1.44,2.822,2.822,0,0,0,1.792.532,2.913,2.913,0,0,0,1.646-.415A1.275,1.275,0,0,0,87.471-2.8Zm8.545,3a4.617,4.617,0,0,1-3.5-1.411A5.237,5.237,0,0,1,91.172-4.99v-.332a6.341,6.341,0,0,1,.6-2.808,4.685,4.685,0,0,1,1.68-1.934,4.223,4.223,0,0,1,2.339-.7,3.957,3.957,0,0,1,3.2,1.357,5.877,5.877,0,0,1,1.143,3.887v.752H92.979a3.756,3.756,0,0,0,.913,2.524,2.87,2.87,0,0,0,2.222.962,3.147,3.147,0,0,0,1.621-.391A4.073,4.073,0,0,0,98.9-2.705l1.1.859A4.437,4.437,0,0,1,96.016.2Zm-.225-9.473a2.41,2.41,0,0,0-1.836.8,3.869,3.869,0,0,0-.918,2.231H98.33v-.137a3.441,3.441,0,0,0-.742-2.134A2.269,2.269,0,0,0,95.791-9.277Zm13.086-1.289.049,1.172a3.9,3.9,0,0,1,3.135-1.367,3.021,3.021,0,0,1,3.018,1.7,4,4,0,0,1,1.372-1.23,4.052,4.052,0,0,1,2-.469q3.477,0,3.535,3.682V0h-1.807V-6.973a2.426,2.426,0,0,0-.518-1.694,2.279,2.279,0,0,0-1.738-.562,2.4,2.4,0,0,0-1.67.6,2.436,2.436,0,0,0-.771,1.616V0h-1.816V-6.924a2.016,2.016,0,0,0-2.256-2.3,2.417,2.417,0,0,0-2.432,1.514V0h-1.807V-10.566ZM126.67,0h-1.807V-10.566h1.807Zm-1.953-13.369a1.078,1.078,0,0,1,.269-.742,1.008,1.008,0,0,1,.8-.3,1.024,1.024,0,0,1,.8.3,1.067,1.067,0,0,1,.273.742,1.032,1.032,0,0,1-.273.732,1.043,1.043,0,0,1-.8.293,1.026,1.026,0,0,1-.8-.293A1.043,1.043,0,0,1,124.717-13.369Zm13.789,8.2a6.283,6.283,0,0,1-1.113,3.892A3.557,3.557,0,0,1,134.4.2a3.683,3.683,0,0,1-3.1-1.416L131.221,0h-1.66V-15h1.807v5.6a3.663,3.663,0,0,1,3.018-1.357,3.579,3.579,0,0,1,3.022,1.455,6.471,6.471,0,0,1,1.1,3.984ZM136.7-5.371a4.882,4.882,0,0,0-.713-2.852,2.36,2.36,0,0,0-2.051-1.006,2.652,2.652,0,0,0-2.568,1.66V-3a2.727,2.727,0,0,0,2.588,1.66,2.347,2.347,0,0,0,2.021-1.006A5.192,5.192,0,0,0,136.7-5.371ZM147.3,0a3.8,3.8,0,0,1-.254-1.113A4.031,4.031,0,0,1,144.043.2a3.73,3.73,0,0,1-2.563-.884,2.859,2.859,0,0,1-1-2.241,2.987,2.987,0,0,1,1.255-2.563,5.916,5.916,0,0,1,3.53-.913h1.758v-.83a2.029,2.029,0,0,0-.566-1.509,2.276,2.276,0,0,0-1.67-.562,2.634,2.634,0,0,0-1.621.488,1.439,1.439,0,0,0-.654,1.182h-1.816a2.493,2.493,0,0,1,.562-1.528,3.832,3.832,0,0,1,1.523-1.167,5.125,5.125,0,0,1,2.114-.43,4.177,4.177,0,0,1,2.861.913,3.294,3.294,0,0,1,1.074,2.515v4.863A5.946,5.946,0,0,0,149.2-.156V0Zm-3-1.377a3.175,3.175,0,0,0,1.611-.439,2.658,2.658,0,0,0,1.1-1.143V-5.127h-1.416q-3.32,0-3.32,1.943a1.645,1.645,0,0,0,.566,1.328A2.177,2.177,0,0,0,144.307-1.377ZM157.813-2.8a1.33,1.33,0,0,0-.552-1.138,5.311,5.311,0,0,0-1.924-.7,9.1,9.1,0,0,1-2.178-.7,3.1,3.1,0,0,1-1.191-.977,2.336,2.336,0,0,1-.386-1.348,2.741,2.741,0,0,1,1.1-2.2,4.291,4.291,0,0,1,2.808-.9,4.415,4.415,0,0,1,2.915.928,2.947,2.947,0,0,1,1.118,2.373h-1.816a1.631,1.631,0,0,0-.63-1.279,2.36,2.36,0,0,0-1.587-.537,2.47,2.47,0,0,0-1.543.43,1.353,1.353,0,0,0-.557,1.123,1.1,1.1,0,0,0,.518.986,6.368,6.368,0,0,0,1.87.635,9.744,9.744,0,0,1,2.192.723,3.2,3.2,0,0,1,1.245,1.011,2.485,2.485,0,0,1,.405,1.44,2.7,2.7,0,0,1-1.133,2.271A4.752,4.752,0,0,1,155.547.2,5.321,5.321,0,0,1,153.3-.254a3.653,3.653,0,0,1-1.528-1.255,3.025,3.025,0,0,1-.552-1.743h1.807a1.87,1.87,0,0,0,.728,1.44,2.822,2.822,0,0,0,1.792.532,2.913,2.913,0,0,0,1.646-.415A1.275,1.275,0,0,0,157.813-2.8Zm8.545,3a4.617,4.617,0,0,1-3.5-1.411,5.237,5.237,0,0,1-1.348-3.774v-.332a6.341,6.341,0,0,1,.6-2.808,4.685,4.685,0,0,1,1.68-1.934,4.223,4.223,0,0,1,2.339-.7,3.957,3.957,0,0,1,3.2,1.357,5.877,5.877,0,0,1,1.143,3.887v.752H163.32a3.756,3.756,0,0,0,.913,2.524,2.87,2.87,0,0,0,2.222.962,3.147,3.147,0,0,0,1.621-.391,4.073,4.073,0,0,0,1.162-1.035l1.1.859A4.437,4.437,0,0,1,166.357.2Zm-.225-9.473a2.41,2.41,0,0,0-1.836.8,3.868,3.868,0,0,0-.918,2.231h5.293v-.137a3.441,3.441,0,0,0-.742-2.134A2.269,2.269,0,0,0,166.133-9.277Zm6,3.906a6.19,6.19,0,0,1,1.152-3.911,3.644,3.644,0,0,1,3.018-1.479,3.665,3.665,0,0,1,2.939,1.27V-15h1.807V0h-1.66L179.3-1.133A3.679,3.679,0,0,1,176.279.2a3.609,3.609,0,0,1-2.993-1.5,6.26,6.26,0,0,1-1.157-3.926Zm1.807.205a4.687,4.687,0,0,0,.742,2.813,2.4,2.4,0,0,0,2.051,1.016,2.636,2.636,0,0,0,2.51-1.543V-7.734a2.656,2.656,0,0,0-2.49-1.494,2.411,2.411,0,0,0-2.07,1.025A5.16,5.16,0,0,0,173.936-5.166ZM190.371,0a3.8,3.8,0,0,1-.254-1.113A4.031,4.031,0,0,1,187.109.2a3.73,3.73,0,0,1-2.563-.884,2.859,2.859,0,0,1-1-2.241A2.987,2.987,0,0,1,184.8-5.493a5.916,5.916,0,0,1,3.53-.913h1.758v-.83a2.029,2.029,0,0,0-.566-1.509,2.276,2.276,0,0,0-1.67-.562,2.634,2.634,0,0,0-1.621.488,1.439,1.439,0,0,0-.654,1.182H183.76a2.493,2.493,0,0,1,.562-1.528,3.832,3.832,0,0,1,1.523-1.167,5.125,5.125,0,0,1,2.114-.43,4.177,4.177,0,0,1,2.861.913,3.294,3.294,0,0,1,1.074,2.515v4.863a5.946,5.946,0,0,0,.371,2.314V0Zm-3-1.377a3.175,3.175,0,0,0,1.611-.439,2.658,2.658,0,0,0,1.1-1.143V-5.127h-1.416q-3.32,0-3.32,1.943a1.645,1.645,0,0,0,.566,1.328A2.177,2.177,0,0,0,187.373-1.377Zm9.8-11.748v2.559h1.973v1.4h-1.973v6.561a1.467,1.467,0,0,0,.264.953,1.11,1.11,0,0,0,.9.318,4.374,4.374,0,0,0,.859-.117V0A5.268,5.268,0,0,1,197.813.2a2.25,2.25,0,0,1-1.826-.732,3.147,3.147,0,0,1-.615-2.08V-9.17h-1.924v-1.4h1.924v-2.559Zm3.408,7.744a6.241,6.241,0,0,1,.61-2.793,4.553,4.553,0,0,1,1.7-1.914,4.626,4.626,0,0,1,2.485-.674,4.456,4.456,0,0,1,3.491,1.494,5.748,5.748,0,0,1,1.333,3.975v.127a6.3,6.3,0,0,1-.591,2.769,4.486,4.486,0,0,1-1.689,1.909A4.679,4.679,0,0,1,205.4.2,4.445,4.445,0,0,1,201.919-1.3a5.719,5.719,0,0,1-1.333-3.955Zm1.816.215a4.52,4.52,0,0,0,.815,2.822A2.61,2.61,0,0,0,205.4-1.279a2.594,2.594,0,0,0,2.188-1.079,4.943,4.943,0,0,0,.811-3.022,4.513,4.513,0,0,0-.825-2.817,2.623,2.623,0,0,0-2.192-1.079,2.594,2.594,0,0,0-2.158,1.064A4.906,4.906,0,0,0,202.4-5.166ZM218.623-2.8a1.33,1.33,0,0,0-.552-1.138,5.311,5.311,0,0,0-1.924-.7,9.1,9.1,0,0,1-2.178-.7,3.1,3.1,0,0,1-1.191-.977,2.336,2.336,0,0,1-.386-1.348,2.741,2.741,0,0,1,1.1-2.2,4.291,4.291,0,0,1,2.808-.9,4.415,4.415,0,0,1,2.915.928,2.947,2.947,0,0,1,1.118,2.373h-1.816a1.631,1.631,0,0,0-.63-1.279,2.36,2.36,0,0,0-1.587-.537,2.47,2.47,0,0,0-1.543.43,1.353,1.353,0,0,0-.557,1.123,1.1,1.1,0,0,0,.518.986,6.368,6.368,0,0,0,1.87.635,9.744,9.744,0,0,1,2.192.723,3.2,3.2,0,0,1,1.245,1.011,2.485,2.485,0,0,1,.405,1.44A2.7,2.7,0,0,1,219.3-.659,4.752,4.752,0,0,1,216.357.2a5.321,5.321,0,0,1-2.246-.449,3.653,3.653,0,0,1-1.528-1.255,3.025,3.025,0,0,1-.552-1.743h1.807a1.87,1.87,0,0,0,.728,1.44,2.822,2.822,0,0,0,1.792.532A2.913,2.913,0,0,0,218-1.694,1.275,1.275,0,0,0,218.623-2.8ZM222.5-9.57a1.131,1.131,0,0,1,.278-.781,1.061,1.061,0,0,1,.835-.312,1.092,1.092,0,0,1,.845.313,1.109,1.109,0,0,1,.288.781,1.048,1.048,0,0,1-.288.752,1.112,1.112,0,0,1-.845.3,1.079,1.079,0,0,1-.835-.3A1.069,1.069,0,0,1,222.5-9.57Zm.342,12.4-1.025-.7a4.712,4.712,0,0,0,.957-2.637V-2.139h1.768V-.723a4.448,4.448,0,0,1-.483,1.973A4.618,4.618,0,0,1,222.842,2.832Z" transform="translate(61 42)" fill="#fff"/>
</svg>
