<svg xmlns="http://www.w3.org/2000/svg" width="88" height="88" viewBox="0 0 88 88">
  <g id="Grupo_24930" data-name="Grupo 24930" transform="translate(-265.855 -7300)">
    <g id="Elipse_1356" data-name="Elipse 1356" transform="translate(265.855 7300)" fill="#fff" stroke="#039be5" stroke-width="1">
      <circle cx="44" cy="44" r="44" stroke="none"/>
      <circle cx="44" cy="44" r="43.5" fill="none"/>
    </g>
    <g id="editar" transform="translate(292.829 7322.249)">
      <path id="Trazado_9124" data-name="Trazado 9124" d="M310.045,12.386a3.4,3.4,0,0,1,0,4.807l-1.717,1.717-5.948-5.948,1.717-1.717a3.4,3.4,0,0,1,4.809,0Zm0,0" transform="translate(-273.005 -9.28)" fill="#00acea"/>
      <path id="Trazado_9125" data-name="Trazado 9125" d="M163.725,44.128,148.168,59.686h0l-5.948-5.948L157.777,38.18Zm0,0" transform="translate(-128.403 -34.497)" fill="#00efd1"/>
      <path id="Trazado_9126" data-name="Trazado 9126" d="M120.526,198.34l5.948,5.948-.055.055-8.227,2.279,2.279-8.227Zm0,0" transform="translate(-106.71 -179.099)" fill="#fedb41"/>
      <g id="Grupo_24923" data-name="Grupo 24923" transform="translate(0 0)">
        <path id="Trazado_9127" data-name="Trazado 9127" d="M36,59.735a.971.971,0,0,0-.971.971v8.625a2.918,2.918,0,0,1-2.914,2.914H4.857a2.918,2.918,0,0,1-2.914-2.914V44.017A2.918,2.918,0,0,1,4.857,41.1h8.625a.971.971,0,0,0,0-1.943H4.857A4.863,4.863,0,0,0,0,44.017V69.332a4.863,4.863,0,0,0,4.857,4.857H32.115a4.863,4.863,0,0,0,4.857-4.857V60.707A.971.971,0,0,0,36,59.735Zm0,0" transform="translate(0 -35.382)" fill="#083863"/>
        <path id="Trazado_9128" data-name="Trazado 9128" d="M134.267,1.548a4.377,4.377,0,0,0-6.183,0L110.753,18.879a.976.976,0,0,0-.249.427l-2.279,8.227a.971.971,0,0,0,1.2,1.2l8.227-2.279a.973.973,0,0,0,.428-.25l.055-.055L135.406,8.87a4.37,4.37,0,0,0,0-6.181Zm-22.312,19.8L115.61,25l-5.055,1.4Zm5.489,4.115h0l.633.633Zm0-1.374-4.575-4.575L127.054,5.326,131.628,9.9ZM134.033,7.5,133,8.527l-4.574-4.574,1.031-1.031a2.431,2.431,0,0,1,3.434,0l1.14,1.141A2.427,2.427,0,0,1,134.033,7.5Zm0,0" transform="translate(-97.68 -0.27)" fill="#083863"/>
      </g>
    </g>
  </g>
</svg>
