<svg xmlns="http://www.w3.org/2000/svg" width="87" height="87" viewBox="0 0 87 87">
  <g id="Grupo_24937" data-name="Grupo 24937" transform="translate(-266 -7518)">
    <g id="Grupo_24929" data-name="Grupo 24929" transform="translate(266 7518)">
      <g id="Elipse_1357" data-name="Elipse 1357" fill="#fff" stroke="#039be5" stroke-width="1">
        <circle cx="43.5" cy="43.5" r="43.5" stroke="none"/>
        <circle cx="43.5" cy="43.5" r="43" fill="none"/>
      </g>
    </g>
    <g id="expediente" transform="translate(291.367 7537.242)">
      <g id="Grupo_24935" data-name="Grupo 24935" transform="translate(0.718 0.723)">
        <path id="Trazado_9144" data-name="Trazado 9144" d="M72.693,21.384v25.44a3.855,3.855,0,0,1-3.855,3.855H42.332a3.855,3.855,0,0,1-3.855-3.855V11.355A3.855,3.855,0,0,1,42.332,7.5h16.5a2.892,2.892,0,0,1,2.047.849L71.848,19.341A2.892,2.892,0,0,1,72.693,21.384Z" transform="translate(-38.477 -7.5)" fill="#00acea"/>
        <path id="Trazado_9145" data-name="Trazado 9145" d="M247.669,21.384v1.7H237.615a5.507,5.507,0,0,1-5.5-5.5V7.5h1.692a2.892,2.892,0,0,1,2.046.849l10.969,10.992A2.89,2.89,0,0,1,247.669,21.384Z" transform="translate(-213.454 -7.5)" fill="#00acea"/>
        <path id="Trazado_9146" data-name="Trazado 9146" d="M45.224,50.679H42.332a3.855,3.855,0,0,1-3.855-3.855V11.355A3.855,3.855,0,0,1,42.332,7.5h2.891a3.855,3.855,0,0,0-3.855,3.855V46.824A3.855,3.855,0,0,0,45.224,50.679Z" transform="translate(-38.477 -7.5)" fill="#00acea"/>
        <g id="Grupo_24933" data-name="Grupo 24933" transform="translate(4.617 0.262)">
          <path id="Trazado_9147" data-name="Trazado 9147" d="M101.03,143.946H89.108a.723.723,0,1,1,0-1.446H101.03a.723.723,0,1,1,0,1.446Z" transform="translate(-88.192 -129.751)" fill="#a29aa5"/>
          <path id="Trazado_9148" data-name="Trazado 9148" d="M101.03,323.946H89.108a.723.723,0,1,1,0-1.446H101.03a.723.723,0,1,1,0,1.446Z" transform="translate(-88.192 -292.402)" fill="#a29aa5"/>
          <path id="Trazado_9149" data-name="Trazado 9149" d="M108.7,203.946H87.108a.723.723,0,0,1,0-1.446H108.7a.723.723,0,1,1,0,1.446Z" transform="translate(-86.385 -183.968)" fill="#a29aa5"/>
          <path id="Trazado_9150" data-name="Trazado 9150" d="M108.7,263.946H87.108a.723.723,0,0,1,0-1.446H108.7a.723.723,0,1,1,0,1.446Z" transform="translate(-86.385 -238.185)" fill="#a29aa5"/>
          <path id="Trazado_9151" data-name="Trazado 9151" d="M274.518,22.646h-9.8a2.61,2.61,0,0,1-2.606-2.612V10.22a2.851,2.851,0,0,1,.847.587L273.933,21.8A2.875,2.875,0,0,1,274.518,22.646Z" transform="translate(-245.18 -10.22)" fill="#00efd1"/>
        </g>
        <ellipse id="Elipse_1358" data-name="Elipse 1358" cx="9.784" cy="9.783" rx="9.784" ry="9.783" transform="translate(22.358 28.336)" fill="#00efd1"/>
        <path id="Trazado_9152" data-name="Trazado 9152" d="M288.055,335.63a9.783,9.783,0,1,1-13.7-13.7,9.783,9.783,0,0,0,13.7,13.7Z" transform="translate(-248.098 -291.625)" fill="#00efd1"/>
        <g id="Grupo_24934" data-name="Grupo 24934" transform="translate(27.938 33.913)">
          <path id="Trazado_9153" data-name="Trazado 9153" d="M336.33,367.353a1.446,1.446,0,0,1-2.045,0l-1.738-1.738-1.738,1.738a1.446,1.446,0,0,1-2.045-2.044l1.738-1.738-1.738-1.738a1.446,1.446,0,0,1,2.045-2.045l1.738,1.738,1.738-1.738a1.446,1.446,0,0,1,2.045,2.045l-1.738,1.738,1.738,1.738A1.446,1.446,0,0,1,336.33,367.353Z" transform="translate(-328.342 -359.365)" fill="#f9f8f9"/>
        </g>
      </g>
      <g id="Grupo_24936" data-name="Grupo 24936">
        <path id="Trazado_9154" data-name="Trazado 9154" d="M31.746,10.747a.723.723,0,0,0,.723-.723V4.578A3.136,3.136,0,0,1,35.6,1.446h8.14a.723.723,0,0,0,0-1.446H35.6a4.583,4.583,0,0,0-4.578,4.578v5.446A.723.723,0,0,0,31.746,10.747Z" transform="translate(-31.023)"/>
        <path id="Trazado_9155" data-name="Trazado 9155" d="M38.826,162H35.6a3.136,3.136,0,0,1-3.132-3.132v-26.65a.723.723,0,0,0-1.446,0v26.65a4.583,4.583,0,0,0,4.578,4.578h3.224a.723.723,0,0,0,0-1.446Z" transform="translate(-31.023 -118.826)"/>
        <path id="Trazado_9156" data-name="Trazado 9156" d="M101.076,142.5H89.154a.723.723,0,1,0,0,1.446h11.922a.723.723,0,1,0,0-1.446Z" transform="translate(-82.898 -128.766)"/>
        <path id="Trazado_9157" data-name="Trazado 9157" d="M89.154,322.5a.723.723,0,1,0,0,1.446h11.922a.723.723,0,1,0,0-1.446Z" transform="translate(-82.898 -291.417)"/>
        <path id="Trazado_9158" data-name="Trazado 9158" d="M108.743,202.5H87.154a.723.723,0,0,0,0,1.446h21.59a.723.723,0,1,0,0-1.446Z" transform="translate(-81.091 -182.983)"/>
        <path id="Trazado_9159" data-name="Trazado 9159" d="M109.466,263.223a.723.723,0,0,0-.723-.723H87.154a.723.723,0,1,0,0,1.446h21.59A.723.723,0,0,0,109.466,263.223Z" transform="translate(-81.091 -237.2)"/>
        <path id="Trazado_9160" data-name="Trazado 9160" d="M164.685,28.716V14.606a3.591,3.591,0,0,0-1.056-2.553L152.661,1.061A3.59,3.59,0,0,0,150.1,0h-4.987a.723.723,0,1,0,0,1.446H150.1a2.181,2.181,0,0,1,.477.054v9.3a3.336,3.336,0,0,0,3.329,3.335h9.278a2.181,2.181,0,0,1,.053.473V28.423a10.515,10.515,0,0,0-10.95,6.136.723.723,0,0,0,1.32.59,9.066,9.066,0,0,1,10.2-5.16h0a9.06,9.06,0,1,1-10.992,8.852c0-.221.008-.445.024-.665a.723.723,0,0,0-1.442-.1c-.018.255-.028.514-.028.769a10.445,10.445,0,0,0,.938,4.337H140.2a.723.723,0,0,0,0,1.446h12.92a10.5,10.5,0,1,0,11.566-15.909ZM152.025,10.8V2.471l10.2,10.217h-8.312A1.889,1.889,0,0,1,152.025,10.8Z" transform="translate(-129.024 0)"/>
        <path id="Trazado_9161" data-name="Trazado 9161" d="M320.841,359.592a2.155,2.155,0,0,0,.635,1.533,2.18,2.18,0,0,0,3.067,0l1.227-1.227L327,361.126a2.179,2.179,0,0,0,3.067,0h0a2.179,2.179,0,0,0,0-3.067l-1.227-1.227,1.227-1.227A2.169,2.169,0,1,0,327,352.539l-1.227,1.227-1.227-1.227a2.169,2.169,0,0,0-3.067,3.067l1.227,1.227-1.227,1.227A2.154,2.154,0,0,0,320.841,359.592Zm1.657-.511,1.738-1.738a.723.723,0,0,0,0-1.022l-1.738-1.738a.723.723,0,0,1,1.022-1.022l1.738,1.738a.723.723,0,0,0,1.022,0l1.738-1.738a.723.723,0,1,1,1.022,1.022l-1.738,1.738a.723.723,0,0,0,0,1.022l1.738,1.738a.727.727,0,0,1,0,1.022h0a.723.723,0,0,1-1.022,0l-1.738-1.738a.723.723,0,0,0-1.022,0l-1.738,1.738a.723.723,0,1,1-1.022-1.022Z" transform="translate(-292.908 -317.99)"/>
      </g>
    </g>
  </g>
</svg>
