<svg id="Componente_3_1" data-name="Componente 3 – 1" xmlns="http://www.w3.org/2000/svg" width="88" height="88" viewBox="0 0 88 88">
  <g id="Grupo_24941" data-name="Grupo 24941" transform="translate(-266 -7066)">
    <g id="Elipse_1355" data-name="Elipse 1355" transform="translate(266 7066)" fill="#fff" stroke="#039be5" stroke-width="1">
      <circle cx="44" cy="44" r="44" stroke="none"/>
      <circle cx="44" cy="44" r="43.5" fill="none"/>
    </g>
  </g>
  <g id="surface1" transform="translate(28.449 22.804)">
    <path id="Trazado_9200" data-name="Trazado 9200" d="M195.712,229.329a11.211,11.211,0,1,1-1.569-.115A13.285,13.285,0,0,1,195.712,229.329Zm0,0" transform="translate(-167.792 -210.278)" fill="#00efd1"/>
    <path id="Trazado_9201" data-name="Trazado 9201" d="M37.316,28.938a11.562,11.562,0,0,0-1.569-.106,11.244,11.244,0,0,0-9.882,16.6l-.018.009H14.122a3.879,3.879,0,0,1-3.879-3.879V14.656a3.879,3.879,0,0,1,3.879-3.879H28.35V17.2a3,3,0,0,0,3,3h5.968Zm0,0" transform="translate(-9.396 -9.887)" fill="#00acea"/>
    <path id="Trazado_9202" data-name="Trazado 9202" d="M229.43,10.777l8.966,9.415h-5.968a3,3,0,0,1-3-3Zm0,0" transform="translate(-210.476 -9.887)" fill="#00efd1"/>
    <path id="Trazado_9203" data-name="Trazado 9203" d="M28.828,18.311v-8a.926.926,0,0,0-.256-.608L19.6.273A.9.9,0,0,0,18.954,0H4.725A4.741,4.741,0,0,0,0,4.769V31.675A4.711,4.711,0,0,0,4.725,36.41H15.957A11.986,11.986,0,0,0,26.351,42.3a12.12,12.12,0,0,0,2.477-23.988ZM19.836,3.094l6.021,6.338H21.951a2.13,2.13,0,0,1-2.116-2.124V3.094ZM1.763,31.675V4.769A2.978,2.978,0,0,1,4.725,1.763H18.072V7.308A3.887,3.887,0,0,0,21.951,11.2h5.113v6.885c-.265-.009-.476-.044-.705-.044a12.3,12.3,0,0,0-8.04,3.033H7.123a.882.882,0,0,0,0,1.763H16.68a14.026,14.026,0,0,0-1.552,2.733h-8a.881.881,0,1,0,0,1.763h7.432a11.868,11.868,0,0,0-.335,2.839,12.072,12.072,0,0,0,.855,4.478H4.725A2.954,2.954,0,0,1,1.763,31.675Zm24.587,8.869a10.359,10.359,0,1,1-.009-20.717,11.281,11.281,0,0,1,1.446.1,10.361,10.361,0,0,1-1.437,20.62Zm0,0" fill="#083863"/>
    <path id="Trazado_9204" data-name="Trazado 9204" d="M76.432,203.447h8.93a.882.882,0,1,0,0-1.763h-8.93a.882.882,0,1,0,0,1.763Zm0,0" transform="translate(-69.309 -185.022)" fill="#083863"/>
    <path id="Trazado_9205" data-name="Trazado 9205" d="M272.619,315.112h-2.7V312.37a.882.882,0,0,0-1.763,0v2.742h-2.742a.882.882,0,1,0,0,1.763h2.742v2.7a.882.882,0,1,0,1.763,0v-2.7h2.7a.882.882,0,0,0,0-1.763Zm0,0" transform="translate(-242.681 -285.755)" fill="#083863"/>
  </g>
</svg>
