<svg xmlns="http://www.w3.org/2000/svg" width="88" height="88" viewBox="0 0 88 88">
  <g id="Grupo_25018" data-name="Grupo 25018" transform="translate(-236 -886)">
    <g id="Grupo_24963" data-name="Grupo 24963" transform="translate(0 -13)">
      <g id="Grupo_24942" data-name="Grupo 24942" transform="translate(-30 -6167)">
        <g id="Elipse_1355" data-name="Elipse 1355" transform="translate(266 7066)" fill="#fff" stroke="#039be5" stroke-width="1">
          <circle cx="44" cy="44" r="44" stroke="none"/>
          <circle cx="44" cy="44" r="43.5" fill="none"/>
        </g>
      </g>
    </g>
    <g id="miembros" transform="translate(255 901.27)">
      <g id="Grupo_25014" data-name="Grupo 25014" transform="translate(0 0)">
        <g id="Grupo_24994" data-name="Grupo 24994" transform="translate(0 16.321)">
          <g id="Grupo_24974" data-name="Grupo 24974" transform="translate(0 5.722)">
            <g id="Grupo_24966" data-name="Grupo 24966" transform="translate(0 14.139)">
              <path id="Trazado_9224" data-name="Trazado 9224" d="M21.11,333.848l-6.332-2.96H12.449l-6.332,2.96A1.945,1.945,0,0,0,5,335.612v8.338H22.227v-8.338A1.945,1.945,0,0,0,21.11,333.848Z" transform="translate(-4.445 -330.333)" fill="#fff"/>
              <path id="Trazado_9225" data-name="Trazado 9225" d="M17.783,340.06H.555A.555.555,0,0,1,0,339.505v-8.338A2.509,2.509,0,0,1,1.437,328.9l6.332-2.96A.556.556,0,0,1,8,325.888h2.329a.556.556,0,0,1,.235.052L16.9,328.9a2.508,2.508,0,0,1,1.437,2.266v8.338a.555.555,0,0,1-.555.555ZM1.11,338.95H17.227v-7.783a1.394,1.394,0,0,0-.8-1.261L10.21,327H8.128l-6.221,2.908a1.394,1.394,0,0,0-.8,1.261Z" transform="translate(0 -325.888)" fill="#093568"/>
            </g>
            <g id="Grupo_24967" data-name="Grupo 24967" transform="translate(0.555 14.694)">
              <path id="Trazado_9226" data-name="Trazado 9226" d="M21.11,333.848l-6.332-2.96H12.449l-6.332,2.96A1.945,1.945,0,0,0,5,335.612v8.338H22.227v-8.338A1.945,1.945,0,0,0,21.11,333.848Z" transform="translate(-5 -330.888)" fill="#00efd1"/>
            </g>
            <g id="Grupo_24968" data-name="Grupo 24968" transform="translate(0.555 14.694)">
              <path id="Trazado_9227" data-name="Trazado 9227" d="M14.39,330.888H12.449l-6.332,2.96A1.945,1.945,0,0,0,5,335.612v8.338H6.443V336.5a1.945,1.945,0,0,1,1.117-1.763l6.332-2.96h.5Z" transform="translate(-5 -330.888)" fill="#00efd1"/>
            </g>
            <g id="Grupo_24969" data-name="Grupo 24969" transform="translate(6.84 10.232)">
              <path id="Trazado_9228" data-name="Trazado 9228" d="M63.939,298.726A2.329,2.329,0,0,1,61.61,296.4v-5.7h4.657v5.7A2.329,2.329,0,0,1,63.939,298.726Z" transform="translate(-61.61 -290.694)" fill="#fdd2b5"/>
            </g>
            <g id="Grupo_24970" data-name="Grupo 24970" transform="translate(4.496 2.262)">
              <path id="Trazado_9229" data-name="Trazado 9229" d="M45.167,230.715a4.673,4.673,0,0,1-4.673-4.673v-5.2a1.928,1.928,0,0,1,1.928-1.928h5.489a1.928,1.928,0,0,1,1.928,1.928v5.2A4.673,4.673,0,0,1,45.167,230.715Z" transform="translate(-40.494 -218.912)" fill="#fdd2b5"/>
            </g>
            <g id="Grupo_24971" data-name="Grupo 24971" transform="translate(4.496 2.262)">
              <path id="Trazado_9230" data-name="Trazado 9230" d="M42.492,226.043v-5.2a1.928,1.928,0,0,1,1.928-1.928h-2a1.928,1.928,0,0,0-1.928,1.928v5.2a4.672,4.672,0,0,0,5.672,4.565A4.674,4.674,0,0,1,42.492,226.043Z" transform="translate(-40.494 -218.912)" fill="#f9b995"/>
            </g>
            <g id="Grupo_24972" data-name="Grupo 24972" transform="translate(3.176)">
              <path id="Trazado_9231" data-name="Trazado 9231" d="M38.543,198.538l-5.745.021-.857.754-.854-.75a2.415,2.415,0,0,0-2.413,2.364l-.071,3.23a2.418,2.418,0,0,0,.9,1.938l.471.378,1.676-4.545c3.219,3.1,6.2,2.486,8.032,1.539a2.644,2.644,0,0,0,1.339-3.1A2.592,2.592,0,0,0,38.543,198.538Z" transform="translate(-28.602 -198.538)" fill="#fbab68"/>
            </g>
            <g id="Grupo_24973" data-name="Grupo 24973" transform="translate(3.176 0.025)">
              <path id="Trazado_9232" data-name="Trazado 9232" d="M30.379,204.358l.071-3.23a2.415,2.415,0,0,1,1.088-1.967l-.452-.4a2.415,2.415,0,0,0-2.413,2.364l-.071,3.23a2.418,2.418,0,0,0,.9,1.938l.471.378.54-1.463A2.419,2.419,0,0,1,30.379,204.358Z" transform="translate(-28.602 -198.764)" fill="#ea8e49"/>
            </g>
          </g>
          <g id="Grupo_24982" data-name="Grupo 24982" transform="translate(34.622 5.722)">
            <g id="Grupo_24975" data-name="Grupo 24975" transform="translate(0 14.694)">
              <path id="Trazado_9233" data-name="Trazado 9233" d="M327.944,333.848l-6.332-2.96h-2.329l-6.332,2.96a1.945,1.945,0,0,0-1.117,1.763v8.338h17.227v-8.338A1.945,1.945,0,0,0,327.944,333.848Z" transform="translate(-311.834 -330.888)" fill="#00efd1"/>
            </g>
            <g id="Grupo_24977" data-name="Grupo 24977" transform="translate(6.285 10.232)">
              <path id="Trazado_9235" data-name="Trazado 9235" d="M370.773,298.726a2.329,2.329,0,0,1-2.329-2.328v-5.7H373.1v5.7A2.329,2.329,0,0,1,370.773,298.726Z" transform="translate(-368.444 -290.694)" fill="#fdd2b5"/>
            </g>
            <g id="Grupo_24978" data-name="Grupo 24978" transform="translate(3.941 2.262)">
              <path id="Trazado_9236" data-name="Trazado 9236" d="M352,230.715a4.673,4.673,0,0,1-4.673-4.673v-5.2a1.928,1.928,0,0,1,1.928-1.928h5.489a1.928,1.928,0,0,1,1.928,1.928v5.2A4.673,4.673,0,0,1,352,230.715Z" transform="translate(-347.328 -218.912)" fill="#fdd2b5"/>
            </g>
            <g id="Grupo_24979" data-name="Grupo 24979" transform="translate(3.941 2.262)">
              <path id="Trazado_9237" data-name="Trazado 9237" d="M349.328,226.043v-5.2a1.928,1.928,0,0,1,1.928-1.928h-2a1.928,1.928,0,0,0-1.928,1.928v5.2A4.672,4.672,0,0,0,353,230.607,4.674,4.674,0,0,1,349.328,226.043Z" transform="translate(-347.329 -218.912)" fill="#f9b995"/>
            </g>
            <g id="Grupo_24980" data-name="Grupo 24980" transform="translate(2.62)">
              <path id="Trazado_9238" data-name="Trazado 9238" d="M345.377,198.538l-5.745.021-.857.754-.854-.75a2.415,2.415,0,0,0-2.413,2.364l-.071,3.23a2.418,2.418,0,0,0,.9,1.938l.471.378,1.677-4.545c3.219,3.1,6.2,2.486,8.032,1.539a2.644,2.644,0,0,0,1.339-3.1A2.592,2.592,0,0,0,345.377,198.538Z" transform="translate(-335.436 -198.538)" fill="#fbab68"/>
            </g>
            <g id="Grupo_24981" data-name="Grupo 24981" transform="translate(2.62 0.025)">
              <path id="Trazado_9239" data-name="Trazado 9239" d="M337.213,204.358l.071-3.23a2.415,2.415,0,0,1,1.088-1.967l-.452-.4a2.415,2.415,0,0,0-2.413,2.364l-.071,3.23a2.418,2.418,0,0,0,.9,1.938l.471.378.54-1.463A2.419,2.419,0,0,1,337.213,204.358Z" transform="translate(-335.436 -198.764)" fill="#ea8e49"/>
            </g>
          </g>
          <g id="Grupo_24993" data-name="Grupo 24993" transform="translate(14.702)">
            <g id="Grupo_24986" data-name="Grupo 24986" transform="translate(0 18.355)">
              <g id="Grupo_24983" data-name="Grupo 24983" transform="translate(0)">
                <path id="Trazado_9240" data-name="Trazado 9240" d="M153.932,316.212l-8.454-3.892h-3.109l-8.454,3.892a2.555,2.555,0,0,0-1.491,2.318v10.963h23V318.531a2.554,2.554,0,0,0-1.491-2.318Z" transform="translate(-132.424 -312.32)" fill="#00acea"/>
              </g>
              <g id="Grupo_24984" data-name="Grupo 24984">
                <path id="Trazado_9241" data-name="Trazado 9241" d="M144.509,312.32h-2.14l-8.454,3.892a2.555,2.555,0,0,0-1.491,2.318v10.963h1.554V319.419a2.554,2.554,0,0,1,1.491-2.318l8.454-3.892h.585v-.888Z" transform="translate(-132.424 -312.32)" fill="#48c4ef"/>
              </g>
              <g id="Grupo_24985" data-name="Grupo 24985" transform="translate(21.112 13.357)">
                <path id="Trazado_9242" data-name="Trazado 9242" d="M322.575,433.571V435.5a.944.944,0,0,0,1.887,0v-1.929a.944.944,0,1,0-1.887,0Z" transform="translate(-322.575 -432.627)" fill="#fff"/>
              </g>
            </g>
            <path id="Trazado_9243" data-name="Trazado 9243" d="M211.109,270.035A3.109,3.109,0,0,1,208,266.926v-7.451h6.217v7.451A3.109,3.109,0,0,1,211.109,270.035Z" transform="translate(-199.609 -246.988)" fill="#fdd2b5"/>
            <g id="Grupo_24989" data-name="Grupo 24989" transform="translate(5.261 2.01)">
              <g id="Grupo_24987" data-name="Grupo 24987">
                <path id="Trazado_9244" data-name="Trazado 9244" d="M186.049,180.619a6.216,6.216,0,0,1-6.239-6.193v-6.77a2.565,2.565,0,0,1,2.574-2.556h7.328a2.565,2.565,0,0,1,2.574,2.556v6.77A6.216,6.216,0,0,1,186.049,180.619Z" transform="translate(-179.81 -165.101)" fill="#fdd2b5"/>
              </g>
              <g id="Grupo_24988" data-name="Grupo 24988" transform="translate(0)">
                <path id="Trazado_9245" data-name="Trazado 9245" d="M181.587,174.426v-6.77a2.565,2.565,0,0,1,2.574-2.556h-1.776a2.565,2.565,0,0,0-2.574,2.556v6.77a6.216,6.216,0,0,0,6.238,6.193,6.333,6.333,0,0,0,.888-.064A6.208,6.208,0,0,1,181.587,174.426Z" transform="translate(-179.811 -165.101)" fill="#f9b995"/>
              </g>
            </g>
            <g id="Grupo_24992" data-name="Grupo 24992" transform="translate(3.536)">
              <g id="Grupo_24990" data-name="Grupo 24990">
                <path id="Trazado_9246" data-name="Trazado 9246" d="M164.37,150.75l-.094,4.165a3.174,3.174,0,0,0,1.21,2.562l.614.485,2.227-5.932a6.81,6.81,0,0,0,7.824,0l2.326,5.932a4.734,4.734,0,0,0,1.763-3.73v-.062A7.27,7.27,0,0,0,172.95,147a4.557,4.557,0,0,0-3.6,1.757l-.217.279-1.554-1.4A3.2,3.2,0,0,0,164.37,150.75Z" transform="translate(-164.276 -147.001)" fill="#fbab68"/>
              </g>
              <g id="Grupo_24991" data-name="Grupo 24991" transform="translate(0 0.637)">
                <path id="Trazado_9247" data-name="Trazado 9247" d="M166.164,160.016l.094-4.165a3.18,3.18,0,0,1,1.721-2.75l-.4-.362a3.2,3.2,0,0,0-3.206,3.112l-.094,4.165a3.174,3.174,0,0,0,1.21,2.562l.614.485.51-1.358A3.165,3.165,0,0,1,166.164,160.016Z" transform="translate(-164.276 -152.739)" fill="#ea8e49"/>
              </g>
            </g>
          </g>
        </g>
        <g id="Grupo_25007" data-name="Grupo 25007" transform="translate(4.734 3.603)">
          <g id="Grupo_24998" data-name="Grupo 24998" transform="translate(16.982)">
            <g id="Grupo_24995" data-name="Grupo 24995">
              <path id="Trazado_9248" data-name="Trazado 9248" d="M200.028,40.12l2.222,1.254a.444.444,0,0,0,.657-.457l-.432-2.706,1.86-1.946a.444.444,0,0,0-.253-.746l-2.542-.4-1.109-2.412a.444.444,0,0,0-.807,0l-1.109,2.412-2.542.4a.444.444,0,0,0-.253.746l1.86,1.946-.432,2.706a.444.444,0,0,0,.657.457Z" transform="translate(-195.598 -32.453)" fill="#00efd1"/>
            </g>
          </g>
          <g id="Grupo_25002" data-name="Grupo 25002" transform="translate(0 5.551)">
            <g id="Grupo_24999" data-name="Grupo 24999">
              <path id="Trazado_9251" data-name="Trazado 9251" d="M47.072,90.12l2.222,1.254a.444.444,0,0,0,.657-.457l-.432-2.706,1.86-1.946a.444.444,0,0,0-.253-.746l-2.542-.4-1.109-2.412a.444.444,0,0,0-.807,0L45.56,85.123l-2.542.4a.444.444,0,0,0-.253.746l1.86,1.946-.432,2.706a.444.444,0,0,0,.657.457Z" transform="translate(-42.642 -82.453)" fill="#00efd1"/>
            </g>
          </g>
          <g id="Grupo_25006" data-name="Grupo 25006" transform="translate(34.071 5.551)">
            <g id="Grupo_25003" data-name="Grupo 25003">
              <path id="Trazado_9254" data-name="Trazado 9254" d="M353.945,90.12l2.222,1.254a.444.444,0,0,0,.657-.457l-.432-2.706,1.86-1.946A.444.444,0,0,0,358,85.52l-2.542-.4-1.109-2.412a.444.444,0,0,0-.807,0l-1.109,2.412-2.542.4a.444.444,0,0,0-.253.746l1.86,1.946-.432,2.706a.444.444,0,0,0,.657.457Z" transform="translate(-349.515 -82.453)" fill="#00acea"/>
            </g>
          </g>
        </g>
        <g id="Grupo_25008" data-name="Grupo 25008" transform="translate(34.79)">
          <path id="Trazado_9257" data-name="Trazado 9257" d="M333.233,0a.555.555,0,0,0-.555.555v.738a.555.555,0,0,0,1.11,0V.555A.555.555,0,0,0,333.233,0Z" transform="translate(-330.533)" fill="#093568"/>
          <path id="Trazado_9258" data-name="Trazado 9258" d="M333.233,33a.555.555,0,0,0-.555.555v.627a.555.555,0,0,0,1.11,0v-.627A.555.555,0,0,0,333.233,33Z" transform="translate(-330.533 -29.336)" fill="#093568"/>
          <path id="Trazado_9259" data-name="Trazado 9259" d="M347.537,19.322h-.627a.555.555,0,0,0,0,1.11h.627a.555.555,0,1,0,0-1.11Z" transform="translate(-342.691 -17.177)" fill="#093568"/>
          <path id="Trazado_9260" data-name="Trazado 9260" d="M314.537,19.322h-.627a.555.555,0,0,0,0,1.11h.627a.555.555,0,0,0,0-1.11Z" transform="translate(-313.355 -17.177)" fill="#093568"/>
        </g>
        <g id="Grupo_25009" data-name="Grupo 25009" transform="translate(11.475)">
          <path id="Trazado_9261" data-name="Trazado 9261" d="M123.233,0a.555.555,0,0,0-.555.555v.738a.555.555,0,1,0,1.11,0V.555A.555.555,0,0,0,123.233,0Z" transform="translate(-120.533)" fill="#093568"/>
          <path id="Trazado_9262" data-name="Trazado 9262" d="M123.233,33a.555.555,0,0,0-.555.555v.627a.555.555,0,1,0,1.11,0v-.627A.555.555,0,0,0,123.233,33Z" transform="translate(-120.533 -29.336)" fill="#093568"/>
          <path id="Trazado_9263" data-name="Trazado 9263" d="M137.538,19.322h-.627a.555.555,0,0,0,0,1.11h.627a.555.555,0,0,0,0-1.11Z" transform="translate(-132.692 -17.177)" fill="#093568"/>
          <path id="Trazado_9264" data-name="Trazado 9264" d="M104.538,19.322h-.627a.555.555,0,1,0,0,1.11h.627a.555.555,0,1,0,0-1.11Z" transform="translate(-103.356 -17.177)" fill="#093568"/>
        </g>
        <g id="Grupo_25010" data-name="Grupo 25010" transform="translate(8.165 42.284)">
          <ellipse id="Elipse_1363" data-name="Elipse 1363" cx="1.388" cy="1.033" rx="1.388" ry="1.033" fill="#fff"/>
        </g>
        <g id="Grupo_25011" data-name="Grupo 25011" transform="translate(5.438 46.759)">
          <ellipse id="Elipse_1364" data-name="Elipse 1364" cx="0.895" cy="0.666" rx="0.895" ry="0.666" fill="#fff"/>
        </g>
        <g id="Grupo_25012" data-name="Grupo 25012" transform="translate(39.356 42.284)">
          <ellipse id="Elipse_1365" data-name="Elipse 1365" cx="1.388" cy="1.033" rx="1.388" ry="1.033" fill="#fff"/>
        </g>
        <g id="Grupo_25013" data-name="Grupo 25013" transform="translate(43.069 46.759)">
          <ellipse id="Elipse_1366" data-name="Elipse 1366" cx="0.895" cy="0.666" rx="0.895" ry="0.666" fill="#fff"/>
        </g>
      </g>
      <path id="Trazado_9265" data-name="Trazado 9265" d="M50.967,165.429l-4.848-2.266v-1.135a5.227,5.227,0,0,0,2.344-4.358v-3.912a3.234,3.234,0,0,0,1.73-3.819,3.132,3.132,0,0,0-3.006-2.218h-.006l-5.745.021a.555.555,0,0,0-.365.138l-.491.432-.487-.428a.555.555,0,0,0-.366-.138,2.987,2.987,0,0,0-2.968,2.906l-.071,3.23a3.175,3.175,0,0,0,1.32,2.552v1.234a5.227,5.227,0,0,0,2.344,4.358v1.135l-3.272,1.53a3.108,3.108,0,0,0-.637-.394l-6.577-3.028v-1.7a6.882,6.882,0,0,0,3.13-5.8,5.257,5.257,0,0,0,1.763-3.991v-.062A7.852,7.852,0,0,0,26.913,142h0a5.15,5.15,0,0,0-3.884,1.783l-1.115-1a.555.555,0,0,0-.371-.142,3.772,3.772,0,0,0-3.761,3.655l-.094,4.165a3.957,3.957,0,0,0,1.724,3.25,6.864,6.864,0,0,0,3.13,5.861v1.7L15.962,164.3a3.107,3.107,0,0,0-.637.394l-3.272-1.53v-1.135A5.227,5.227,0,0,0,14.4,157.67v-3.912a3.234,3.234,0,0,0,1.73-3.819,3.132,3.132,0,0,0-3.006-2.218h-.006l-5.746.021a.555.555,0,0,0-.365.138l-.491.432-.487-.428a.555.555,0,0,0-.366-.138,2.987,2.987,0,0,0-2.968,2.906l-.071,3.23a3.175,3.175,0,0,0,1.32,2.552v1.234a5.227,5.227,0,0,0,2.344,4.358v1.135l-4.848,2.266A2.509,2.509,0,0,0,0,167.7v8.338a.555.555,0,0,0,.555.555H14.147v1.495a.555.555,0,0,0,.555.555h23a.555.555,0,0,0,.555-.555v-1.495H51.849a.555.555,0,0,0,.555-.555V167.7A2.508,2.508,0,0,0,50.967,165.429ZM3.731,153.908l.071-3.23a1.873,1.873,0,0,1,1.661-1.81l.685.6a.555.555,0,0,0,.733,0l.7-.617,5.537-.02h0a2.027,2.027,0,0,1,1.945,1.436A2.1,2.1,0,0,1,14,152.714c-1.749.9-4.451,1.386-7.392-1.446a.555.555,0,0,0-.906.208L4.3,155.289A1.877,1.877,0,0,1,3.731,153.908Zm1.32,3.761v-1.221c.007-.014.014-.029.019-.044l1.394-3.779a6.983,6.983,0,0,0,6.823,1.578v3.466a4.118,4.118,0,1,1-8.236,0Zm5.891,4.918v1.624a1.773,1.773,0,1,1-3.547,0v-1.624a5.224,5.224,0,0,0,3.547,0Zm3.205,4.533v8.358H1.11V167.7a1.394,1.394,0,0,1,.8-1.261l4.384-2.049a2.883,2.883,0,0,0,5.756,0l2.524,1.18a3.092,3.092,0,0,0-.423,1.555ZM19.793,152.6a2.634,2.634,0,0,1-1-2.114l.094-4.165a2.656,2.656,0,0,1,2.447-2.562L22.722,145a.555.555,0,0,0,.81-.072,4.161,4.161,0,0,1,3.381-1.821,6.738,6.738,0,0,1,6.735,6.62v.062a4.147,4.147,0,0,1-.995,2.746l-2.022-5.157a.555.555,0,0,0-.863-.231,5.8,5.8,0,0,1-3.566,1.115,5.8,5.8,0,0,1-3.566-1.115.555.555,0,0,0-.866.239l-1.959,5.221Zm.725,1.294c.663-1.811,1.362-3.635,2.042-5.449a7.565,7.565,0,0,0,7.291-.005l2.033,5.185a5.744,5.744,0,0,1-5.683,5.907,5.667,5.667,0,0,1-5.683-5.638Zm8.237,6.252v2.352a2.554,2.554,0,1,1-5.107,0v-2.352a6.815,6.815,0,0,0,5.107,0Zm8.391,17.386H32.975v-4.274a.555.555,0,0,0-1.11,0v4.274H20.54v-4.274a.555.555,0,0,0-1.11,0v4.274H15.258V167.12a2.006,2.006,0,0,1,1.168-1.814l6.112-2.814h0a3.664,3.664,0,1,0,7.328,0h0l6.112,2.814a2.006,2.006,0,0,1,1.168,1.814Zm.723-26.85a1.873,1.873,0,0,1,1.661-1.81l.685.6a.555.555,0,0,0,.733,0l.7-.617,5.537-.02h0a2.027,2.027,0,0,1,1.945,1.436,2.1,2.1,0,0,1-1.063,2.446c-1.748.9-4.45,1.386-7.392-1.446a.555.555,0,0,0-.906.208l-1.406,3.814a1.876,1.876,0,0,1-.567-1.381Zm1.248,6.992a3.81,3.81,0,0,1,.019-1.265l1.394-3.779a6.983,6.983,0,0,0,6.823,1.578v3.465a4.118,4.118,0,0,1-8.236,0Zm4.118,5.228a5.2,5.2,0,0,0,1.774-.31v1.624a1.773,1.773,0,0,1-3.547,0v-1.624A5.2,5.2,0,0,0,43.235,162.9Zm8.059,12.581H38.257v-8.358a3.091,3.091,0,0,0-.423-1.555l2.524-1.18a2.883,2.883,0,0,0,5.756,0l4.384,2.049a1.394,1.394,0,0,1,.8,1.261Z" transform="translate(0 -126.235)" fill="#093568"/>
      <g id="Grupo_25015" data-name="Grupo 25015" transform="translate(21.168 3.058)">
        <path id="Trazado_9266" data-name="Trazado 9266" d="M198.081,37.624a1,1,0,0,1-.492-.13l-1.95-1.1-1.95,1.1a1.007,1.007,0,0,1-1.478-1.028l.389-2.434-1.669-1.747a1.008,1.008,0,0,1,.568-1.678l2.247-.351.984-2.141a1.007,1.007,0,0,1,1.816,0l.984,2.141,2.247.351a1.008,1.008,0,0,1,.568,1.678l-1.669,1.747.389,2.434A1.033,1.033,0,0,1,198.081,37.624Zm-6.2-5.952,1.713,1.792a.555.555,0,0,1,.147.471l-.4,2.478,2.022-1.141a.555.555,0,0,1,.546,0l2.022,1.141-.4-2.478a.555.555,0,0,1,.147-.471l1.713-1.792-2.332-.364a.555.555,0,0,1-.419-.317L195.639,28.8l-1.008,2.192a.556.556,0,0,1-.419.317Z" transform="translate(-190.661 -27.544)" fill="#093568"/>
      </g>
      <g id="Grupo_25016" data-name="Grupo 25016" transform="translate(4.186 8.609)">
        <path id="Trazado_9267" data-name="Trazado 9267" d="M45.126,87.624a1,1,0,0,1-.492-.13l-1.95-1.1-1.95,1.1a1.007,1.007,0,0,1-1.478-1.028l.389-2.434-1.669-1.747a1.008,1.008,0,0,1,.568-1.678l2.247-.351.984-2.141a1.007,1.007,0,0,1,1.816,0l.984,2.141,2.247.35a1.008,1.008,0,0,1,.568,1.678l-1.669,1.747.389,2.434A1.033,1.033,0,0,1,45.126,87.624Zm-6.2-5.952,1.713,1.792a.555.555,0,0,1,.147.471l-.4,2.478,2.022-1.141a.556.556,0,0,1,.546,0l2.022,1.141-.4-2.478a.555.555,0,0,1,.147-.471l1.713-1.792-2.332-.364a.555.555,0,0,1-.419-.317L42.684,78.8l-1.008,2.192a.556.556,0,0,1-.419.317Z" transform="translate(-37.706 -77.544)" fill="#093568"/>
      </g>
      <g id="Grupo_25017" data-name="Grupo 25017" transform="translate(38.257 8.609)">
        <path id="Trazado_9268" data-name="Trazado 9268" d="M352,87.624a1,1,0,0,1-.492-.13l-1.95-1.1-1.95,1.1a1.007,1.007,0,0,1-1.478-1.028l.389-2.434-1.669-1.747a1.008,1.008,0,0,1,.568-1.678l2.247-.351.984-2.141a1.007,1.007,0,0,1,1.816,0l.984,2.141,2.247.35a1.008,1.008,0,0,1,.568,1.678l-1.669,1.747.389,2.434A1.033,1.033,0,0,1,352,87.624Zm-6.2-5.952,1.713,1.792a.555.555,0,0,1,.147.471l-.4,2.478,2.022-1.141a.555.555,0,0,1,.546,0l2.022,1.141-.4-2.478a.556.556,0,0,1,.147-.471l1.713-1.792-2.332-.364a.555.555,0,0,1-.419-.317L349.556,78.8l-1.008,2.192a.555.555,0,0,1-.419.317Z" transform="translate(-344.578 -77.544)" fill="#093568"/>
      </g>
    </g>
  </g>
</svg>
