<svg xmlns="http://www.w3.org/2000/svg" width="136.274" height="122.628" viewBox="0 0 136.274 122.628">
  <g id="Grupo_29234" data-name="Grupo 29234" transform="translate(-568 -3643.247)">
    <g id="Grupo_24918" data-name="Grupo 24918" transform="translate(568 3649.003)">
      <path id="Trazado_9062" data-name="Trazado 9062" d="M114.181,102.168H13.253a5.774,5.774,0,0,1-5.775-5.774V14.25a5.774,5.774,0,0,1,5.775-5.775H114.181a5.774,5.774,0,0,1,5.774,5.775V96.394A5.774,5.774,0,0,1,114.181,102.168Z" transform="translate(-5.78 -5.78)" fill="#ffca28"/>
      <path id="Trazado_9063" data-name="Trazado 9063" d="M459.279,14.253V96.4a5.774,5.774,0,0,1-5.774,5.774h-7.054a5.773,5.773,0,0,0,5.774-5.774V14.253a5.773,5.773,0,0,0-5.774-5.774h7.054A5.774,5.774,0,0,1,459.279,14.253Z" transform="translate(-345.104 -5.784)" fill="#ffb509"/>
      <path id="Trazado_9064" data-name="Trazado 9064" d="M119.955,359.925H7.478v8.138a5.774,5.774,0,0,0,5.775,5.774H114.181a5.774,5.774,0,0,0,5.774-5.774Z" transform="translate(-5.78 -277.449)" fill="#838383"/>
      <path id="Trazado_9065" data-name="Trazado 9065" d="M459.279,359.925v8.138a5.774,5.774,0,0,1-5.774,5.774h-7.054a5.773,5.773,0,0,0,5.774-5.774v-8.138Z" transform="translate(-345.104 -277.449)" fill="#5a5a5a"/>
      <path id="Trazado_9066" data-name="Trazado 9066" d="M120.511,28.173H8.031V14.249A5.774,5.774,0,0,1,13.8,8.475H114.738a5.774,5.774,0,0,1,5.774,5.774Z" transform="translate(-6.208 -5.78)" fill="#acacac"/>
      <path id="Trazado_9067" data-name="Trazado 9067" d="M459.409,14.251V28.177h-7.183V14.251a5.773,5.773,0,0,0-5.774-5.772h7.182A5.774,5.774,0,0,1,459.409,14.251Z" transform="translate(-345.104 -5.784)" fill="#9c9c9c"/>
      <path id="Trazado_9068" data-name="Trazado 9068" d="M185.914,421.208h31.464v9.484H185.914Z" transform="translate(-143.71 -324.82)" fill="#5a5a5a"/>
      <path id="Trazado_9069" data-name="Trazado 9069" d="M189,472.288H137.148a1.132,1.132,0,0,1-1.132-1.132v-3.668a4.5,4.5,0,0,1,4.5-4.5h45.112a4.5,4.5,0,0,1,4.5,4.5v3.668A1.131,1.131,0,0,1,189,472.288Z" transform="translate(-105.139 -357.114)" fill="#838383"/>
      <path id="Trazado_9070" data-name="Trazado 9070" d="M341.629,467.491v3.669a1.132,1.132,0,0,1-1.132,1.132h-4v-4.8a4.5,4.5,0,0,0-4.5-4.5h5.127A4.5,4.5,0,0,1,341.629,467.491Z" transform="translate(-256.634 -357.117)" fill="#5a5a5a"/>
      <path id="Trazado_9071" data-name="Trazado 9071" d="M294.9,275.574h36.762v6.968H294.9Z" transform="translate(-227.956 -212.246)" fill="#64dcfc"/>
      <path id="Trazado_9072" data-name="Trazado 9072" d="M294.9,357.075h36.762v6.969H294.9Z" transform="translate(-227.956 -275.246)" fill="#64dcfc"/>
      <path id="Trazado_9073" data-name="Trazado 9073" d="M437.7,275.574h4.346v6.968H437.7Z" transform="translate(-338.336 -212.246)" fill="#00d1fc"/>
      <path id="Trazado_9074" data-name="Trazado 9074" d="M437.7,357.075h4.346v6.969H437.7Z" transform="translate(-338.336 -275.246)" fill="#00d1fc"/>
      <g id="Grupo_24917" data-name="Grupo 24917" transform="translate(62.259 51.794)">
        <path id="Trazado_9075" data-name="Trazado 9075" d="M318.753,236.3H275.9a1.642,1.642,0,0,1-1.642-1.641v-8.251a1.642,1.642,0,0,1,1.642-1.642h42.85a1.642,1.642,0,0,1,1.642,1.642v8.251A1.641,1.641,0,0,1,318.753,236.3Z" transform="translate(-274.261 -224.767)" fill="#4dd0e1"/>
        <path id="Trazado_9076" data-name="Trazado 9076" d="M318.753,317.8H275.9a1.642,1.642,0,0,1-1.642-1.641V307.91a1.642,1.642,0,0,1,1.642-1.642h42.85a1.642,1.642,0,0,1,1.642,1.642v8.251A1.641,1.641,0,0,1,318.753,317.8Z" transform="translate(-274.261 -287.767)" fill="#4dd0e1"/>
        <path id="Trazado_9077" data-name="Trazado 9077" d="M318.753,399.3H275.9a1.642,1.642,0,0,1-1.642-1.641v-8.251a1.642,1.642,0,0,1,1.642-1.642h42.85a1.642,1.642,0,0,1,1.642,1.642v8.251A1.641,1.641,0,0,1,318.753,399.3Z" transform="translate(-274.261 -350.766)" fill="#4dd0e1"/>
      </g>
      <path id="Trazado_9078" data-name="Trazado 9078" d="M458.93,226.412v8.251a1.64,1.64,0,0,1-1.641,1.641h-3.807a1.64,1.64,0,0,0,1.641-1.641v-8.251a1.64,1.64,0,0,0-1.641-1.641h3.807A1.64,1.64,0,0,1,458.93,226.412Z" transform="translate(-350.539 -172.976)" fill="#26a69a"/>
      <path id="Trazado_9079" data-name="Trazado 9079" d="M458.93,307.909v8.251a1.639,1.639,0,0,1-1.641,1.641h-3.807a1.639,1.639,0,0,0,1.641-1.641v-8.251a1.64,1.64,0,0,0-1.641-1.641h3.807A1.64,1.64,0,0,1,458.93,307.909Z" transform="translate(-350.539 -235.972)" fill="#26a69a"/>
      <path id="Trazado_9080" data-name="Trazado 9080" d="M458.93,389.415v8.25a1.641,1.641,0,0,1-1.641,1.642h-3.807a1.641,1.641,0,0,0,1.641-1.642v-8.25a1.639,1.639,0,0,0-1.641-1.642h3.807A1.639,1.639,0,0,1,458.93,389.415Z" transform="translate(-350.539 -298.975)" fill="#26a69a"/>
      <path id="Trazado_9081" data-name="Trazado 9081" d="M47.255,40.464A3.284,3.284,0,1,1,43.97,37.18,3.285,3.285,0,0,1,47.255,40.464Z" transform="translate(-31.45 -27.969)" fill="#ff6b81"/>
      <path id="Trazado_9082" data-name="Trazado 9082" d="M103.131,40.464a3.285,3.285,0,1,1-3.284-3.284A3.285,3.285,0,0,1,103.131,40.464Z" transform="translate(-74.641 -27.969)" fill="#ffd86e"/>
      <path id="Trazado_9083" data-name="Trazado 9083" d="M159.009,40.464a3.284,3.284,0,1,1-3.284-3.284A3.285,3.285,0,0,1,159.009,40.464Z" transform="translate(-117.836 -27.969)" fill="#80e0dc"/>
      <path id="Trazado_9084" data-name="Trazado 9084" d="M50.725,40.469a3.283,3.283,0,0,1-5.548,2.374,3.281,3.281,0,0,0,2.189-5.657.735.735,0,0,1,.077,0A3.283,3.283,0,0,1,50.725,40.469Z" transform="translate(-34.922 -27.972)" fill="#ff435f"/>
      <path id="Trazado_9085" data-name="Trazado 9085" d="M106.6,40.469a3.284,3.284,0,0,1-5.55,2.374,3.281,3.281,0,0,0,2.191-5.657.676.676,0,0,1,.074,0A3.283,3.283,0,0,1,106.6,40.469Z" transform="translate(-78.11 -27.972)" fill="#ffb509"/>
      <path id="Trazado_9086" data-name="Trazado 9086" d="M162.479,40.469a3.284,3.284,0,0,1-5.551,2.374,3.281,3.281,0,0,0,2.189-5.657.735.735,0,0,1,.077,0A3.285,3.285,0,0,1,162.479,40.469Z" transform="translate(-121.304 -27.972)" fill="#00a8b0"/>
      <path id="Trazado_9087" data-name="Trazado 9087" d="M39.029,141.063a1.7,1.7,0,1,0,2.4-2.4l-4.122-4.122,4.122-4.121a1.7,1.7,0,1,0-2.4-2.4l-5.322,5.322a1.7,1.7,0,0,0,0,2.4Z" transform="translate(-25.67 -97.802)"/>
      <path id="Trazado_9088" data-name="Trazado 9088" d="M117.331,134.537l-4.122,4.122a1.7,1.7,0,1,0,2.4,2.4l5.323-5.323a1.7,1.7,0,0,0,0-2.4l-5.323-5.323a1.7,1.7,0,1,0-2.4,2.4Z" transform="translate(-87.125 -97.799)"/>
      <path id="Trazado_9089" data-name="Trazado 9089" d="M77.346,141.439a1.7,1.7,0,0,0,2.2-.959l4.182-10.646a1.7,1.7,0,1,0-3.16-1.242l-4.182,10.646A1.7,1.7,0,0,0,77.346,141.439Z" transform="translate(-58.955 -97.797)"/>
      <path id="Trazado_9090" data-name="Trazado 9090" d="M39.14,221.684H50.577a1.7,1.7,0,0,0,0-3.4H39.14a1.7,1.7,0,0,0,0,3.4Z" transform="translate(-28.942 -167.964)"/>
      <path id="Trazado_9091" data-name="Trazado 9091" d="M137.092,218.288H116.984a1.7,1.7,0,0,0,0,3.4h20.108a1.7,1.7,0,1,0,0-3.4Z" transform="translate(-89.116 -167.964)"/>
      <path id="Trazado_9092" data-name="Trazado 9092" d="M39.14,253.227h4.872a1.7,1.7,0,0,0,0-3.4H39.14a1.7,1.7,0,0,0,0,3.4Z" transform="translate(-28.942 -192.347)"/>
      <path id="Trazado_9093" data-name="Trazado 9093" d="M178.2,249.831a1.7,1.7,0,0,0,0,3.4h2.967a1.7,1.7,0,1,0,0-3.4Z" transform="translate(-136.436 -192.347)"/>
      <path id="Trazado_9094" data-name="Trazado 9094" d="M103.114,251.529a1.7,1.7,0,0,0-1.7-1.7H86.844a1.7,1.7,0,0,0,0,3.4h14.573A1.7,1.7,0,0,0,103.114,251.529Z" transform="translate(-65.817 -192.347)"/>
      <path id="Trazado_9095" data-name="Trazado 9095" d="M213.287,251.529a1.7,1.7,0,0,0,1.7,1.7h5.557a1.7,1.7,0,1,0,0-3.4h-5.557A1.7,1.7,0,0,0,213.287,251.529Z" transform="translate(-164.869 -192.347)"/>
      <path id="Trazado_9096" data-name="Trazado 9096" d="M166.774,152.88h5.861a1.7,1.7,0,1,0,0-3.4h-5.861a1.7,1.7,0,1,0,0,3.4Z" transform="translate(-127.603 -114.779)"/>
      <path id="Trazado_9097" data-name="Trazado 9097" d="M221.515,152.88H257.28a1.7,1.7,0,0,0,0-3.4H221.515a1.7,1.7,0,1,0,0,3.4Z" transform="translate(-169.917 -114.779)"/>
      <path id="Trazado_9098" data-name="Trazado 9098" d="M305.8,182.389H291.316a1.7,1.7,0,0,0,0,3.4H305.8a1.7,1.7,0,0,0,0-3.4Z" transform="translate(-223.873 -140.215)"/>
      <path id="Trazado_9099" data-name="Trazado 9099" d="M250.428,182.389h-4.98a1.7,1.7,0,0,0,0,3.4h4.98a1.7,1.7,0,0,0,0-3.4Z" transform="translate(-188.418 -140.215)"/>
      <path id="Trazado_9100" data-name="Trazado 9100" d="M166.774,185.785h12.2a1.7,1.7,0,0,0,0-3.4h-12.2a1.7,1.7,0,1,0,0,3.4Z" transform="translate(-127.603 -140.215)"/>
      <path id="Trazado_9101" data-name="Trazado 9101" d="M112.187,281.11H100.751a1.7,1.7,0,1,0,0,3.395h11.436a1.7,1.7,0,1,0,0-3.395Z" transform="translate(-76.567 -216.525)"/>
      <path id="Trazado_9102" data-name="Trazado 9102" d="M47.926,281.11H39.14a1.7,1.7,0,1,0,0,3.395h8.787a1.7,1.7,0,0,0,0-3.395Z" transform="translate(-28.942 -216.525)"/>
      <path id="Trazado_9103" data-name="Trazado 9103" d="M191.585,281.11h-14.94a1.7,1.7,0,1,0,0,3.395h14.94a1.7,1.7,0,0,0,0-3.395Z" transform="translate(-135.233 -216.525)"/>
      <path id="Trazado_9104" data-name="Trazado 9104" d="M303.641,242.693h-8.169a1.7,1.7,0,0,0,0,3.4h8.169a1.7,1.7,0,0,0,0-3.4Z" transform="translate(-227.085 -186.829)"/>
      <path id="Trazado_9105" data-name="Trazado 9105" d="M393.908,246.089h11.533a1.7,1.7,0,1,0,0-3.4H393.908a1.7,1.7,0,0,0,0,3.4Z" transform="translate(-303.176 -186.829)"/>
      <path id="Trazado_9106" data-name="Trazado 9106" d="M359.5,242.693H356.86a1.7,1.7,0,1,0,0,3.4H359.5a1.7,1.7,0,0,0,0-3.4Z" transform="translate(-274.538 -186.829)"/>
      <path id="Trazado_9107" data-name="Trazado 9107" d="M295.472,327.589h8.169a1.7,1.7,0,0,0,0-3.395h-8.169a1.7,1.7,0,1,0,0,3.395Z" transform="translate(-227.085 -249.829)"/>
      <path id="Trazado_9108" data-name="Trazado 9108" d="M393.908,327.589h11.533a1.7,1.7,0,1,0,0-3.395H393.908a1.7,1.7,0,0,0,0,3.395Z" transform="translate(-303.176 -249.829)"/>
      <path id="Trazado_9109" data-name="Trazado 9109" d="M356.863,327.589h2.643a1.7,1.7,0,1,0,0-3.395h-2.643a1.7,1.7,0,0,0,0,3.395Z" transform="translate(-274.541 -249.829)"/>
      <path id="Trazado_9110" data-name="Trazado 9110" d="M303.641,405.7h-8.169a1.7,1.7,0,1,0,0,3.395h8.169a1.7,1.7,0,0,0,0-3.395Z" transform="translate(-227.085 -312.829)"/>
      <path id="Trazado_9111" data-name="Trazado 9111" d="M405.441,405.7H393.908a1.7,1.7,0,0,0,0,3.395h11.533a1.7,1.7,0,1,0,0-3.395Z" transform="translate(-303.176 -312.829)"/>
      <path id="Trazado_9112" data-name="Trazado 9112" d="M359.5,405.7H356.86a1.7,1.7,0,1,0,0,3.395H359.5a1.7,1.7,0,0,0,0-3.395Z" transform="translate(-274.538 -312.829)"/>
      <path id="Trazado_9113" data-name="Trazado 9113" d="M108.53,1H7.472A7.481,7.481,0,0,0,0,8.469V90.614a7.48,7.48,0,0,0,7.472,7.471h6.389a1.7,1.7,0,1,0,0-3.395H7.472A4.081,4.081,0,0,1,3.4,90.614v-6.44H65.247V87.1H63.9a3.342,3.342,0,0,0-3.339,3.339V94.69H24.183a1.7,1.7,0,0,0,0,3.395H40.506v6.089H35.38a6.208,6.208,0,0,0-6.2,6.2v3.668a2.832,2.832,0,0,0,2.829,2.829H83.863a2.832,2.832,0,0,0,2.829-2.829v-3.668a6.209,6.209,0,0,0-6.2-6.2H75.365v-2.146h31.385a3.342,3.342,0,0,0,3.338-3.339v-.8a7.482,7.482,0,0,0,5.783-7.276L116,8.468A7.478,7.478,0,0,0,108.53,1ZM63.958,80.132V71.994h42.737v8.138ZM68.642,68.6V65.026h33.367V68.6Zm33.367,14.929V87.1H68.642V83.527ZM43.9,98.085h16.66v.6a3.342,3.342,0,0,0,3.339,3.338h8.07v2.146H43.9Zm36.591,9.485a2.809,2.809,0,0,1,2.806,2.806v3.1H32.574v-3.1a2.809,2.809,0,0,1,2.806-2.806Zm26.2-8.938H63.958V90.5h42.737Zm5.783-8.018a4.078,4.078,0,0,1-2.387,3.7V90.438a3.343,3.343,0,0,0-3.339-3.338H105.4V84.174h7.072Zm0-9.835h-2.443c.035-.192.056-8.841.056-8.841a3.343,3.343,0,0,0-3.339-3.339H105.4V65.026h1.346a3.344,3.344,0,0,0,3.339-3.339V53.436a3.344,3.344,0,0,0-3.339-3.339H97.162a1.7,1.7,0,0,0,0,3.4h9.532V61.63H63.958V53.493H86.6a1.7,1.7,0,0,0,0-3.4H63.9a3.343,3.343,0,0,0-3.339,3.339v8.251A3.343,3.343,0,0,0,63.9,65.026h1.346V68.6H63.9a3.343,3.343,0,0,0-3.339,3.339s.021,8.649.056,8.841H3.4V24.091H112.477Zm0-60.084H3.521V8.468A4.08,4.08,0,0,1,7.6,4.393H108.4a4.081,4.081,0,0,1,4.076,4.076Z"/>
      <path id="Trazado_9114" data-name="Trazado 9114" d="M38.191,29.7a4.982,4.982,0,1,0,4.983,4.982A4.987,4.987,0,0,0,38.191,29.7Zm0,6.568a1.587,1.587,0,1,1,1.587-1.587A1.589,1.589,0,0,1,38.191,36.271Z" transform="translate(-25.67 -22.19)"/>
      <path id="Trazado_9115" data-name="Trazado 9115" d="M94.067,29.7a4.982,4.982,0,1,0,4.982,4.982A4.988,4.988,0,0,0,94.067,29.7Zm0,6.568a1.587,1.587,0,1,1,1.587-1.587A1.588,1.588,0,0,1,94.067,36.271Z" transform="translate(-68.861 -22.19)"/>
      <path id="Trazado_9116" data-name="Trazado 9116" d="M149.945,29.7a4.982,4.982,0,1,0,4.983,4.982A4.987,4.987,0,0,0,149.945,29.7Zm0,6.568a1.587,1.587,0,1,1,1.587-1.587A1.589,1.589,0,0,1,149.945,36.271Z" transform="translate(-112.055 -22.19)"/>
    </g>
    <g id="cheque" transform="translate(651.726 3578.262)">
      <path id="Trazado_9117" data-name="Trazado 9117" d="M51.148,73.084,28.105,96.126a1.59,1.59,0,0,1-2.249,0l-9.919-9.919L8.1,94.045l14.963,14.963a5.542,5.542,0,0,0,3.919,1.623h0a5.542,5.542,0,0,0,3.919-1.623L58.985,80.922Z" transform="translate(-7.268 -7.268)" fill="#a5eb78"/>
      <g id="Grupo_24919" data-name="Grupo 24919" transform="translate(16.509 71.062)" opacity="0.1">
        <path id="Trazado_9118" data-name="Trazado 9118" d="M193.469,124.2l-29.65,29.65a6.067,6.067,0,0,1-2.966,1.629,5.541,5.541,0,0,0,3.2,1.022h0a5.542,5.542,0,0,0,3.919-1.623l28.086-28.086Z" transform="translate(-160.852 -124.196)"/>
      </g>
      <path id="Trazado_9119" data-name="Trazado 9119" d="M19.713,218.934a6.332,6.332,0,0,1-4.507-1.867L.243,202.1a.831.831,0,0,1,0-1.176l7.838-7.838a.831.831,0,0,1,1.176,0l2.942,2.942a.831.831,0,0,1-1.176,1.176l-2.354-2.354-6.662,6.662,14.375,14.375a4.711,4.711,0,0,0,6.662,0L42.231,196.7a.831.831,0,1,1,1.176,1.176L24.219,217.067A6.333,6.333,0,0,1,19.713,218.934Z" transform="translate(0 -114.74)"/>
      <path id="Trazado_9120" data-name="Trazado 9120" d="M134.525,90.156a2.4,2.4,0,0,1-1.712-.709l-4.626-4.626a.831.831,0,0,1,1.176-1.176l4.626,4.626a.759.759,0,0,0,1.073,0L158.1,65.228a.831.831,0,0,1,1.176,0l7.838,7.838a.831.831,0,0,1,0,1.176l-6.547,6.547a.831.831,0,0,1-1.176-1.176l5.959-5.959-6.662-6.662L136.237,89.446A2.406,2.406,0,0,1,134.525,90.156Z" transform="translate(-114.812)"/>
    </g>
  </g>
</svg>
